<?xml version="1.0" encoding="utf-8"?>
<!-- Generator: Adobe Illustrator 25.4.1, SVG Export Plug-In . SVG Version: 6.00 Build 0)  -->
<svg version="1.1" id="bg" xmlns="http://www.w3.org/2000/svg" xmlns:xlink="http://www.w3.org/1999/xlink" x="0px" y="0px"
	 viewBox="0 0 1122 1080" style="enable-background:new 0 0 1122 1080;" xml:space="preserve">
<style type="text/css">
	.st0{fill:#1E2329;}
</style>
<g>
	<path class="st0" d="M360.42,324.46c-0.47,0.11-0.88,0.23-1.26,0.35c0.31,0,0.63,0.01,0.94,0.01c0.71-0.13,1.42-0.27,2.12-0.4
		C361.63,324.44,361.03,324.45,360.42,324.46z"/>
	<path class="st0" d="M486.25,475.79c-1.5,0.06-2.76,0.27-2.82,0.46c-0.07,0.17,1.11,0.28,2.49,0.21c44.8-1.93,89.38-3.75,134-5.37
		c1.5-0.07,2.73-0.27,2.93-0.46c0.06-0.2-1-0.3-2.39-0.26C575.83,471.99,531.03,473.83,486.25,475.79z"/>
	<path class="st0" d="M488.54,384.19c-0.19,0.01-0.34,0.14-0.35,0.29c-0.22,4.91-0.22,9.82-0.11,14.71c0,0.16,0.15,0.29,0.35,0.28
		c0.16-0.01,0.33-0.15,0.31-0.3c-0.09-4.9-0.07-9.79,0.14-14.69C488.87,384.32,488.72,384.2,488.54,384.19z"/>
	<path class="st0" d="M472.68,422.88c0.13-0.13,0.09-0.31-0.04-0.4c-0.15-0.1-0.35-0.08-0.47,0.05c-0.11,0.11-0.11,0.3,0.04,0.4
		C472.33,423.02,472.57,422.99,472.68,422.88z"/>
	<path class="st0" d="M351.24,337.35L351.24,337.35L351.24,337.35z"/>
	<path class="st0" d="M347.17,414.78c-0.19,0.02-0.33,0.2-0.33,0.4c0.33,6.65,0.98,13.3,1.85,19.91c0.03,0.22,0.2,0.38,0.39,0.36
		c0.16-0.02,0.3-0.22,0.26-0.42c-0.85-6.62-1.48-13.23-1.81-19.87C347.52,414.94,347.35,414.78,347.17,414.78z"/>
	<polygon class="st0" points="408.79,264.57 408.79,264.57 408.79,264.57 	"/>
	<path class="st0" d="M407.65,264L407.65,264c0.14,0.07,0.46,0.23,1.14,0.57l-0.01,0l-0.06-0.03l-0.12-0.06l-0.95-0.47L407.65,264
		C407.77,264.06,407.72,264.04,407.65,264z"/>
	<path class="st0" d="M421.97,269.3l-0.16-0.29c-0.04,0.04-0.09,0.07-0.14,0.11c0.06,0.08,0.14,0.15,0.22,0.22
		C421.93,269.33,421.95,269.32,421.97,269.3z"/>
	<path class="st0" d="M423.05,272.48c-0.3,0.07-0.65,0.13-0.76,0.44c0.08,0.14,0.12,0.21,0.14,0.25c0.18-0.03,0.43-0.07,0.68-0.12
		C423.62,272.96,423.44,272.67,423.05,272.48z"/>
	<path class="st0" d="M422.43,273.17c-0.17,0.02-0.29,0.04-0.29,0.04c0.11,0.02,0.21,0.04,0.31,0.05c0-0.04,0-0.05,0-0.05
		S422.46,273.21,422.43,273.17z"/>
	<path class="st0" d="M417.32,165.07c0.19-0.02,0.32-0.24,0.3-0.5c-0.74-8.21-2.15-16.38-3.8-24.5c-0.06-0.27-0.26-0.46-0.45-0.43
		c-0.16,0.03-0.27,0.28-0.2,0.52c1.62,8.11,3.01,16.22,3.75,24.42C416.96,164.87,417.14,165.07,417.32,165.07z"/>
	<path class="st0" d="M419.46,98.52c0.05-0.21-0.06-0.53-0.26-0.67c-0.18-0.12-0.4-0.03-0.44,0.18c-0.05,0.25,0.09,0.55,0.26,0.67
		C419.22,98.85,419.41,98.77,419.46,98.52z"/>
	<path class="st0" d="M692.44,88.54c-0.03,0.07-0.05,0.13-0.08,0.2c0.08,0.16,0.16,0.32,0.23,0.48c0.03-0.13,0.07-0.26,0.1-0.39
		C692.61,88.73,692.53,88.63,692.44,88.54z"/>
	<path class="st0" d="M690.12,82.68c0.24-0.52,0.49-1.02,0.43-1.77c-0.14-0.18-0.21-0.27-0.24-0.32c-0.14,0.28-0.34,0.65-0.53,1.02
		C689.41,82.34,689.7,82.72,690.12,82.68z"/>
	<path class="st0" d="M690.31,80.59c0.13-0.26,0.22-0.43,0.22-0.43c-0.1,0.1-0.2,0.19-0.29,0.29c0.02,0.08,0.02,0.08,0.02,0.08
		S690.27,80.53,690.31,80.59z"/>
	<path class="st0" d="M673.09,223.14c-1.03,2.44-2.29,4.85-3.41,7.28c-1.14,2.42-2.27,4.85-3.57,7.24l-3.74,7.19l-4.07,7.08
		c-0.18,0.32-0.21,0.65-0.04,0.76c0.14,0.1,0.42-0.07,0.58-0.37l4.1-7.09l3.76-7.19c1.3-2.39,2.44-4.81,3.58-7.24
		c1.12-2.43,2.38-4.84,3.42-7.29c0.13-0.33,0.1-0.66-0.05-0.77C673.46,222.66,673.22,222.83,673.09,223.14z"/>
	<path class="st0" d="M616.54,279.5c0.07-0.27-0.08-0.4-0.35-0.32c-0.24,0.06-0.52,0.32-0.59,0.58c-0.06,0.23,0.12,0.39,0.35,0.32
		C616.22,280.01,616.48,279.73,616.54,279.5z"/>
	<path class="st0" d="M276.58,202.4c0.09,0,0.18-0.01,0.27-0.01l-0.01-0.03C276.75,202.37,276.67,202.39,276.58,202.4z"/>
	<path class="st0" d="M309.02,250.27c3.85-6.27,0.01-7.35-8.6-2.52c1.3,2.83,2.61,5.65,3.91,8.47
		C306.31,254.09,307.92,252.06,309.02,250.27z"/>
	<path class="st0" d="M278.73,200.76c-0.8,0.18-1.59,0.36-2.35,0.55c0.01,0.03,0.02,0.05,0.04,0.08h-0.02l0.45,0.97l0.02,0
		c0,0.01,0.01,0.02,0.01,0.02l-0.02,0.01l0.76,1.64c-0.23,0.08-0.48,0.15-0.71,0.22c0.16,0.35,0.31,0.68,0.47,1.03l-0.27,0.09
		l0.27,0.58c-0.05,0.01-0.11,0.02-0.16,0.03c0.42,0.92,0.84,1.82,1.26,2.72c-0.25,0.03-0.51,0.05-0.76,0.08
		c0.02,0.04,0.04,0.08,0.06,0.12c-0.01,0-0.02,0.01-0.03,0.01c0.25,0.53,0.51,1.1,0.76,1.64c-0.13,0.02-0.26,0.04-0.39,0.06
		c-0.02,0-0.06,0.01-0.06,0.01c1.35,2.92,2.54,5.5,3.62,7.85c0.16-0.02,0.29-0.03,0.46-0.05c1.47,3.19,2.98,6.46,4.5,9.76
		c-0.11,0.1-0.25,0.19-0.35,0.29c1.03,2.22,1.87,4.05,2.59,5.62c-0.67,0.48-1.18,0.85-1.72,1.23c-0.74-1.6-1.48-3.21-2.43-5.27
		c-0.79,0.95-1.3,1.87-1.54,2.78l-0.09,1.51c0.99,1,3.39,1.67,6.79,1.94c0.99,2.13,1.74,3.76,2.48,5.38
		c0.13-0.11,0.24-0.2,0.35-0.29c0.25,0.55,0.5,1.09,0.76,1.63c0,0,0.02-0.02,0.03-0.02c0.02,0.04,0.04,0.09,0.06,0.13
		c0.2-0.14,0.4-0.28,0.6-0.42c0.4,0.87,0.81,1.74,1.21,2.61c0.04-0.03,0.09-0.06,0.13-0.09l0.26,0.57l0.21-0.23
		c0.17,0.37,0.34,0.74,0.51,1.11l0.07-0.07c0.18-0.15,0.34-0.31,0.5-0.46l1.28,2.78l0.02-0.01c0.01,0.02,0.02,0.05,0.03,0.07
		c0.07-0.07,0.14-0.14,0.22-0.21l1.3-0.73c0.18-0.1,0.35-0.19,0.53-0.29c-0.08-0.18-0.16-0.35-0.24-0.53
		c2.04-2.05,3.76-4.03,4.95-5.82c2.58,0.52,5.07,1.06,7.18,1.74l4.61,0.83c3.37,0.73,8.52,0.79,14.43,0.21l6.25-0.64
		c1.3-0.22,2.59-0.43,3.9-0.65c-6.29,2.66-9.51,5.49-7.9,7.59c2.75,3.44,17.84,3.53,33.7,0.16c17.31-3.16,34.38-6.29,51.45-9.52
		c-0.2,0.66-0.31,1.36-0.36,2.08c-2.02,3-3.46,6.65-4.3,10.53c-0.03,0.14-0.06,0.27-0.09,0.41c-0.53,0.46-0.95,1.17-1.1,1.98
		c-0.19,0.32-0.34,0.71-0.58,0.93c-2.23,1.86-3.91,3.89-5.25,4.97c0.43-0.14,0.86-0.41,1.3-0.66c-0.41,0.45-0.83,0.78-0.94,1.18
		c0.24,0.03,0.48,0.03,0.72,0.04c-1,0.44-1.41,0.79-1.23,1.01c0.04,0.04,0.12,0.13,0.23,0.18l0.09,0.03l0.41,0.19
		c-0.19-0.09-0.09-0.05,0,0l0.01,0c-0.01-0.01-0.01-0.01-0.03-0.01l0,0l0.01,0l0.07,0.02l0.15,0.05l0.32,0.13
		c0.24,0.1,0.49,0.23,0.73,0.41c1.01,0.69,2.19,1.57,3.37,2.24c1.16,0.68,2.42,1.07,3.33,1.17c0,0.01,0.14,0.01,0.31,0
		c0.06,0.23,0.16,0.46,0.36,0.75c0.22,0.45,0.65,1.02,1.22,1.62c0.54,0.57,1.45,0.99,2.23,1.44c1.03,0.81,2.44,0.78,2.93,0.04
		c0.14-0.2,0.18-0.44,0.16-0.69c0.9-0.76,1.73-1.85,2.69-3.11c0.22-0.24,0.19-0.62-0.06-0.85c-0.26-0.2-0.63-0.17-0.84,0.08
		c-0.86,0.85-1.75,1.52-2.64,2.01l0.14,0.26c-0.09-0.06-0.14-0.14-0.21-0.21c-0.09,0.05-0.18,0.08-0.26,0.12
		c-0.03-0.07-0.08-0.14-0.11-0.21c0.05-0.04,0.11-0.08,0.16-0.13c-0.13-0.15-0.22-0.32-0.3-0.49c0.89-1.15,1.83-2.67,3.05-4.34
		c0.07-0.1,0.61,0.2,0.86,0.04l0.35-0.27c-0.19,0.33-0.36,0.66-0.52,1.01c0.48,1.55,0.66,2.13,0.79,2.53l-0.01,0c0,0,0,0,0.04,0.12
		c0.05,0.18,0.1,0.34,0.17,0.57c0,0,0.02,0,0.05,0.01l0.06,0.15c-0.09,0.19-0.2,0.34-0.29,0.52c-0.12,0.19-0.08,0.42,0.07,0.58
		c-0.16,0.03-0.32,0.06-0.49,0.1c-0.61,0.86-0.62,0.86-1.21,1.64c0,0,0.14,0.06,0.34,0.11c0,0.04,0.01,0.37-0.21,0.66
		c-0.11,0.33-0.14,0.31-0.7,0.89c0,0,0,0,0.69-0.06c0,0,0,0-0.51,0.1c0,0,0,0,0.62,0.25c0,0,0,0-0.71-0.22c0,0,0,0,0.39,0.41
		c0,0-0.03,0.02-1.73-0.21c0,0.06-0.01,0.21-0.02,0.59c0,0,0.07,0.16,0.19,0.32c0.15,0.12,0.16,0.11,0.55,0.74
		c0,0,0.18,0.13,0.39,0.25c0.23,0.05,0.23,0.05,0.75,0.38c0,0,0.25,0.04,0.51,0.02c0.18-0.07,0.24-0.07,0.88-0.36l0.2,0.3
		c0.9,0.69,0.87,0.76,3.57,1.39c0,0,0.89-0.04,1.71-0.5c0.67-0.69,0.64-0.72,1.35-1.62c0,0,0.17-0.2,0.47-0.54
		c0.52-0.14,0.66-0.16,1.11-0.25l0.01,0c-0.05,0.23-0.07,0.45-0.03,0.67c0.14,0.63,0.7,0.97,1.28,0.7c1.38,1.25,2.96,1.56,4.71,1.28
		c0.43,0.46,0.95,0.82,1.54,1.02c0.98,1.59,2.1,2.92,3.48,3.93l1.27,0.77c1.29,0.2,2.83-0.33,4.29-1.59l0.52-0.35l0.96,0.9
		c3.86-0.88,7.73-4.59,11.33-6.67l2.04-1.73c1.59-1.24,2.99-3.49,3.81-6.06l0.82-2.69c0.08-0.56,0.16-1.11,0.24-1.67
		c1.19,2.95,3.14,5,5.55,4.75c1.98-0.21,3.89-2.01,5.27-4.51c1.39-2.48,2.15-5.45,2.18-8.78c0.62-8.63,0.92-17.14,0.77-25.68
		c3.17-0.64,6.33-1.27,9.51-1.91c31.56-6.32,60.02-11.91,90.85-14.66c12.1-1.75,24.01-3.32,35.83-4.67
		c-1.23,6.4-2.55,12.72-4.13,19.06c-1.01,4.41-1.68,8.41-2.12,12.6c-0.21,2.1-0.58,4.06-0.88,6.15c-0.35,2.04-0.62,4.23-1.25,6.25
		c-0.07,0.23,0.08,0.38,0.29,0.38c0.24-0.05,0.45-0.3,0.5-0.52c5.35-11.89,9.25-24.12,14.06-36.89c0.54-1.47,1.12-2.9,1.73-4.3
		c0.12-0.13,0.23-0.29,0.32-0.47c0.66-1.08,1.21-2.23,1.78-3.37c0.02,0,0.04,0,0.07-0.01l-0.34,1.03c-0.35,0.91-0.19,1.86,0.39,2.16
		c0.26,0.1,0.54,0.07,0.83-0.06c-0.77,3.56-1.19,7.24-1.82,10.83c-0.39,0.98-0.59,1.96-0.63,2.86c-2.1,3.56-4.37,6.95-6.67,10.32
		l-0.64,0.8c-0.76,1.09-1.11,2.35-0.77,3.29c0.09,0.29,0.23,0.52,0.41,0.7c-0.94,2.13-1.79,4.36-2.84,6.45
		c-1.05,2.08-2.09,4.18-3.1,6.31c-1.04,2.1-2.2,4.09-3.22,6.19l-1.53,3.14c-0.55,1.01-1.07,2.03-1.58,3.06
		c-0.2,0.42-0.16,0.78,0.12,0.93c-0.17,0.08-0.33,0.23-0.41,0.43c-0.33,1.13-0.91,2.24-1.55,3.37c-0.11,0.28-0.08,0.52,0.12,0.53
		c0.23,0.04,0.5-0.14,0.6-0.38c0.66-1.17,1.24-2.36,1.65-3.55c0.04-0.13,0.02-0.25-0.04-0.34c0.31-0.06,0.65-0.31,0.86-0.66
		c5.47-7.58,9.22-15.85,13.51-24.1c-0.69,2.23-1.41,4.51-2.33,6.72c-0.99,2.2-1.99,4.42-3.02,6.7c-1.3,2.74-2.66,5.32-3.97,7.99
		c-1.32,2.67-3,5.07-4.79,7.58c-0.21,0.24-0.22,0.52-0.07,0.62c0.16,0.09,0.45,0,0.62-0.26c3.98-4.91,6.64-10.37,9.11-15.8
		c1.15-2.8,2.41-5.47,3.64-8.24c1.17-2.82,2.59-5.51,4.13-8.3c0.24-0.44,0.49-0.88,0.75-1.3l-0.39,3.16l-0.52,3.1
		c-0.36,2.1-0.71,4.19-1.07,6.27c-5.96,10.43-12.79,20.33-20.6,29.5c-0.42,0.41-0.55,0.97-0.3,1.22c0.25,0.26,0.81,0.12,1.23-0.29
		c2.61-2.22,5.42-4.3,7.83-6.79c2.49-2.42,5.06-4.8,7.3-7.49l-0.53,1.46l-0.76,1.26c-1.41,1.77-2.95,3.41-4.4,5.15l-2.2,2.59
		c-0.74,0.86-1.56,1.64-2.33,2.47c-1.25,1.15-1.71,2.69-1.07,3.51c0.67,0.75,2.16,0.45,3.42-0.66l-0.46,0.69
		c-0.17,0.22-0.17,0.5,0,0.56c0.2,0.05,0.54-0.11,0.7-0.33c0.53-0.85,1.06-1.69,1.59-2.54c6.35-6.17,12.08-13.03,16.8-20.51
		c-1.14,2.1-2.16,4.31-3.5,6.32c-1.29,2.04-2.61,4.09-3.97,6.12c-1.36,2.03-2.96,3.9-4.47,5.84l-2.34,2.87
		c-0.81,0.93-1.69,1.8-2.55,2.7c0.06-0.23-0.08-0.4-0.35-0.32c-0.23,0.06-0.53,0.35-0.59,0.59c-0.07,0.26,0.11,0.39,0.35,0.33
		l0.02-0.01l-2.82,2.84c-0.93,0.95-1.9,1.87-2.95,2.71c-2.05,1.72-4.13,3.4-6.24,5.05c-0.25,0.19-0.36,0.49-0.23,0.64
		c0.13,0.15,0.44,0.09,0.71-0.13c14.35-10.7,25.33-25.25,32.22-40.71l1.37-2.38l0.01,0.01c0.81,0.16,1.72,0,2.63-0.43
		c-2.73,5.36-5.83,10.52-9.06,15.68l-4.77,5.9c-1.62,1.94-3.41,3.75-5.11,5.63c-0.5,0.53-0.67,1.21-0.35,1.54
		c0.29,0.3,0.94,0.07,1.48-0.48l2.57-2.76c-0.29,1.12-0.18,2.13,0.4,2.75c0.56,0.6,1.47,0.71,2.51,0.42
		c-1.65,2.35-3.16,4.82-4.88,7.13c-1.72,2.3-3.42,4.63-5.07,7c-0.2,0.28-0.2,0.53,0,0.58c0.2,0.05,0.52-0.12,0.71-0.39
		c5.69-5.98,10.75-12.33,15.24-18.95c4.78-4.25,9.2-8.73,13.26-14.27c2.81-4.1,5.27-8.28,7.1-12.62c2.01-4.28,3.45-8.68,4.9-13.03
		c1.7-2.85,2.99-5.82,4.39-8.76c0.19,0.57,0.51,0.99,0.98,1.18c0.12,0.05,0.24,0.06,0.37,0.08c-1.19,2.62-2.23,5.3-3.56,7.94
		c-5.82,12.34-11.68,24.4-18.76,36.03c-5.17,8.53-10.96,16.85-17.66,24.67c-9.63,1.65-19.78,3.3-30.22,4.73
		c-13.98,1.94-28.44,3.51-42.53,4.47c0.65,0.33,1.39,0.7,2.04,1.03c-5.22,0.2-8.34-0.25-14.09,0.01c1.63,0.16,3.16,0.32,4.8,0.48
		c-0.11,0.01-0.23,0.01-0.35,0.02c-6.18-0.11-13.61,0.2-21.36,0.76c-17.11-0.55-38.11-0.19-60.03,0.84
		c-0.76,0.04-1.54,0.08-2.31,0.11c-2.97-0.28-7.42-0.31-12.59,0c-2.19,0-4.75,0.08-6.34-0.02c-14.28-0.98-31.65-1.11-50.78-0.77
		c3.69,0.11,7.55,0.22,11.25,0.33c-5.53,0.08-10.98,0.14-17.12,0.56c0.67,0.17,1.49,0.38,2.17,0.56c-19.07-0.36-45,2.1-57.92,5.47
		c-12.97,3.38-8.1,6.4,10.97,6.76l2.73,0.07c-9.64,1.06-18.02,2.46-22.68,4.21c-0.25,0.1-0.43,0.19-0.59,0.29
		c0.05-0.76,0.09-1.52,0.14-2.29c0.1-1.4,0.02-2.61-0.18-2.6c-0.2,0.01-0.44,1.29-0.53,2.84c-0.12,1.68-0.22,3.35-0.32,5.03
		c-0.61-0.33-1.33-0.64-2.21-0.96l-1.45-0.47c-1.51-0.34-3.35-0.64-5.11-0.23l-0.62,0.11l-0.99-0.52c-2.18-0.03-4.39,0.52-6.39,1.55
		c-0.28,0.14-0.55,0.3-0.83,0.45c-0.15-0.28-0.33-0.35-0.52-0.19c-0.14,0.12-0.28,0.37-0.41,0.72c-1.34,0.81-2.61,1.69-3.84,2.44
		c0,0-0.49,0.43-0.97,0.86c-0.47,0.45-0.94,0.9-0.94,0.9c-0.75,0.66-1.4,1.57-1.92,2.67c-0.26,0.5-0.49,1.28-0.67,1.92
		c-0.18,0.66-0.33,1.3-0.44,1.86c0,0.15-0.42,1.97-0.42,1.97l-0.02,1.18c-1.56-1.94-3.81-3.02-6.15-2.61
		c-3.85,0.71-6.48,5.27-5.82,10.18c0.61,13.1,1.66,25.76,4.5,38.93c2.08,9.75,4.71,18.45,5.97,28.02
		c2.91,8.93,6.44,17.36,10.54,25.71c2.9,5.88,7.13,10.19,11.1,14.8c0.4,1.06,0.84,2.1,1.28,3.14c1,2.28,2.15,4.45,3.47,6.52
		c2.62,4.1,6.02,7.89,10.27,10.67c4.21,2.84,8.88,4.46,13.7,5.35c4.82,0.9,10.08,1.11,15.53,0.8c5.25-0.36,10.53-0.72,15.83-1.08
		c3.34-0.27,6.7-0.54,10.08-0.81c38.47-3.08,72.28-5.63,110.94-8.38c45.26-3.2,87.41-5.15,131.82-7.38
		c4.37-0.07,8.75-0.2,13.16-0.48c4.46-0.28,8.92-0.56,13.34-0.83c4.35-0.2,8.7-0.4,13.03-0.59c4.39-0.2,8.97-0.42,13.73-0.81
		c9.48-0.8,19.83-2.24,30.42-6.02c2.63-0.92,5.27-2.03,7.88-3.33c2.66-1.19,5.12-2.68,7.59-4.15c4.84-3.07,9.4-6.54,13.42-10.46
		c4.14-3.84,7.65-8.16,10.95-12.6c3.12-4.55,6.05-9.23,8.31-14.22c-2.61,6.01-5.95,11.74-9.88,17.1c-1.9,2.72-4.13,5.24-6.32,7.78
		c-2.36,2.42-4.69,4.86-7.33,7.04c-5.18,4.43-10.93,8.39-17.26,11.41c-6.25,3.15-12.61,5.19-18.77,6.74
		c-12.33,2.98-23.72,3.74-33.83,4.52c-10.03,0.79-20.04,1.58-30.01,2.37c-2.87,0.2-4.75,0.64-4.44,0.98c0.53,0.33,3.12,0.46,6,0.26
		l20.87-1.33l10.51-0.66c3.6-0.23,7.34-0.49,11.24-0.87c7.79-0.76,16.23-1.94,25.07-4.48c4.41-1.28,8.9-2.87,13.35-4.97
		c4.49-2.12,8.8-4.59,12.78-7.42c16.01-11.36,27.18-27.31,33.41-44.68c3.1-8.72,5.01-17.89,5.46-27.28
		c0.45-9.49-0.54-18.58-2.64-27.43c-0.17-2.23-0.42-4.75-0.96-7.44c-0.45-2.73-1.21-5.6-2.09-8.67c-1.85-6.09-4.56-12.75-8.29-19.44
		c-3.74-6.73-8.35-13.3-14.1-19.69c-1.79-1.95-3.89-4.06-5.93-6c-2.1-1.93-4.3-3.75-6.47-5.64c-2.22-1.8-4.59-3.34-6.89-5.01
		c-2.33-1.62-4.81-2.83-7.36-3.91c-4.85-1.95-10.13-2.99-15.27-2.97c-9.05-0.09-17.61,2.77-25.91,6.22l-2.83,1.12l-1.58,0.66
		l-3.14,1.33l-6.35,2.51c2.04-0.61,4.05-1.21,6.06-1.81c2.06-0.7,4.12-1.4,6.21-2.11c-5.94,2.29-11.45,4.4-16.73,6.43
		c-2.64,0.97-5.22,1.93-7.78,2.87c-2.55,0.97-5.13,1.79-7.67,2.7c-0.92,0.2-1.83,0.41-2.82,0.63c-0.97,0.17-1.99,0.34-2.97,0.51
		c5.11-6.04,9.48-12.57,13.5-19.57c1.2-2.09,2.25-4.16,3.35-6.17c1.05-2.02,2.22-3.94,3.13-5.97c1.88-4.02,3.96-7.93,5.71-12.25
		c4.47-9.96,8.54-19.02,12.32-28.75c0.49-0.91,0.93-1.84,1.23-2.83c0.31-1,0.61-2,0.92-2.99c1.46-3.8,2.73-7.58,4.21-11.31
		c0.11-0.31,0.23-0.63,0.34-0.94c0.52-0.03,1.03-0.05,1.54-0.08c-1.26,5.87-2.55,11.76-3.95,17.67c-0.19,0.66-0.01,1.21,0.34,1.26
		c0.38,0.01,0.83-0.48,1.02-1.14c1.81-5.98,3.48-11.95,5.02-17.92c8.37-0.47,16.18-1.06,23.81-1.44c5.2-0.39,10.27-0.46,15.46-0.72
		c5.14-0.01,10.4-0.21,15.77,0.08c0.62,0.03,0.72-0.17,0.43-0.38c-0.46-0.25-1.3-0.43-1.87-0.44c-17.24-1.76-34.58-2.46-52.27-2.52
		c0.17-0.72,0.35-1.44,0.52-2.16l0.48,0.06c3.52,0.32,6.93,0.29,8.69-0.35c0.56-0.18,0.91-0.39,1.09-0.62
		c24.62,0.72,49.32,3.96,72.39,7.67c1.17,0.18,1.85,0.07,1.75-0.27c0.41,0.18,0.96,0.35,1.47,0.43c2.8,0.31,5.87,0.9,9.1,1.59
		c0.72,0.1,1.15,0.05,0.87-0.2c-0.27-0.29-1.02-0.59-1.67-0.7c-3.32-0.67-6.56-1.32-9.59-1.66c-0.33-0.03-0.56,0.01-0.64,0.09
		c-0.6-0.35-1.6-0.71-2.64-0.9c-11.74-2.79-23.52-4.53-35.33-5.91c-11.81-1.42-23.71-2.25-35.85-3.1c11.96-0.13,24.2,0.47,37,1.84
		c15.44,1.62,29.75,3.37,44.98,7.31c0.78,0.23,1.36,0.22,1.33,0.02c-0.05-0.2-0.65-0.54-1.43-0.73c-15.58-4.2-30.66-6.23-45.82-7.58
		c-14.52-1.28-29.15-1.93-44.85-2.9c0.07-0.33,0.14-0.65,0.21-0.98c0.49-0.05,0.98-0.09,1.47-0.14c2.56-0.18,5.11-0.36,7.66-0.53
		c5.11-0.42,10.19-0.55,15.29-0.79c30.56,3,60.72,8.89,89.58,18.33c1.39,0.52,2.62,0.66,2.71,0.31c0.1-0.35-0.98-1.07-2.36-1.58
		c-15.96-6.62-32.6-12.01-49.6-16.16c1.23,0.12,2.45,0.23,3.68,0.35l3.6,0.64c10.95,2.63,21.86,5.53,32.6,9.09
		c1.99,0.7,3.89,1.13,5.35,1.3c1.45,0.2,2.48,0.11,2.76-0.34c0.42-0.92-2.26-2.84-6.15-4.19c0.65,0.16,1.3,0.31,1.95,0.47
		c0.65,0.17,1.17,0.14,1.05-0.07c-0.19-0.25-0.97-0.64-1.6-0.81c-2.36-0.54-4.67-1.07-7-1.61c-20.55-7.08-41.91-11.76-63.41-14.74
		c23.27,2.27,46.82,6.77,69.67,14.35c-0.5-0.04-0.62,0.15-0.1,0.47c0.45,0.27,1.41,0.6,1.92,0.64c0.59,0.05,0.57-0.19,0.11-0.46
		c-0.02-0.01-0.03-0.02-0.05-0.03c12.22,4.18,24.27,9.05,35.91,14.89c0.68,0.34,1.34,0.47,1.42,0.29c0.07-0.19-0.49-0.62-1.26-0.98
		c-19.36-9.55-39.68-17-60.37-21.93c-20.67-5-41.57-7.95-62.22-9.01c-2.24-0.22-4.48-0.45-6.74-0.67l0-0.01
		c-0.63-0.86-2.05-1.67-4.03-2.39c14.64,0.98,29.21,2.55,43.76,4.84c12.05,2.27,23.96,5.33,35.77,8.77
		c1.69,0.52,3.21,0.64,3.38,0.21c0.17-0.38-1.14-1.12-2.93-1.69c-2.88-0.94-5.82-1.69-8.74-2.49c2.55,0.12,4.34-0.19,4.72-0.97
		c0.38-0.75-0.64-1.79-2.55-2.89c13.23,2.81,26.34,6.04,39.03,9.89c0.75,0.22,1.2,0.2,1.01-0.07c-0.19-0.26-0.9-0.64-1.65-0.85
		c-18.13-6.51-36.52-11.19-55.05-14.72c-14.31-4.16-28.56-7.64-44.5-9.85c-4.71-0.64-9.35-1.12-13.96-1.5c0-0.31,0.01-0.61,0-0.92
		c13.74,0.85,27.39,2.11,40.98,3.97c31.23,4.26,62.22,11.59,92.21,23.52c3.78,1.64,6.85,2.14,6.79,1.1
		c-0.04-1.04-3.24-3.28-7.05-4.93c-14.27-6.3-28.49-11.06-42.92-14.81c-14.44-3.73-29.09-6.5-44.41-8.49
		c-16.28-2.08-31.07-3.26-46.54-3.9c-0.12-1.28-0.3-2.53-0.5-3.76c0.08-0.22,0.15-0.45,0.22-0.69c2.63-5.83,3.16-12.96,4.6-19.46
		l-1.26,0.32c0.44-1.18,1.24-1.82,1.59-3.13c-0.34,0.34-0.66,0.67-1,1.01l0.02-0.08c0.8-1.36,1.26-3.05,1.45-4.84
		c2.26-3.88,3.73-8.78,4.57-13.98c0.54-0.64,0.95-1.64,1.08-2.83c0.18-0.49,0.32-1.08,0.55-1.43c2.17-3.15,3.71-7.1,4.88-11.51
		c-0.4,0.84-0.82,1.71-1.22,2.56c0.36-1.27,0.73-2.52,0.79-3.95c-0.24,0.15-0.48,0.31-0.72,0.47c1.86-4.35,1.33-10.45-1.09-13.5
		c-2.45-3.06-5.79-1.97-7.54,2.34l-0.29,0.66c-0.35-2.23-1.11-4.19-2.53-5.28c-0.77-0.58-1.75-0.07-2.66,0.05
		c-1.31-0.18-2.45,1.54-2.56,3.82c-0.03,0.62,0.02,1.21,0.13,1.75c-0.52,2.63-0.95,5.31-1.61,7.85c-0.16,0.5-0.05,1.12,0.24,1.39
		c0.29,0.24,0.66,0.03,0.8-0.49c0.67-1.83,1.35-3.6,2.04-5.37c-0.07-0.15-0.14-0.3-0.22-0.45c0.11,0.06,0.2,0.15,0.3,0.24
		c0.06-0.16,0.13-0.32,0.19-0.49c0.05,0.13,0.12,0.25,0.17,0.38c-0.03,0.14-0.07,0.27-0.1,0.4c0.16,0.23,0.31,0.49,0.43,0.79
		c-0.52,3.2-1.12,6.36-2.11,9.31c-0.06,0.17-0.63-0.14-0.86,0.17l-0.32,0.48c0.15-0.53,0.28-1.09,0.38-1.69
		c-0.75-2.31-1.03-3.18-1.23-3.78l0.01-0.01c0,0,0-0.01-0.07-0.18c-0.09-0.28-0.17-0.52-0.29-0.87c0,0-0.02,0-0.05,0
		c-0.03-0.07-0.06-0.15-0.09-0.22l0.15-1.02c0.06-0.38-0.04-0.76-0.21-0.95c0.15-0.13,0.3-0.27,0.45-0.45
		c0.32-1.94,0.33-1.94,0.62-3.94c0,0-0.15,0-0.36,0.06c-0.01-0.08-0.16-0.75-0.07-1.52c-0.02-0.75-0.01-0.75,0.25-2.62
		c0,0,0,0-0.59,0.9c0,0,0,0,0.41-0.79c0,0,0,0-0.67,0.2c0,0,0,0,0.73-0.36c0,0,0,0-0.55-0.34c0,0,0.01-0.01,1.59-1.56
		c-0.03-0.12-0.11-0.41-0.32-1.14c0,0-0.15-0.2-0.33-0.35c-0.19-0.02-0.19-0.02-0.87-0.64c0,0-0.22-0.01-0.46,0.05
		c-0.22,0.19-0.22,0.19-0.83,0.24c0,0-0.24,0.21-0.44,0.53c-0.12,0.3-0.15,0.38-0.53,1.48c-0.1-0.1-0.21-0.19-0.32-0.27
		c-1.13-0.22-1.13-0.21-3.78,1.15c0,0-0.72,0.76-1.26,2c-0.26,1.44-0.26,1.44-0.55,3.09c0,0-0.09,0.36-0.24,0.98
		c-0.44,0.46-0.55,0.56-0.95,0.89l-0.01,0.01c-0.02-0.32-0.09-0.63-0.21-0.89c-0.35-0.75-1-0.86-1.45-0.25
		c-1.73-0.85-3.32-0.38-4.86,0.62c-0.57-0.32-1.18-0.48-1.81-0.45c-1.47-1.23-3.05-1.99-4.73-2.32l-1.47-0.16
		c-1.25,0.33-2.42,1.3-3.35,2.75l-0.36,0.44l-1.21-0.44c-3.27,1.81-5.96,5.42-9.12,7.55l-1.69,1.62c-1.36,1.17-2.41,3.06-2.98,5.29
		l-0.59,2.36l-0.13,1.5c-1.36-2.62-3.51-4.11-5.88-3.77c-3.9,0.61-6.92,5.95-6.87,11.96c-0.55,8-1.26,15.86-2,23.76
		c-0.43,4.53-0.87,9.1-1.31,13.71c-8.16,0.04-16.3,0.2-24.43,0.46c-0.83,0.04-1.52,0.22-1.62,0.41c-0.03,0.2,0.56,0.32,1.34,0.3
		c8.18-0.27,16.4-0.44,24.64-0.48c-0.13,1.36-0.26,2.74-0.4,4.12c-8.61,0.23-17.21,0.59-25.96,1.12c-2.42,0.01-4.85,0.02-7.27,0.27
		c-2.46,0.24-4.91,0.48-7.34,0.72c-19.13,1.38-37.83,2.86-56.35,4.71c21.99-3.49,44.11-6.54,66.14-9.29
		c1.59-0.15,2.62-0.56,2.44-0.91c-0.31-0.34-1.76-0.51-3.35-0.36c-30.83,2.91-61.35,7-91.48,11.93c-6.55-1.44-18.2-1.28-30.15-0.03
		c-0.02-0.14-0.05-0.28-0.07-0.42c-3.57-11.86-7.87-23.01-13.27-33.81c-2.18-4.56-5-8.31-7.76-11.86c-2.85-3.53-5.89-6.79-8.7-10.37
		c-0.15-0.21-0.37-0.17-0.48,0.01c-0.09,0.24-0.01,0.57,0.16,0.75c6.87,11.98,12.75,24.78,16.23,39.09
		c0.39,1.64,0.76,3.26,1.02,4.88c-0.03,0.19-0.03,0.39-0.01,0.61l0.26,4.51l-0.31-1.53c-0.15-1.02-0.78-1.81-1.44-1.76
		c-0.27,0.05-0.5,0.23-0.66,0.51c-1.29-3.63-3.02-7.07-4.65-10.48c-0.29-1.06-0.72-2-1.24-2.78c-0.51-4.24-1.13-8.48-1.74-12.75
		l-0.1-1.07c-0.23-1.39-0.97-2.6-1.89-3.05c-0.27-0.15-0.54-0.21-0.8-0.21c-3.77-9.04-7.82-18.11-13.18-25.82
		c-0.27-0.39-0.61-0.53-0.87-0.35c0.02-0.19-0.04-0.4-0.19-0.57c-0.86-0.84-1.58-1.86-2.29-2.95c-0.2-0.22-0.42-0.3-0.52-0.13
		c-0.14,0.19-0.1,0.51,0.06,0.71c0.73,1.11,1.52,2.17,2.39,3.1c0.1,0.1,0.21,0.15,0.31,0.13c-0.1,0.31-0.05,0.73,0.17,1.09
		c3.85,8.52,8.5,16.6,11.32,25.69c-1.18-2.09-2.24-4.23-3.36-6.38c-1.11-2.16-2.24-4.35-3.4-6.59c-1.34-2.72-2.9-5.23-4.38-7.75
		c-1.5-2.52-2.85-5.08-4.23-7.76c-0.11-0.29-0.36-0.42-0.51-0.33c-0.15,0.1-0.21,0.39-0.06,0.66c4.97,11.16,12.51,20.19,15.74,32.66
		c0.13,0.49,0.25,0.98,0.34,1.47c-2.5-3.44-5.05-6.76-7.53-10.02c-3.9-11-8.57-21.66-14.03-31.72c-0.22-0.51-0.68-0.81-1-0.67
		c-0.33,0.14-0.42,0.69-0.2,1.19c0.9,3.09,1.8,6.19,2.7,9.3c0.91,3.09,1.67,6.24,2.54,9.35l-0.9-1.12l-0.6-1.21
		c-1.33-3.92-2.89-7.76-4.55-11.57c-0.51-1.47-1.7-2.38-2.69-2.07c-0.95,0.35-1.3,1.71-0.86,3.12l-0.42-0.61
		c-0.13-0.21-0.37-0.3-0.5-0.18c-0.13,0.15-0.13,0.48-0.01,0.68c0.53,0.72,1.05,1.43,1.58,2.14c2.48,7.4,4.95,14.78,7.43,22.18
		c-1.76-3.86-3.52-7.72-5.28-11.59c-1.7-3.89-3.4-7.79-5.11-11.69c0.18,0.12,0.38,0.06,0.43-0.19c0.04-0.21-0.09-0.55-0.26-0.67
		c-0.2-0.14-0.39-0.03-0.44,0.19l0,0.02c-1.7-4.24-3.61-8.4-5.2-12.72c-0.09-0.25-0.32-0.4-0.5-0.32c-0.18,0.08-0.23,0.37-0.11,0.65
		c5.58,14.13,11.81,27.83,18.15,41.48l0.7,2.33l-0.01,0.01c-0.68,0.45-1.2,1.15-1.56,2c-1.62-4.98-3.61-9.81-5.56-14.65
		c-1.31-4.13-2.62-8.27-4.04-12.37c-0.21-0.59-0.7-0.97-1.14-0.82c-0.4,0.13-0.53,0.72-0.32,1.35c0.36,1,0.69,2,1.01,3.02
		c-0.79-0.65-1.68-0.93-2.5-0.7c-0.79,0.22-1.35,0.88-1.66,1.77c-2.28-4.09-4.71-8.05-7.39-11.75c-0.16-0.22-0.38-0.28-0.51-0.13
		c-0.13,0.15-0.12,0.43,0.04,0.65c2.78,5.81,5.71,11.51,8.25,17.41c0.37,2.54,0.61,5.08,0.91,7.65c0.3,2.57,0.76,5.12,1.28,7.79
		c1.6,7.74,4.42,14.65,7,21.72c0.27,2.68,0.61,5.33,1.02,7.94c-0.46-0.29-0.96-0.42-1.45-0.33c-0.12,0.02-0.24,0.07-0.36,0.13
		c-0.41-2.28-0.82-4.57-1.24-6.9c-4.15-21.61-13.72-40.42-24.31-58.23c-0.61-1.17-1.75-1.72-2.54-1.21
		c-0.79,0.51-0.95,1.88-0.35,3.04c3.83,8.98,8.31,16.92,12.93,25.94c1.55,3.24,3.07,6.29,4.39,9.4c1.29,3.13,2.62,6.27,3.87,9.67
		c2.87,7.99,4.39,15.74,5.75,23.92c-0.01,0.83,0.03,1.65,0.23,2.45c0.19,0.81,0.39,1.62,0.58,2.43c0.27,2.02,0.46,4.03,0.63,6.04
		c-0.75,0.09-1.51,0.18-2.26,0.27c-0.78-3.05-1.64-6.08-2.73-9.03c-0.14-0.51-0.55-0.8-0.89-0.69c-0.34,0.15-0.51,0.67-0.37,1.18
		c0.77,2.9,1.38,5.84,1.95,8.8c-10.53,1.37-21.51,3.32-32.03,4.67c0.41,0.33,0.85,0.68,1.26,1.01c-2.9,0.2-4.69-0.23-7.84,0.11
		c0.92,0.14,1.8,0.28,2.72,0.42l-0.19,0.02c-3.44-0.06-7.51,0.37-11.68,1.09c-9.79-0.17-21.53,0.82-33.72,2.47
		c-1.65-0.2-4.05-0.12-6.8,0.31c-1.19,0.06-2.56,0.2-3.44,0.14c-7.87-0.61-17.29-0.31-27.6,0.49c2.02,0.02,4.12,0.03,6.14,0.05
		c-2.98,0.22-5.93,0.41-9.19,0.98c0.39,0.16,0.85,0.34,1.25,0.5c-7.46,0.09-16.64,1.7-23.6,3.95
		C276.08,195.01,277.41,197.9,278.73,200.76z M612.62,414.36c-0.05,0.29-0.09,0.57-0.14,0.86c-0.66,0.06-1.31,0.11-1.97,0.17
		c-0.02-0.36-0.05-0.73-0.07-1.09c0.53-1.65,0.93-3.32,1.29-4.98c0.35,0.29,0.8,0.49,1.3,0.56c0.13,0.02,0.25,0.01,0.38,0.01
		C613.14,411.37,612.88,412.85,612.62,414.36z M358.16,465.94c-0.13-0.38-0.28-0.75-0.42-1.13c1.64-0.1,3.27-0.21,4.91-0.32
		c5.09-0.37,10.17-0.73,15.25-1.1c19.17-1.42,38.25-2.92,57.21-4.47c4.14-0.23,8.28-0.46,12.45-0.7l0.01,0.01
		c1.35,0.71,4.13,1.26,7.88,1.63c-26.87,1.77-53.59,3.53-80.41,5.29L358.16,465.94z M348.64,332.94c0.76,0.03,1.34,0.11,2.31,0.25
		C350.95,333.19,350.94,333.19,348.64,332.94z M357.5,464.16c-0.13-0.34-0.25-0.68-0.37-1.02c1.56-0.06,3.12-0.11,4.69-0.2
		l15.67-0.84l29.92-1.65c-10.72,0.82-21.48,1.64-32.27,2.46c-5.85,0.41-11.71,0.82-17.57,1.23
		C357.54,464.16,357.52,464.16,357.5,464.16z M346.07,446.33c0.4,1.23,0.8,2.46,1.23,3.68c-1.26-0.51-2.4-1.27-3.34-2.23
		c-0.02-1.35-0.07-2.72-0.23-4.11c-0.03-0.25-0.07-0.5-0.1-0.75C344.25,444.19,345.05,445.37,346.07,446.33z M323.15,334.2
		c-0.1,0.03-0.2,0.07-0.31,0.11l0,0C322.93,334.27,323.06,334.23,323.15,334.2C323.15,334.2,323.15,334.2,323.15,334.2z
		 M344.23,457.51c2.02,0.65,4.12,0.84,6.24,0.86c0.05,0.11,0.09,0.23,0.14,0.34c-0.85,0.07-1.7,0.15-2.56,0.16
		c-1.16-0.04-2.34-0.16-3.48-0.4C344.45,458.14,344.34,457.82,344.23,457.51z M346.56,452.96c-0.95-0.3-1.83-0.75-2.64-1.31
		c0.03-0.82,0.04-1.65,0.05-2.47c0.77,0.67,1.59,1.26,2.53,1.68c0.41,0.17,0.83,0.31,1.26,0.43c0.26,0.71,0.53,1.41,0.79,2.12
		C347.88,453.29,347.21,453.16,346.56,452.96z M339,426.07c-0.01-0.47-0.07-0.93-0.09-1.4c0.31,1.35,0.61,2.58,0.92,3.76
		C339.55,427.65,339.28,426.86,339,426.07z M333.91,458.79l-0.81-3.54c0.46,0.76,0.97,1.5,1.53,2.19c0.37,1.03,0.73,2.06,1.08,3.09
		C335.06,460,334.46,459.41,333.91,458.79z M335.79,458.71c0.36,0.36,0.74,0.69,1.14,1.01c0.13,0.66,0.27,1.31,0.4,1.96
		c-0.24-0.15-0.47-0.33-0.71-0.5C336.35,460.36,336.07,459.53,335.79,458.71z M338.95,461.82c0.67,0.56,1.5,0.83,2.34,0.69
		c0.22-0.04,0.42-0.1,0.61-0.19c0.69,0.21,1.38,0.37,2.09,0.51c0.21,0.43,0.42,0.86,0.63,1.29c-1.71-0.22-3.4-0.6-5.02-1.26
		c-0.17-0.07-0.32-0.17-0.49-0.24L338.95,461.82z M346.21,463.14c2.08,0.21,4.17,0.21,6.29,0.17c0.15,0.35,0.3,0.7,0.45,1.06
		c-1.52,0.05-3.03,0.07-4.52,0.04c-0.6-0.01-1.2-0.05-1.8-0.09C346.49,463.93,346.35,463.54,346.21,463.14z M351.84,450.43
		c-0.24-0.58-0.46-1.13-0.69-1.69c0.51,0.08,1.03,0.12,1.54,0.14c2.1,0.1,4.18-0.16,6.24-0.33l6.12-0.55l7.11-0.6l16.96-1.35
		c22.62-1.79,45.3-3.52,68.48-4.91c-22.62,2.32-45.79,4.31-70.15,6.43c-3.68,0.33-7.31,0.65-10.93,0.97
		c-1.81,0.17-3.6,0.33-5.4,0.49l-2.67,0.25l-2.02,0.21c-2.74,0.29-5.46,0.58-8.18,0.87c-2.06,0.2-4.15,0.49-6.25,0.46
		C351.96,450.7,351.9,450.57,351.84,450.43z M342.22,433.05c-0.39-1.51-0.81-2.26-1.05-1.89c-0.04-0.62-0.14-1.43-0.33-2.14
		c-0.26-0.95-0.54-1.92-0.81-2.93c-0.14-0.56-0.26-0.91-0.41-1.67c-0.14-0.69-0.29-1.39-0.44-2.09c-0.18-0.86-0.35-1.74-0.52-2.62
		c0.42,0.21,0.88,0.31,1.36,0.24c0.12-0.02,0.24-0.06,0.36-0.1c0.23,1.84,0.46,3.68,0.7,5.56c0.59,4.27,1.45,8.42,2.49,12.49
		C343.06,436.31,342.65,434.67,342.22,433.05z M340.72,350.16l-1.03,1.03l0.02-0.14l0.4-1.32l-0.29,0.25
		c0.18-1.69,0.37-3.38,0.64-5.05c0.59-1.6,1.04-3.27,1.34-4.97l0.2-1.28l0.08-0.64l0.07-0.43c0.02,0,0.04,0,0.06,0
		c0.39,0.43,0.83,1.17,1.31,1.81c-0.95,3.33-2.27,6.56-2.51,10.05L340.72,350.16z M333.37,337.54c-0.09,0.18-0.16,0.38-0.23,0.61
		c-0.1,0.41-0.18,0.86-0.26,1.3c-0.15,0.88-0.31,1.76-0.46,2.63c-0.38,1.9-0.75,3.76-1.05,5.63l-0.15-0.65
		c-0.07-0.21-0.02-0.63-0.53-0.39c0.23-1.75,0.37-3.52,0.43-5.33c0.02-0.67-0.06-1.34-0.25-1.97c0.81-0.62,1.59-1.34,2.28-1.85
		C333.22,337.53,333.3,337.54,333.37,337.54z M334.41,461.18c-0.08-0.39-0.16-0.77-0.24-1.16c0.59,0.58,1.22,1.12,1.9,1.61
		c0.13,0.38,0.25,0.75,0.37,1.13C335.72,462.28,335.04,461.76,334.41,461.18z M336.98,462.25c0.17,0.11,0.35,0.2,0.52,0.3
		c0.07,0.33,0.13,0.67,0.2,1c-0.07-0.04-0.15-0.06-0.21-0.1c-0.05-0.03-0.1-0.07-0.15-0.1C337.22,462.98,337.1,462.61,336.98,462.25
		z M339.44,464.34c0-0.02,0-0.04,0-0.06l-0.17-0.87c1.82,0.75,3.74,1.19,5.68,1.41c0.15,0.31,0.3,0.63,0.45,0.93
		C343.37,465.52,341.36,465.1,339.44,464.34z M347.2,465.92c-0.11-0.31-0.22-0.63-0.34-0.94c2.09,0.11,4.22,0.11,6.36,0.04
		c0.15,0.35,0.3,0.7,0.45,1.04C351.48,466.09,349.32,466.07,347.2,465.92z M428.95,448.69c-14.44,0.92-28.87,1.84-43.28,2.75
		c-6.96,0.46-13.91,0.92-20.85,1.39l-9.12,0.64c-0.83,0.06-1.66,0.11-2.5,0.14c-0.26-0.61-0.52-1.22-0.79-1.84
		c2.44-0.05,4.85-0.38,7.23-0.59c2.84-0.29,5.68-0.59,8.52-0.88c7.14-0.67,14.27-1.34,21.42-2.01c28.73-2.68,57.72-5.26,89.14-6.85
		c2.47-0.11,4.95-0.22,7.38-0.33C466.8,443.67,447.85,446.18,428.95,448.69z M480.35,435.51l-5.13,0.07
		c-6.79,0.21-13.31,0.94-16.53,1.86c-1.04,0.28-1.65,0.55-1.95,0.81c-23.5,1.86-47.19,3.74-70.55,5.59
		c-5.84,0.49-11.65,0.98-17.44,1.47c-3.88,0.42-7.74,0.84-11.58,1.25c-1.94,0.2-3.94,0.33-5.87-0.08c-0.41-0.08-0.81-0.21-1.19-0.35
		c-1.48-3.77-2.78-7.42-4.1-11.46c-2.07-6.51-2.9-12.78-3.84-19.36c0.05-0.67,0.06-1.33-0.09-1.98c-0.15-0.65-0.29-1.31-0.44-1.96
		c-0.6-5.17-0.66-10.31-0.6-15.41c1.24,5.96,2.69,11.87,4.78,17.57c0.11,0.42,0.5,0.65,0.84,0.55c0.35-0.13,0.55-0.54,0.43-0.96
		c-1.98-8.06-3.25-16.28-4.5-24.5c2.95-2.58,4.33-7.48,4.11-11.72c-0.07-1.57-0.55-2.99-1.19-4.41c-0.07,0.69-0.15,1.37-0.22,2.06
		c-0.29-2.01-1.21-3.67-2.19-5.31c0.03-0.15,0.06-0.3,0.08-0.46c1.46-4.08,0.87-8.67,1.4-12.98l-1.2,0.35
		c0.26-0.81,0.99-1.3,1.17-2.18l-0.87,0.76l0.01-0.05c0.62-0.96,0.87-2.08,0.85-3.24c1.72-2.61,2.68-5.71,3.14-8.94
		c0.02-0.11,0.03-0.24,0.04-0.35c0.48-0.44,0.8-1.09,0.84-1.85c0.15-0.32,0.24-0.7,0.45-0.93c0.48-0.5,0.92-1.15,1.34-1.6
		c0.21-0.2,0.41-0.31,0.6-0.38c0.05-0.03,0.1-0.02,0.15-0.03l0.07,0l0.04,0l0.01,0c0,0,0,0-0.02,0l-0.25,0l-1.04-0.02
		c0.04,0,0.08,0,0.12,0c0.66,0.01,1.18,0.02,1.32,0.02l0.01,0l0.02,0.01l0.14,0.07c0.71,0.14,1.32,0.03,1.82,0.14
		c-0.37-0.05-0.75-0.09-1.12-0.11c0.22,0.01,0.44,0.02,0.66,0.03l-0.69-0.11c1.37,0.2,1.13,0.17,0.1-0.14
		c0.39-0.01,1.93-0.04,4.37-0.09c2.14,0.28,2.61,0.36,4.2,0.63c0,0,0.01,0,0.04,0c-1.43,0.13-2.84,0.3-4,0.51
		c-3.36,0.61-3.79,1.28-0.91,1.52c-3.62,2.01-1.27,3.43,3.57,4.6c-1.4,0.68-2.02,1.34-1.78,1.95c-5.43,1.88-8.77,3.71-10.1,5.49
		l-0.56,1.52c1.69,1.13,6.42,1.96,13.38,2.36l2.11,0.2l-1.89,1.35c9.07,2.6,26.74,3.95,37.76,6.26l8.24,1.05
		c4.72,0.7,11.58,1.03,19.64,0.99c0.01,0.05,0.03,0.11,0.04,0.16c1.75,6.49,3.86,12.34,4.43,18.81c2.21,6.04,4.9,11.81,8.01,17.61
		c2.6,4.88,7.27,8.38,10.95,12.57c0.1,0.12,0.32,0.12,0.47,0.03c0.15-0.12,0.15-0.3,0.03-0.41c-3.49-6.86-6.61-13.81-7.87-21.39
		c-0.14-0.87-0.23-1.73-0.28-2.58c0.05-0.1,0.08-0.21,0.08-0.32c0.12-0.79,0.22-1.58,0.3-2.37l0.11,0.81
		c0.02,0.54,0.55,0.95,1.21,0.93c0.27-0.02,0.52-0.12,0.72-0.26c0.86,1.92,1.93,3.78,3.05,5.63c0.12,0.57,0.4,1.08,0.79,1.51
		c-0.28,2.28-0.43,4.55-0.67,6.84l-0.14,0.57c-0.07,0.75,0.39,1.43,1.18,1.71c0.23,0.09,0.48,0.14,0.73,0.15
		c1.8,5,3.27,10.11,6.23,14.72c0.15,0.23,0.44,0.34,0.74,0.27c-0.06,0.1-0.07,0.22,0.01,0.32c0.56,0.53,0.93,1.15,1.27,1.81
		c0.12,0.14,0.3,0.2,0.45,0.12c0.19-0.09,0.25-0.26,0.16-0.39c-0.36-0.67-0.77-1.32-1.32-1.9c-0.06-0.06-0.16-0.1-0.26-0.1
		c0.18-0.16,0.24-0.38,0.14-0.59c-1.3-4.92-3.63-9.59-4.5-14.59c1.38,2.36,2.41,4.82,3.53,7.39c1.34,3.11,3.1,5.92,3.99,9.1
		c0.02,0.17,0.21,0.26,0.39,0.23c0.18-0.04,0.32-0.19,0.26-0.35c-1.49-6.54-6.4-11.95-7.01-18.78c-0.02-0.27-0.03-0.54-0.02-0.81
		c1.73,1.95,3.47,3.9,5.19,5.83c1.21,6.23,2.74,12.4,4.72,18.46c0.04,0.3,0.36,0.52,0.72,0.48c0.36-0.04,0.62-0.32,0.59-0.62
		c0.21-3.56,0.39-7.13,0.47-10.7l0.55,0.7l0.25,0.72c0.25,2.27,0.56,4.54,0.95,6.8c0.04,0.86,0.89,1.49,1.93,1.45
		c1-0.08,1.76-0.78,1.77-1.61l0.22,0.38c0.06,0.13,0.26,0.21,0.42,0.16c0.17-0.07,0.27-0.25,0.22-0.38l-0.85-1.36
		c0-4.37-0.51-8.7-1.09-13.02c1.6,4.56,2.83,9.23,3.57,13.96c-0.13-0.09-0.35-0.08-0.47,0.05c-0.1,0.11-0.08,0.31,0.05,0.4
		c0.15,0.1,0.37,0.06,0.47-0.05l0.01-0.01c0.23,1.52,0.39,3.05,0.52,4.59c-36.06,4.16-66.39,9.18-100.6,13.67
		c-1.19,0.15-1.3,0.37-0.65,0.49c0.96,0.11,2.64,0.04,3.71-0.12c64.36-6.11,129.25-11.86,198.23-16c0.45,0.85,0.88,1.71,1.27,2.58
		c0.05,0.15,0.26,0.2,0.43,0.17c0.18-0.07,0.23-0.24,0.16-0.38c-0.14-0.83-0.28-1.65-0.41-2.47c0.5-0.03,1-0.06,1.5-0.09
		c0.33-0.02,0.65-0.03,0.98-0.05c0.06,1.29,0.14,2.58,0.26,3.88c-7.35,0.74-14.67,1.49-21.97,2.25c-5.3,0.34-10.17,0.82-14.36,1.38
		C521.7,434.25,501.05,434.88,480.35,435.51z M363.42,354.86l6.59-4.17l-6.01,4.29L363.42,354.86z M397.95,335.7
		c0,0,1.39,0.25,3.31,0.59c-0.03,0-0.03,0-0.04,0C400.34,336.13,399.29,335.94,397.95,335.7z M441.18,312.53
		c3.09-0.08,6.17-0.15,9.23-0.21l-0.02,0.01l-0.06,0.03l-0.03,0.02l-0.02,0.01c-1.24,1.14-0.35,0.32-0.62,0.57l0,0l-0.04-0.01
		l-0.14-0.05l-0.58-0.19c-0.07,0-0.05-0.07-0.19-0.01l-0.45,0.27l-0.89,0.59c-0.17,0.11-0.34,0.24-0.52,0.37
		c-6.6,0.26-13.27,0.57-19.98,0.94C431.93,314.12,436.72,313.33,441.18,312.53z M495.35,321.09c-1.43,0.14-2.87,0.29-4.32,0.43
		c-1.4,0.16-4.17,0.3-2.63,0.7c-8.69,0.41-17.52,0.89-26.46,1.42c0.02-0.2,0.04-0.4,0.04-0.61c0.11-0.23,0.26-0.45,0.4-0.67
		C473.48,321.93,484.44,321.5,495.35,321.09z M474.44,428.23c-0.62-7.48-2.54-14.78-5.25-21.86l-0.18-1.35l0.01,0
		c0.76-0.21,1.42-0.57,1.94-1.02c0.6,2.89,1.25,5.77,1.97,8.65l0.46,7.32c0.02,0.35,0.37,0.62,0.83,0.58
		c0.42-0.03,0.72-0.35,0.72-0.72l-0.1-1.8c0.58,0.45,1.36,0.7,2.21,0.66c0.82-0.04,1.54-0.35,2.08-0.82
		c1.01,2.57,2.09,5.1,3.46,7.55c0.08,0.14,0.26,0.21,0.44,0.14c0.17-0.07,0.26-0.23,0.18-0.37c-0.81-3.66-1.87-7.25-2.76-10.87
		c0.75-2.98,1.58-5.91,1.69-9.07c0.14-4.61-1.3-8.79-2.73-12.97c0.13-1.56,0.19-3.11,0.18-4.64c0.41,0.18,0.88,0.27,1.38,0.22
		c0.13-0.01,0.25-0.04,0.37-0.07c0.06,1.34,0.13,2.69,0.19,4.07c0.64,12.18,4.79,23.33,8.58,34.68
		C484.76,427.07,479.54,427.64,474.44,428.23z M456.31,322.59c0.87,0.39,1.77,0.8,2.71,1.22h0
		C458.24,323.46,457.32,323.04,456.31,322.59L456.31,322.59z M437.08,323.46c-0.31,0.4-0.57,0.87-0.83,1.33
		c-3.69-0.43-7.68-0.81-12.44-1.03c4.26-0.07,8.76-0.22,13.34-0.39C437.12,323.41,437.08,323.46,437.08,323.46z M574.28,406.43
		c0.05-0.85,0.15-1.68,0.29-2.5c0.07-0.08,0.12-0.18,0.15-0.28c0.28-0.72,0.56-1.45,0.8-2.19l-0.06,0.79
		c-0.1,0.51,0.33,1.02,0.98,1.14c0.27,0.04,0.53-0.01,0.76-0.1c0.42,2.02,1.08,4.04,1.74,6.08c-0.02,0.58,0.13,1.13,0.4,1.64
		c-0.83,2.12-1.49,4.27-2.35,6.38l-0.29,0.51c-0.06,0.15-0.08,0.31-0.09,0.47c-0.62,0.06-1.23,0.11-1.85,0.17
		C574.28,414.49,574.03,410.48,574.28,406.43z M580.89,429.77c-0.04-1.26-0.09-2.52-0.11-3.78c0.37-0.02,0.73-0.04,1.1-0.06
		c0.11,0.95,0.22,1.9,0.33,2.88c0.02,0.27,0.07,0.54,0.1,0.81C581.83,429.68,581.36,429.72,580.89,429.77z M583.17,429.54
		c-0.18-1.22-0.35-2.43-0.5-3.65c1.18-0.06,2.37-0.13,3.55-0.19c-0.11,1.19-0.23,2.38-0.34,3.58
		C584.98,429.37,584.07,429.45,583.17,429.54z M596.83,428.22c-0.03-0.6-0.04-1.21-0.08-1.81l0.2-1.28
		c0.71-0.04,1.43-0.08,2.15-0.11c-0.08,1-0.16,2.01-0.23,3.01C598.18,428.1,597.5,428.16,596.83,428.22z M610.01,426.92
		c0.12,0.02,0.22,0.04,0.35,0.06c-0.12,0.01-0.24,0.02-0.37,0.03C610,426.98,610.01,426.95,610.01,426.92z M610.26,425.6
		c0.05-0.3,0.09-0.6,0.13-0.89c0.28-0.01,0.55-0.02,0.83-0.02c-0.02,0.25-0.04,0.49-0.06,0.74
		C610.84,425.48,610.53,425.54,610.26,425.6z M561.85,368.35c0.33,3.29,0.7,6.61,1.25,10.05c1,6.12,2.16,11.82,1.54,17.84
		c1.11,5.93,2.4,11.77,4.02,17.92c0.41,1.64,1.05,3.21,1.8,4.77c-24.78,2.24-49.47,4.56-74.27,6.98c-0.81,0.08-1.59,0.16-2.39,0.24
		c-0.68-5.32-2.59-10.2-4.54-15.53c-1.49-4.09-2.64-7.7-3.79-11.84c-1.33-4.85-1.54-9.45-1.95-14.28c0.1-0.49,0.16-0.97,0.06-1.45
		l-0.28-1.44c-0.13-2.33-0.07-4.65,0.06-6.96c0.43-0.02,0.86-0.05,1.29-0.07c0.72,2.92,1.55,5.83,2.65,8.68
		c0.08,0.31,0.45,0.48,0.8,0.42c0.35-0.09,0.59-0.39,0.51-0.7c-0.62-2.83-1.13-5.69-1.6-8.54c3.44-0.22,6.94-0.48,10.47-0.79
		C518.67,372.08,540.11,370.59,561.85,368.35z M508.7,310.55c1.55-0.01,3.08-0.01,4.61-0.02c2.21,0.19,4.43,0.39,6.66,0.58
		c-0.31,0.02-0.63,0.03-0.94,0.05c-2.91,0.06-5.82,0.13-8.75,0.19c0.54,0.06,1.08,0.12,1.63,0.18c-11.31,0.53-22.58,1.06-33.8,1.58
		c-5.5,0.07-11.14,0.18-16.87,0.33c-0.1-0.03-0.24-0.07-0.39-0.11c-0.27-0.06-0.54-0.13-0.54-0.13s0.23-0.33,0.45-0.65
		c0.13-0.17,0.26-0.34,0.36-0.46C476.7,311.79,492.25,311.45,508.7,310.55z M319.33,325.8c0.37,0.33,0.85,0.66,1.09,0.99
		c-0.68,1.36,7.04,1.95,17.18,1.32c2.76-0.17,5.4-0.42,7.81-0.71c11.72-0.35,23.69-0.82,35.1-1.04c2.26-0.02,4.99-0.34,6.16-0.72
		c0.99-0.37-0.01-0.66-2.34-0.62c-8.25-0.03-16.25-0.1-24.21-0.19c-0.64,0.12-1.27,0.24-1.92,0.36c0.26-0.13,0.6-0.25,0.98-0.37
		c-0.73-0.01-1.46-0.02-2.2-0.03c0.57-0.1,1.14-0.2,1.73-0.3c0.58-0.01,1.15-0.02,1.72-0.03c1-0.24,2.2-0.47,3.52-0.7
		c14.22-0.56,28.3-1.04,41.57-1.12c0.78,0-0.48,0.67,0.96,0.79c0.72,0.05,1.46,0.09,2.23,0.14c-2.38,0.04-4.9,0.11-7.6,0.22
		c-10.1,1.55-13.92,2.13-16.55,2.53c-0.01,0-0.05,0-0.05,0s-0.02,0-0.79,0.13c-1.22,0.19-2.28,0.35-3.83,0.58
		c0,0,0.01,0.02,0.02,0.05c-0.3,0.05-0.63,0.11-0.97,0.16c-1.52,0.07-3.04,0.14-4.57,0.21c-1.72,0.07-3.37,0.29-4.19,0.53
		c-0.61-0.1-1.25-0.2-2.07-0.29c-8.7,0.35-8.7,0.35-17.63,0.71c0,0,0.03,0.15,0.33,0.33c-0.35,0.04-3.31,0.41-6.78,0.58
		c-3.34,0.26-3.34,0.26-11.68,0.61c0,0,0,0,4.07,0.3c0,0,0,0-3.55-0.15c0,0,0,0,0.97,0.6c0,0,0,0-1.67-0.61c0,0-0.02,0.01-1.28,0.57
		c-0.02-0.01-0.04-0.01-0.06-0.02c-0.84-0.16-0.98-0.18-1.77-0.15c-0.51-0.08-1.18-0.18-2.06-0.31c-0.12-0.16-0.53-0.27-1.12-0.28
		c-0.22-0.12-0.48-0.22-0.75-0.32c1.1,0.05,2.4,0.1,3.71,0.16c3.3,0.14,4.97-0.27,4.74-0.68c-2.35-0.07-4.61-0.16-7.93,0.14
		c-0.42,0.1-0.73,0.18-0.96,0.24c-0.97-0.29-2.15-0.49-3.54-0.58c-0.34-0.24-0.72-0.39-1.39-0.56c-0.15-0.15-0.32-0.28-0.51-0.42
		C319.24,327.17,319.28,326.48,319.33,325.8z M310.08,326.24l2.89,1.7l-3.11-1.68L310.08,326.24z M301.36,424.63
		c0.04-0.15,0.05-0.3,0.04-0.47l0.01-3.46l0.21,1.17c0.09,0.78,0.67,1.38,1.33,1.34c0.27-0.04,0.51-0.19,0.68-0.4
		c0.06,0.16,0.14,0.31,0.21,0.47c0.07,0.45,0.13,0.89,0.2,1.34l0.83,5.03l1.34,7.54c0.57,3.83,1.51,7.59,2.45,11.35
		c-2.81-6.4-5.17-13.06-6.68-20.17C301.74,427.11,301.53,425.87,301.36,424.63z M322.64,468.24c-0.41-0.48-0.77-1-1.15-1.5
		c0.05-0.2,0.06-0.42-0.05-0.63c-2.38-6.85-5.69-13.32-7.44-20.44c1.78,3.3,3.32,6.72,4.94,10.3c1.98,4.32,4.34,8.14,5.96,12.53
		c0.06,0.23,0.27,0.35,0.44,0.29c0.17-0.07,0.27-0.3,0.18-0.52c-2.96-9.04-9.02-16.35-10.78-26.11c-0.07-0.38-0.12-0.77-0.17-1.15
		c1.36,1.78,2.71,3.52,4.07,5.24l0.68,2.97c0.79,2.71,1.7,5.33,2.86,7.8c0.68,1.49,1.48,2.94,2.38,4.34
		c1.42,4.23,2.97,8.4,4.65,12.49C326.76,472.33,324.5,470.42,322.64,468.24z M334.84,476.57c-1.4-0.48-2.77-1.1-4.1-1.82
		c0.05-0.16,0.07-0.34,0.03-0.52c-0.29-2.25-0.58-4.5-0.87-6.76c0.66,0.55,1.35,1.05,2.08,1.52c0.15,0.51,0.28,1.02,0.43,1.53
		c0.24,1.19,1.23,1.98,2.26,1.81c0.64-0.14,1.08-0.65,1.28-1.29c1.07,0.43,2.17,0.78,3.28,1.07c0.53,1.97,1.02,3.95,1.47,5.94
		C338.7,477.7,336.75,477.24,334.84,476.57z M595.61,464.53c-12.31,0.57-24.68,1.14-37.26,1.73c-58.3,2.73-114.78,6.36-170.6,10.36
		c-7.52,0.53-15.02,1.07-22.52,1.6c-5.27,0.3-10.66,0.86-15.82,0.7c-2.76-0.08-5.41-0.3-7.99-0.72c-0.45-1.98-0.92-3.94-1.44-5.89
		c2.73,0.64,5.56,0.92,8.43,1.05c2.76,0.25,5.64,0.3,8.56,0.27c0.01,0.02,0.02,0.04,0.02,0.05c0.36,1,1.37,1.54,2.23,1.19
		c0.53-0.21,0.86-0.72,0.98-1.3c0.57-0.01,1.15-0.03,1.72-0.04l6.91-0.16l5.24-0.08c6.65-0.1,13.31-0.2,20.03-0.3
		c13.46-0.24,27.18-0.56,41.57-1.1c41.93-1.59,81.22-4.64,120.46-7.69c14.15-0.45,28.24-0.97,42.22-1.55
		c-1.95,0.49-3.09,1.01-3.07,1.52C595.29,464.3,595.45,464.41,595.61,464.53z M617.94,424.73c-1.19,0.05-2.33,0.14-3.4,0.24
		c0-0.12,0-0.25,0-0.37c3.62-0.1,7.23-0.19,10.84-0.29C622.91,424.45,620.43,424.59,617.94,424.73z M662.07,350.03
		c4.68-1.46,9.38-2.78,14.06-4.46l7.02-2.42c2.34-0.84,4.66-1.77,6.99-2.66l0.83-0.32l-0.03,0.01c-0.03,0-0.07-0.01-0.03-0.03
		l0.09-0.08c0.06-0.06,0.13-0.12,0.21-0.17c0.15-0.11,0.35-0.2,0.54-0.18c0.18,0.02,0.37,0.08,0.58,0.15l0.16,0.07l0.08,0.04
		c0.02,0.01,0.01-0.01,0.06,0.04l0.27,0.28c0.95,0.97,1.99,2.02,2.89,3.11c6.3,7.15,10.43,15.53,12.09,23.43
		c0.45,1.98,0.66,3.94,0.83,5.88c0.07,0.95,0.02,1.82,0.09,2.73l-0.16,2.78c-0.37,3.74-1.35,7.58-2.86,11.16
		c-3.02,7.19-8.12,13.16-13.58,16.04c-2.58,1.5-6.36,2.8-11.27,3.73c-4.93,0.94-10.99,1.47-18.02,1.84
		c-14.15,1.17-28.17,2.34-42.11,3.5c-0.29,0.02-0.57,0.05-0.85,0.07c0.53-2.21,1.06-4.4,1.59-6.62c0.03-0.19-0.08-0.35-0.26-0.4
		c-0.19-0.03-0.37,0.08-0.42,0.25c-0.55,2.29-1.09,4.56-1.63,6.84c-1.35,0.12-2.7,0.24-4.05,0.35c0.34-2.72,0.75-5.42,1.12-8.2
		c0.21-0.51,0.36-1.04,0.37-1.58l0.02-1.65c0.62-4.23,1.54-8.35,2.48-12.48c0.22,5.04,0.41,10.08,1.09,15.16
		c0.01,0.36,0.33,0.64,0.69,0.64c0.36-0.02,0.66-0.31,0.64-0.67c0.04-7,0.29-13.96,0.27-20.91c3.27-1.73,5.31-5.74,5.49-9.38
		c0.07-1.34-0.27-2.6-0.78-3.85c-0.14,0.59-0.27,1.15-0.41,1.74c-0.1-1.73-0.89-3.2-1.75-4.64c0.04-0.13,0.08-0.25,0.1-0.39
		c1.55-3.04,1.39-6.54,1.77-9.9C638.16,356.46,650.1,353.59,662.07,350.03z M692.75,124.84l0.62-1.94l-0.33,0.34
		c0.47-2.53,0.95-5.06,1.42-7.58c1.23-3.62,2.11-7.56,2.57-11.59c0.34,1.18,0.72,2.31,1.14,3.37c-1.33,5.08-3.02,9.89-3.87,15.19
		l-0.4,1.02l-1.2,1.41L692.75,124.84z M677.77,197c0.3-0.84,0.61-1.68,0.91-2.52c0.1,0.01,0.2,0.02,0.31,0.03
		c-0.17,0.83-0.35,1.66-0.53,2.48C678.23,197,678,197,677.77,197z M692.5,161.2c-0.04,0-0.08-0.01-0.12-0.01
		c0.03-0.3,0.04-0.6,0.06-0.89c0.1,0.01,0.21,0.01,0.31,0.02C692.66,160.61,692.58,160.9,692.5,161.2z M685.12,85.93
		c-0.09,0.17-0.21,0.29-0.42,0.5C684.7,86.43,684.7,86.43,685.12,85.93z M685.62,109.3c0.1-0.99,0.09-1.98-0.03-2.93
		c1.03-1,2.02-2.07,2.85-3.47c-0.68,2.38-1.07,5.11-1.61,7.61c-0.6,2.77-1.2,5.49-1.78,8.19l-0.05-0.97
		c-0.04-0.32,0.07-0.93-0.47-0.63C684.99,114.55,685.35,111.96,685.62,109.3z M677.76,97.26c0.23-0.18,0.5-0.4,0.85-0.68
		C678.61,96.59,678.25,96.88,677.76,97.26L677.76,97.26z M662.16,88.4l3.67,1.54l-3.82-1.42L662.16,88.4z M618.73,159.69
		c-0.01-0.13-0.09-0.25-0.18-0.37c3.34-0.14,6.7-0.2,10.08-0.25c-0.06,0.63-0.12,1.25-0.18,1.89c-3.81-0.02-7.61,0.04-11.39,0.16
		C618.13,160.68,618.75,160.19,618.73,159.69z M607.42,198.54c2.58-0.13,4.77-0.76,4.92-1.42c-0.01-0.28-0.39-0.51-1-0.68
		c3.75-0.46,7.46-0.93,11.17-1.4c-0.2,1.17-0.41,2.31-0.62,3.47c-1.88,0.08-3.8,0.16-5.66,0.23c-0.45-0.04-0.95-0.06-1.49-0.05
		c-3.72-0.05-7.48,0.08-11.22,0.12C604.82,198.73,606.12,198.63,607.42,198.54z M423.16,244.25l-0.58,1.58l0.32-0.28
		c-0.42,2.06-0.86,4.11-1.34,6.14c-1.18,2.99-2.14,5.96-2.79,8.5c-0.28-0.81-0.62-1.6-1.02-2.38c0.65-1.52,1.35-3.14,1.97-4.93
		c0.79-2.2,1.5-4.45,1.93-6.83l0.38-0.82l1.16-1.15L423.16,244.25z M428.18,273.32c0.12-0.05,0.26-0.06,0.5-0.09
		C428.68,273.23,428.68,273.23,428.18,273.32z M430.35,257.3c-0.13,0.8-0.15,1.6-0.07,2.35c-1.06,0.71-2.11,1.42-3.01,2.34
		c0.83-1.63,1.31-3.72,1.91-5.75c0.65-2.28,1.23-4.58,1.79-6.86l0.06,0.83c0.04,0.27-0.07,0.79,0.47,0.55
		C431.03,252.89,430.69,255.14,430.35,257.3z M437.28,267.8c-0.25,0.1-0.54,0.23-0.92,0.38
		C436.36,268.18,436.75,268.02,437.28,267.8L437.28,267.8z M450.27,279.82c0,0-0.73-0.7-1.46-1.4c-0.74-0.67-1.48-1.34-1.48-1.34
		s0.79,0.65,1.58,1.31c0.78,0.68,1.56,1.36,1.56,1.36L450.27,279.82z M279.62,208.38l0.09,0.19c-0.26,0.03-0.52,0.05-0.77,0.08
		c-0.01-0.02-0.02-0.04-0.03-0.06C279.16,208.53,279.39,208.46,279.62,208.38z M294.98,241.67l0.16,0.35
		c-0.2,0.14-0.41,0.28-0.61,0.43c-0.04-0.09-0.08-0.18-0.13-0.27C294.59,242,294.79,241.84,294.98,241.67z M296.91,240.14
		c-0.08-0.16-0.15-0.33-0.23-0.5c0.22,0.05,0.45,0.11,0.68,0.16C297.21,239.91,297.06,240.03,296.91,240.14z M295.08,231.16
		L295.08,231.16l0.04-0.06L295.08,231.16z M287.12,218.92c-0.11-0.24-0.22-0.47-0.33-0.71c0.61,0.12,0.93,0.2,1.6,0.37
		c0,0,0,0,0.02,0C287.96,218.68,287.53,218.8,287.12,218.92z M310.03,216.09c-0.5-0.13-1.09-0.3-1.86-0.5c0,0,0.79,0.21,1.88,0.5
		C310.04,216.09,310.03,216.09,310.03,216.09z M308.25,203.75c-5.26,1.78-7.24,2.45-8.61,2.91l-0.03,0c0,0-0.01,0-0.41,0.15
		c-0.63,0.21-1.19,0.4-1.99,0.67c0,0,0.01,0.02,0.01,0.05c-0.16,0.06-0.33,0.12-0.5,0.18c-0.81,0.11-1.63,0.21-2.44,0.32
		c-0.92,0.11-1.79,0.37-2.2,0.63c-0.34-0.09-0.71-0.17-1.16-0.24c-4.21,0.51-4.65,0.56-8.2,0.98c-0.17-0.36-0.33-0.72-0.5-1.09
		c5.1-0.54,10.25-1.12,15.22-1.52c1.22-0.07,2.66-0.46,3.23-0.87c0.48-0.39-0.1-0.65-1.36-0.56c-4.47,0.18-8.8,0.3-13.12,0.4
		c-0.34,0.14-0.67,0.27-1.01,0.41c0.13-0.14,0.32-0.27,0.51-0.4c-0.39,0.01-0.79,0.02-1.18,0.03c0.29-0.11,0.55-0.22,0.85-0.33
		c0.32-0.03,0.65-0.05,0.97-0.08c0.5-0.26,1.09-0.52,1.76-0.77c7.63-0.9,15.19-1.74,22.37-2.14c0.42-0.02-0.17,0.68,0.63,0.76
		c0.4,0.03,0.8,0.06,1.23,0.09C311.05,203.44,309.7,203.57,308.25,203.75z M356.63,199.26c-0.74,0.2-2.22,0.4-1.33,0.76
		c-6.16,0.82-12.41,1.74-18.8,2.78c-2.38,0.38-4.71,0.87-6.92,1.44c-2.68-0.51-5.5-0.95-9.04-1.1c5.81-0.45,12.37-1.39,18.44-2.08
		c6.73-0.79,13.34-1.56,19.93-2.33C358.15,198.91,357.39,199.08,356.63,199.26z M367.19,187.86c1.23,0.14,2.47,0.28,3.72,0.42
		l-0.51,0.07c-1.58,0.13-3.16,0.26-4.74,0.39l0.91,0.14c-6.05,0.8-12.09,1.6-18.1,2.4c-8.76,0.6-18.11,1.6-27.51,3.01
		c2.63-0.87,5.12-1.77,7.43-2.67c12.09-1.1,23.77-1.79,36.3-3.63C365.53,187.94,366.36,187.9,367.19,187.86z"/>
	<path class="st0" d="M286.35,205.4c-0.24,0.12-0.46,0.25-0.64,0.38c0.17,0,0.33-0.01,0.5-0.01c0.36-0.15,0.72-0.29,1.08-0.44
		C286.98,205.35,286.66,205.38,286.35,205.4z"/>
	<path class="st0" d="M785.99,190.79c-0.6-0.05-0.64,0.15-0.11,0.47c0.45,0.28,1.32,0.59,1.91,0.64c0.5,0.04,0.56-0.19,0.11-0.47
		C787.37,191.11,786.49,190.83,785.99,190.79z"/>
	<path class="st0" d="M286.28,228.47c-1.24-2.69-2.75-5.96-4.61-9.99c-0.94,0.1-1.6,0.18-2.18,0.24c2.41,5.22,4,8.66,5.23,11.33
		C285.15,229.53,285.68,229,286.28,228.47z"/>
	<path class="st0" d="M242.87,638.63c0.01-0.58,0.03-1.17,0.04-1.75c-0.11,0.46-0.22,0.94-0.33,1.42c0.02,0.4,0.05,0.75,0.09,1.07
		C242.74,639.12,242.81,638.88,242.87,638.63z"/>
	<path class="st0" d="M241.59,660.45c-0.54,1.83-1.09,3.59-1.47,6.26c0.03,0.66,0.04,1,0.05,1.18c0.3-0.96,0.71-2.27,1.12-3.57
		C242.1,661.76,242.04,660.36,241.59,660.45z"/>
	<path class="st0" d="M240.17,667.89c-0.28,0.89-0.47,1.49-0.47,1.49c0.16-0.34,0.31-0.66,0.45-0.97c0.03-0.29,0.03-0.3,0.03-0.3
		S240.18,668.09,240.17,667.89z"/>
	<path class="st0" d="M777.09,506.59l-9.75,1.43l-6.72,0.94l-13.42,1.87c-8.95,1.27-17.88,2.44-26.81,3.59
		c-17.86,2.39-35.69,4.45-53.54,6.52c-1.2,0.16-2.17,0.41-2.31,0.61c-0.03,0.2,0.83,0.26,1.95,0.13
		c17.85-2.08,35.74-4.14,53.64-6.54c8.95-1.16,17.91-2.33,26.87-3.61l13.44-1.88c4.81-0.69,7.7-1.04,16.2-2.34
		c1.95-0.29,3.59-0.69,3.69-0.9C780.43,506.24,778.91,506.3,777.09,506.59z"/>
	<path class="st0" d="M804.5,604.28c0.49-0.75,0.32-0.85-0.4-0.27c-0.62,0.5-1.58,1.52-2.07,2.26c-0.41,0.63-0.22,0.77,0.4,0.27
		C803.15,605.96,804.08,604.91,804.5,604.28z"/>
	<path class="st0" d="M876.64,497.25l-0.11-0.55c-0.3-1.44-0.6-2.86-0.89-4.26c-18.15,3.21-35.75,6.32-53.52,9.46
		c-17.13,2.97-34.42,5.97-52.56,9.11c-36.1,6.42-69.83,11.05-105.36,15.66c-3.51,0.28-7.02,0.61-10.55,1.1
		c-3.57,0.49-7.12,0.98-10.66,1.47c-13.91,1.73-27.71,2.9-41.42,4.19c-13.71,1.22-27.35,2.05-40.94,3.05
		c32.42-3.49,64.73-7.49,96.47-12.84c2.29-0.33,3.76-0.87,3.48-1.19c-0.45-0.31-2.55-0.31-4.84,0.02
		c-44.35,6.35-88.96,11.25-133.51,14.49c-6.18-1.26-15.71-2-26.56-2.29c-5.42-0.09-11.17-0.3-16.99-0.35
		c-5.82-0.05-11.72,0-17.45,0.15c-4.22,0.15-8.29,0.3-12.3,0.44c-4,0.18-7.93,0.42-11.87,0.72c3.69,0.1,7.29,0.21,10.97,0.31
		c-10.88,0.17-20.16,1.12-29.34,1.97c-0.8-0.05-1.6-0.1-2.46-0.16c-10.63-1.13-22.16-1.58-33.88-2.22
		c-11.69-0.86-23.62-1.38-35.02-2.54c0.48,0.43,1,0.91,1.48,1.34c-4.2-0.66-6.61-1.59-11.22-2.19c1.27,0.41,2.47,0.79,3.74,1.2
		c-0.09-0.01-0.19-0.02-0.28-0.04c-4.89-1.06-10.82-1.83-17-2.36c-1.68-0.35-3.4-0.7-5.15-1.07c-0.91-0.18-1.84-0.35-2.77-0.53
		c-1.64-0.28-3.3-0.57-4.98-0.86c-6.73-1.14-13.84-2.29-21.24-3.42c-7.4-1.14-15.1-2.27-23-3.38c-3.96-0.55-7.96-1.1-11.99-1.66
		l-1.52-0.21l-0.76-0.1l-0.38-0.05c-0.12-0.01-0.29-0.09-0.27,0.1l-0.55,2.94c-0.36,1.97-0.73,3.95-1.1,5.94
		c-0.2,1.11-0.41,2.25-0.61,3.36c-1.15,3.9-2.54,10.2-3.89,17.95c-0.68,3.17-1.41,6.94-2.01,9.21c-1.35,5.08-2.73,10.59-4.14,16.48
		c-0.35,1.48-0.7,2.98-1.06,4.49c-0.18,0.76-0.35,1.53-0.53,2.3l-0.27,1.16l-0.18,0.65c-0.45,1.61-0.91,3.24-1.38,4.9
		c-1.83,6.67-3.63,13.85-5.4,21.4c0.85-2.88,1.75-5.88,2.6-8.77c-1.04,4.36-2.08,8.66-2.92,13.58c0.3-0.49,0.67-1.09,0.98-1.58
		c-4.21,14.9-7.06,35.83-6.4,46.72c0.67,10.94,4.6,7.78,8.81-7.13l0.62-2.15c-0.92,7.82-1.25,14.72-0.5,18.77
		c0.42,2.17,1.69,0.54,2.65,0.25c1.18,0.83,3.33-5.1,4.77-13.21c0.39-2.21,0.69-4.34,0.89-6.29c2.03-9.28,4-18.8,6.09-27.81
		c0.44-1.78,0.68-4,0.54-5c-0.16-0.86-0.64-0.14-1.08,1.7c-1.69,6.47-3.39,12.75-5.09,18.98c-0.01,0.53-0.02,1.06-0.04,1.59
		c-0.07-0.24-0.12-0.53-0.16-0.85c-0.16,0.57-0.31,1.15-0.47,1.72c0.02-0.47,0.04-0.94,0.06-1.42c0.11-0.46,0.21-0.91,0.32-1.37
		c-0.04-0.84-0.02-1.83,0.03-2.92c2.34-11.3,4.71-22.47,7.33-32.91c0.16-0.61,0.56,0.52,0.96-0.58c0.19-0.56,0.39-1.13,0.59-1.72
		c-0.44,1.88-0.88,3.87-1.32,6.02c-0.54,8.28-0.74,11.4-0.88,13.56c0,0.01-0.01,0.04-0.01,0.04s0,0.02-0.03,0.65
		c-0.07,1-0.12,1.87-0.2,3.14c0,0,0.02-0.01,0.05,0c-0.01,0.25-0.02,0.52-0.04,0.8c-0.24,1.21-0.48,2.42-0.72,3.63
		c-0.28,1.37-0.4,2.72-0.33,3.41c-0.22,0.45-0.45,0.94-0.7,1.56c-1.42,6.92-1.42,6.92-2.88,14.01c0,0,0.15,0.01,0.39-0.19
		c-0.03,0.28-0.27,2.69-0.81,5.46c-0.42,2.68-0.42,2.68-1.77,9.32c0,0,0,0,1.11-3.13c0,0,0,0-0.87,2.76c0,0,0,0,0.78-0.63
		c0,0,0,0-0.93,1.18c0,0,0,0,0.34,1.3c0,0-0.01,0.02-2.5,5.34c-0.04,0.44-0.13,1.49-0.36,4.13c0,0,0.03,0.75,0.12,1.31
		c0.18,0.09,0.18,0.09,0.48,2.43c0,0,0.21,0.09,0.48-0.09c0.33-0.65,0.33-0.65,0.96-0.72c0,0,0.36-0.73,0.75-1.82
		c0.28-1.06,0.36-1.33,1.41-5.24c0.04,0.36,0.1,0.71,0.16,1.02c0.99,0.95,0.99,0.95,4.42-3.59c0,0,1.17-2.66,2.43-7.07
		c1.1-5.18,1.1-5.18,2.37-11.16c0,0,0.3-1.3,0.82-3.54c0.7-1.62,0.88-1.97,1.46-3.16c0,0,0-0.01,0.01-0.03
		c-0.17,1.16-0.28,2.3-0.31,3.25c-0.09,2.78,0.49,3.26,1.3,1.05c1.23,3.29,3.09,1.75,5.21-1.79c0.38,1.25,0.89,1.88,1.54,1.83
		c0.73,4.68,1.84,7.71,3.31,9.15l1.37,0.77c1.44-1.08,3.21-4.61,5.01-10l0.63-1.62l0.93,1.79c4.37-6.55,9.26-20.15,13.75-28.3
		l2.69-6.24c1.04-2.26,2.11-5.22,3.16-8.71c0.52-1.74,1.05-3.62,1.55-5.61c0.24-0.98,0.49-1.98,0.75-3.01
		c0.12-0.35,0.25-0.7,0.38-1.07l0.96-2.92c0.12-0.63,0.24-1.25,0.36-1.89c0.81,4.31,2.81,5.89,5.14,6.2
		c1.92,0.26,3.6,0.22,4.63,0.75c0.54,0.25,0.85,0.55,1.13,0.83c0.33,0.28,0.41,0.37,0.48,0.24l0.23-0.01l0.06,0l1.99,0.15l6.25,0.49
		c8.33,0.64,16.63,1.28,24.92,1.92c8.29,0.59,16.56,0.8,24.84,1.21c8.27,0.36,16.55,0.76,24.82,0.76
		c8.27,0.08,16.55,0.16,24.86,0.24c8.3-0.04,16.6-0.3,24.94-0.46c4.17-0.1,8.35-0.2,12.54-0.3c4.18-0.15,8.36-0.4,12.56-0.6
		c8.39-0.45,16.83-0.91,25.33-1.37c50.22-3.46,95.3-9.11,143.82-14.71c46.22-7.08,90.26-15.56,134.55-24.9
		c1.67-0.35,3.32-0.7,4.96-1.05l0.61-0.13c0.08-0.02,0.11-0.04,0.16-0.06c0.08-0.04,0.23-0.09,0.35-0.14l0.75-0.29
		c1.07-0.41,2.13-0.82,3.16-1.22c2.48-0.96,4.89-1.89,7.25-2.81c5.3-2.02,11.64-4.36,19.22-6.87l2.27-0.75l1.16-0.38l0.59-0.19
		c0.19-0.06,0.46-0.18,0.39-0.02c0.1,0.76,0.19,1.57,0.25,2.44c0.15,1.74,0,3.61-0.21,5.74c-0.08,0.43,0.24,0.33,0.61-0.06
		c0.44-0.52,0.76-1.27,0.76-1.66c0.47-2.07,1-4.04,1.29-6.03l0.25-1.47l0.12-0.73l0.06-0.36l0.03-0.18l0.01-0.09
		c-0.02-0.01-0.08,0.01-0.11,0.02l-3.94,0.95c-6.38,1.55-12.78,3.1-19.22,4.66c-2.85,0.68-5.71,1.37-8.57,2.06l-4.06,0.97
		l-1.98,0.47l-0.98,0.23l-0.44,0.1l-1.05,0.2c-11.34,2.11-22.78,4.2-34.38,6.2c-11.61,1.94-23.35,3.85-35.26,5.65
		c-6.49,0.93-12.88,1.8-19.22,2.63c-0.71,0.04-1.48,0.1-2.31,0.2c-5.78,0.57-11.57,1.23-17.38,1.76c2.01-0.26,4.02-0.53,6.04-0.8
		c3.99-0.51,7.34-1.45,7.54-2.14c-0.03-0.27-0.62-0.45-1.57-0.53c14.65-2.67,28.96-5.44,43.15-8.49c4.27-0.68,8.17-1.48,11.51-2.31
		c8.33-0.93,16.64-1.99,24.97-3.04l12.5-1.57l3.13-0.39l2.52-0.3l3.34-0.35l2.16-0.14c2.84-0.3,5.69-1.15,7.56-2.21
		c0.58-0.32,1-0.63,1.28-0.92c8.36-1.78,16.76-3.56,25.1-5.33l3.1-0.66l0.78-0.17l0.39-0.08c0.12-0.02-0.01,0.18,0,0.25l-0.29,1.26
		c-0.41,1.68-0.72,3.42-1.23,5.11c-0.5,1.69-0.94,3.43-1.49,5.14c-0.58,1.73-1.16,3.45-1.74,5.17c-2.53,6.89-5.7,13.81-9.57,20.85
		c-0.6,1.1-0.73,1.77-0.3,1.71c-0.35,0.38-0.73,0.91-1,1.41c-0.7,1.34-1.53,2.78-2.45,4.28c-0.48,0.76-0.9,1.5-1.49,2.32
		c-0.69,0.94-1.4,1.89-2.11,2.85c-0.6,0.88-0.84,1.44-0.4,1.16c0.48-0.26,1.31-1.13,1.86-1.91c1.63-2.11,2.45-3.55,3.49-5.21
		c0.97-1.61,1.94-3.12,2.64-4.65c0.15-0.32,0.2-0.56,0.13-0.64c0.62-0.56,1.41-1.54,2-2.56c4.59-7.32,8.26-14.74,11.1-22.05
		c0.67-1.85,1.36-3.65,1.98-5.46l1.66-5.44c0.51-1.8,0.91-3.62,1.36-5.4l0.33-1.34c-0.39-0.02-1.03,0.18-1.53,0.26l-3.19,0.65
		c-9.74,1.96-18.9,3.78-27.88,5.32c9.04-2.24,18.92-4.48,29.81-6.83c1.02-0.22,2.06-0.45,3.11-0.67l1.58-0.34l0.4-0.09l-0.07,0.32
		l-0.14,0.64c-0.39,1.73-0.79,3.49-1.2,5.26c-2,7.67-4.57,15.18-8.1,22.91c-3.54,7.69-8.01,15.66-13.9,23.52
		c-0.59,0.8-0.93,1.48-0.72,1.51c0.27-0.02,0.9-0.58,1.49-1.44c7.44-9.94,13.05-20.13,17.04-29.86l1.47-3.62l1.24-3.62l1.19-3.55
		l0.98-3.54c0.69-2.32,1.2-4.65,1.67-6.95l0.37-1.71l0.18-0.85c0-0.03,0.03-0.08,0.01-0.1l-0.14,0.03l-0.27,0.06l-0.54,0.12
		l-4.31,0.94c-15,3.28-28.31,6.06-42.05,8.18c-1.37,0.2-2.74,0.39-4.09,0.59c10.65-3.22,23.03-6.7,37.25-10.52
		c4.8-0.84,9.59-1.68,14.35-2.52l3.24-0.57l1.62-0.29l0.41-0.07c0.06-0.01,0.15-0.04,0.19-0.02l-0.05,0.18l-0.22,0.74l-1.73,5.92
		c-0.58,1.98-1.33,3.9-1.99,5.87l-1.03,2.94l-1.17,2.89c-3.03,7.78-6.79,15.36-11.09,22.8c-2.09,3.76-4.49,7.36-6.87,11.03
		c-1.23,1.81-2.54,3.57-3.81,5.37c-0.66,0.9-1.25,1.79-1.97,2.71l-2.31,2.9c-3.02,3.96-6.33,7.66-9.6,11.41
		c-1.67,1.84-3.42,3.6-5.13,5.41c-1.68,1.83-3.48,3.54-5.29,5.25c-1.64,1.48-2.78,2.91-2.5,3.14c0.27,0.24,1.87-0.8,3.52-2.29
		c1.22-1.06,2.48-2.08,3.66-3.19l3.53-3.34c1.17-1.12,2.37-2.22,3.52-3.36l3.37-3.51l3.38-3.52l3.21-3.68l3.2-3.67l2.93-3.68
		c7.82-9.84,14.88-20.61,20.94-32.13c-0.57,1.54-1.1,3.12-1.81,4.65l-2.41,4.71c-8.16,14.61-18.3,28.13-29.81,40.73
		c-4.38,4.6-7.7,8.74-7.2,9.77c0.59,0.79,4.64-1.92,9.04-6.33c-0.63,0.79-1.28,1.55-1.98,2.29c-0.69,0.75-1.07,1.4-0.76,1.32
		c0.41-0.15,1.42-0.99,2.1-1.72c2.34-2.82,4.57-5.64,6.83-8.43l4.02-4.68c1.32-1.56,2.7-3.09,4.06-4.93
		c2.69-3.55,5.52-7.03,7.94-10.76l3.76-5.52l3.44-5.67c2.39-3.75,4.33-7.65,6.4-11.5c2.07-3.85,3.73-7.81,5.61-11.71
		c1.63-3.99,3.38-7.92,4.88-11.96c1.46-4.07,3.04-8.06,4.28-12.24l1.97-6.2l0.06-0.19c0-0.05-0.09-0.01-0.13-0.03l-0.32,0l-0.64,0
		l-1.29,0l-2.58,0l2.91-0.1l1.44-0.04l0.72-0.01c0.19-0.06,0.06,0.15,0.04,0.27l-0.12,0.41l-1.9,6.57
		c-0.61,2.22-1.33,4.39-2.08,6.55l-2.22,6.54l-2.49,6.46l-1.25,3.25l-1.39,3.22l-2.82,6.46c-1.02,2.15-2.13,4.28-3.19,6.44
		c-2.03,4.34-4.67,8.55-7.08,12.86c-1.26,2.14-2.69,4.21-4.04,6.33c-1.38,2.1-2.69,4.26-4.25,6.28l-4.53,6.18
		c-1.56,2.16-2.96,3.69-4.41,5.52c-2.82,3.59-5.95,6.92-9.02,10.31c0.41-0.63,0.31-0.84-0.4-0.26c-0.59,0.51-1.67,1.61-2.13,2.22
		c-0.52,0.71-0.26,0.76,0.39,0.28c0.03-0.02,0.04-0.03,0.06-0.05c-6.82,7.07-14.2,13.61-21.93,19.73
		c-7.87,5.94-16.01,11.57-24.68,16.36c-1,0.57-1.78,1.22-1.66,1.38c0.12,0.16,1.11-0.24,2.22-0.9
		c12.64-7.13,24.46-15.64,35.22-25.25c2.68-2.41,5.38-4.81,7.88-7.4l3.82-3.82c1.27-1.28,2.43-2.65,3.65-3.97l3.61-4
		c1.18-1.35,2.29-2.76,3.43-4.14l3.43-4.2l3.62-4.92c9.63-13.12,17.32-26.95,23.13-40.58c1.53-3.39,2.84-6.83,4.14-10.26
		c1.36-3.39,2.51-6.87,3.67-10.32c1.21-3.41,2.2-6.94,3.21-10.41l0.75-2.6l0.19-0.65l0.09-0.32c-0.01-0.08,0.15-0.29,0-0.24
		l-1.09-0.01l-4.42,0c-8.39,1.59-16.7,3.17-24.98,4.74c-3.66,0.6-7.32,1.19-11.01,1.79l0-0.01c-0.54-0.7-2.5-1.1-5.6-1.18
		c14.89-2.56,29.74-5.12,44.58-7.67l2.61,0.31l1.3,0.16l0.65,0.08c0.17,0.07,0.59-0.08,0.35,0.34l-2.17,7.16
		c-0.7,2.41-1.48,4.76-2.3,7.09l-2.42,7.03c-1.98,4.68-3.72,9.44-5.93,14.03c-1.07,2.31-2.09,4.63-3.2,6.94l-3.58,6.87
		c-0.61,1.14-1.16,2.3-1.82,3.43l-2.01,3.39c-1.36,2.25-2.65,4.52-4.06,6.75c-3.02,4.38-5.76,8.9-9.11,13.1
		c-1.86,2.45-3.14,4.69-2.82,5.03c0.28,0.33,2.12-1.58,4.16-4.26c3.41-4.25,6.18-8.84,9.23-13.29c-1.88,3.79-2.78,6.52-2.12,7.06
		c0.63,0.54,2.64-1.18,5.47-4.47c-1.67,2.74-3.35,5.49-5.02,8.22c-1.81,2.69-3.73,5.36-5.59,8.06c-0.94,1.32-1.89,2.76-2.81,3.99
		l-2.41,3.13c-1.6,2.03-3.11,4.14-4.78,6.11c-6.53,8.01-13.58,15.51-20.89,22.64c-0.87,0.83-1.26,1.35-0.81,1.22
		c0.46-0.12,1.46-0.85,2.29-1.7c2.7-2.55,5.51-4.98,8.09-7.63c2.56-2.67,5.24-5.22,7.67-7.99c2.41-2.79,4.96-5.44,7.24-8.33
		l3.45-4.29l1.79-2.22l2.1-2.9c11.48-15.39,20.43-31.7,26.82-47.36c1.96-4.29,4.02-8.58,5.78-12.95c1.83-4.35,3.67-8.74,5.4-13.31
		c0.88-2.27,1.76-4.55,2.64-6.84c0.85-2.38,1.7-4.76,2.56-7.15l1.28-3.61l0.64-1.82l0.16-0.45c0.06-0.16,0.13-0.32,0.05-0.35
		l-0.22-0.4c-0.58-1.07-1.17-2.15-1.76-3.24c-9.58,1.26-19.64,2.65-30.18,4.19c-12,1.76-24.01,3.58-35.87,5.48
		c-11.17,1.84-22.2,3.65-33.15,5.45c-15.92,2.82-31.6,5.6-47.26,8.38c-11.35,1.37-22.65,2.74-33.86,4.1c1.52-0.6,2.4-1.18,2.33-1.68
		c-0.02-0.13-0.15-0.23-0.3-0.34c4.93-0.63,9.87-1.26,14.84-1.9c4.97-0.69,9.96-1.38,15-2.07c10.2-1.42,20.32-2.83,30.38-4.41
		c11.14-1.77,22.22-3.53,33.24-5.27c29.28-4.78,58.66-9.76,88.76-14.98l1.45,2.96l0.36,0.75c0.02,0.16,0.19,0.17,0.1,0.45
		l-0.23,0.77l-0.94,3.1c-1.26,4.09-2.49,8.39-3.79,12.3c-2.56,8.06-5.17,15.88-7.95,23.76c-1.5,3.95-2.85,7.88-4.46,11.87
		l-5.33,12.11l-6.42,12.27c-2.39,4.07-4.94,8.15-7.42,12.25c-2.6,4.06-5.59,8-8.39,12.04l-1.07,1.51c-0.35,0.51-0.74,1.03-1.02,1.36
		l-1.67,2.12l-3.24,4.1c-4.41,5.4-9.01,10.66-13.92,15.66c-9.75,10.04-20.45,19.26-32.01,27.47c-5.25,3.71-8.88,6.76-7.74,7.15
		c0.56,0.19,2.25-0.29,4.43-1.36c2.16-1.1,4.86-2.71,7.54-4.56c10.07-6.96,19.34-14.6,27.9-22.78c4.16-4.21,8.34-8.35,12.15-12.82
		c1.96-2.19,3.89-4.39,5.68-6.7l2.74-3.43c0.89-1.17,1.8-2.14,3.18-4.16l7.57-10.67c1.32-1.75,2.34-3.6,3.46-5.42l3.3-5.46
		c1.08-1.82,2.24-3.63,3.25-5.45l2.81-5.49l2.8-5.48l1.39-2.73l1.14-2.71c1.52-3.6,3.04-7.2,4.57-10.82
		c1.24-3.52,2.48-7.06,3.72-10.61c1.29-3.54,2.33-7.07,3.5-10.6c1.15-3.51,2.28-7.08,3.4-10.74c0.81-2.61,1.61-5.2,2.4-7.76
		c0.79-2.66,1.57-5.29,2.34-7.89c0.38-1.3,0.77-2.59,1.15-3.87l0.57-1.91l0.14-0.48C876.71,497.4,876.64,497.35,876.64,497.25z
		 M248.46,649.43c0.18-0.59,0.38-1.03,0.71-1.76C249.17,647.67,249.17,647.67,248.46,649.43z M262.37,608.85
		c-0.33,0.65-0.73,1.44-1.24,2.44c0,0,0.52-1.04,1.24-2.48C262.37,608.84,262.37,608.85,262.37,608.85z M272.81,642.64l-2.73-6.1
		l2.96,5.67L272.81,642.64z M289.35,540.47c-1.56-0.12-4.68-0.54-2.78,0.2c-6.5-0.86-13.06-1.73-19.68-2.61l-0.62-0.08l-0.31-0.04
		c-0.05,0-0.12-0.04-0.14,0l-0.03,0.15l-0.22,1.21l-0.44,2.44c-0.29,1.63-0.58,3.27-0.88,4.91c-0.58,3.3-1.17,6.62-1.75,9.96
		c-0.87,4.99-1.64,10-2.26,14.8c-0.89,2.42-1.8,4.99-2.74,7.89c-0.46,1.48-0.93,3.02-1.43,4.62c-0.24,0.83-0.48,1.67-0.73,2.53
		c-0.2,0.61-0.4,1.24-0.61,1.88c0.12-0.53,0.25-1.07,0.37-1.61c0.16-0.77,0.32-1.55,0.49-2.34c0.33-1.61,0.66-3.24,0.99-4.88
		c0.64-3.27,1.29-6.61,1.95-9.96c1.28-6.62,2.57-13.31,3.81-19.73c0.69-3.49,1.38-6.97,2.06-10.43l0.51-2.58
		c0.78-0.04,1.78,0.21,2.66,0.31l5.41,0.78c7.1,1.01,14.16,2.02,21.21,3.02C292.58,540.76,290.97,540.62,289.35,540.47z
		 M320.47,535.52c-2.8-0.42-5.61-0.84-8.42-1.26c0.7,0.18,1.39,0.36,2.1,0.54c-14.92-1.99-29.8-3.98-44.59-5.96
		c-3.64-0.57-7.32-1.14-11.04-1.72c-1.27-0.59-1.03,0.84-1.29,1.6l-0.54,2.64c-0.36,1.78-0.72,3.56-1.08,5.35
		c-1.43,7.32-2.88,14.76-4.34,22.27c-1.41,7.69-2.84,15.47-4.27,23.27c-0.05,0.26-0.09,0.53-0.14,0.79
		c0.06-0.56,0.12-1.13,0.18-1.69c0.29-2.78,0.57-5.52,0.85-8.19c0.35-3.46,0.66-6.82,0.97-10.12c1-4.97,1.99-9.91,2.98-14.83
		c0.85-4.13,1.69-8.24,2.53-12.36l1.25-6.11l0.62-3.04l0.15-0.76l0.08-0.38c0.03-0.12,0.24,0,0.36-0.01l1.62,0.24
		c17.32,2.6,34.19,5.07,51.61,7.3c2.02,0.34,4.01,0.67,6.01,1c1.71,0.49,3.43,0.99,5.15,1.49
		C320.97,535.57,320.72,535.55,320.47,535.52z"/>
	<path class="st0" d="M407.95,990.92c0.01,0,0.03-0.01,0.04-0.01c0.04-0.01,0.08-0.01,0.13-0.02c0.01,0,0.01,0,0.01,0
		c0.16-0.02,0.31-0.04,0.45-0.04c0.03,0,0.06,0,0.09,0c0.07,0,0.14,0,0.22,0c0.05,0,0.1,0.01,0.14,0.01c0.01,0,0.03,0,0.04,0
		c0.04,0,0.06,0.01,0.09,0.01c0.05,0.01,0.11,0.01,0.16,0.02c0.05,0.01,0.09,0.01,0.13,0.02c0.23,0.61,0.44,1.2,0.65,1.77
		c-0.26-0.7-0.47-1.27-0.65-1.77c0.04,0.01,0.11,0.02,0.15,0.02h0c0.09,0.03,0.16,0.05,0.2,0.06c-0.01,0-0.04-0.01-0.08-0.03
		c0.02,0.01,0.06,0.02,0.07,0.02l0.02,0.01c0,0-0.01,0-0.01,0c0,0,0.02,0.01,0.02,0.01c0.03,0.02,0.03,0.02,0.03,0.01l-0.03-0.01
		l0,0c0,0,0.01,0,0,0c0,0,0.01,0,0.01,0l0,0l0,0l0,0c0.01-0.01,0.01-0.01,0.01-0.01l-0.01,0c0,0-0.01,0-0.01,0
		c-0.01-0.01-0.04-0.02-0.05-0.03c-0.01-0.01-0.02-0.01-0.04-0.02c-0.02-0.01-0.03-0.02-0.05-0.03c-0.07-0.05-0.18-0.14-0.34-0.28
		c0,0.01,0.01,0.02,0.01,0.02l0,0.01c0,0-0.01-0.02-0.01-0.03c-0.09-0.08-0.17-0.15-0.3-0.27c0.08,0.08,0.16,0.17,0.28,0.27
		c-0.13-0.11-0.07-0.06,0.04,0.04c0.03,0.08,0.06,0.15,0.09,0.23l-0.01,0c-0.04-0.01-0.08-0.01-0.13-0.02
		c-0.02,0-0.03-0.01-0.05-0.01c-0.03,0-0.05-0.01-0.08-0.01c-0.04,0-0.07-0.01-0.12-0.01c0.02,0,0.02,0,0.04,0.01
		c-0.01,0-0.03,0-0.04,0l-0.03,0c0,0,0.02,0,0.03,0c-0.01,0-0.01,0-0.01,0c-0.02,0-0.04,0-0.05,0l-0.03,0c0,0,0.01,0,0.01,0
		c-0.01,0-0.01,0-0.02,0l-0.02,0c0,0,0.02,0,0.02,0c-0.03,0-0.06,0-0.08,0c-0.1,0-0.19-0.01-0.29-0.01c-0.03,0-0.05,0-0.1,0.01h0.01
		h0c-0.01,0-0.03,0-0.03,0s0.01,0,0.02,0c-0.02,0-0.02,0-0.04,0c-0.05,0-0.11,0.01-0.16,0.01c-0.01,0-0.02,0-0.03,0h0l-0.02,0
		l0.02,0c-0.02,0-0.05,0-0.06,0.01c-0.12,0.02-0.18,0.03-0.21,0.04h0c0.06-0.01,0.11-0.02,0.15-0.03c-0.04,0.01-0.09,0.02-0.15,0.03
		c-0.03,0.01-0.06,0.01-0.09,0.02c-0.05,0.01-0.08,0.02-0.12,0.03l0.01,0c0,0-0.01,0-0.02,0.01l-0.01,0c0,0,0.01,0,0.01,0
		c-0.01,0-0.03,0.01-0.04,0.01c-0.01,0-0.02,0.01-0.03,0.01c-0.01,0-0.02,0.01-0.03,0.01c-0.06,0.02-0.04,0.02-0.06,0.02l-0.05,0.03
		c0.09-0.04,0.19-0.07,0.29-0.09C407.88,990.93,407.92,990.92,407.95,990.92z M407.85,990.94c0.01,0,0.02-0.01,0.03-0.01
		c0.02,0,0.03-0.01,0.05-0.01C407.9,990.93,407.87,990.94,407.85,990.94z M407.94,990.91c0,0-0.02,0.01-0.03,0.01l0,0
		C407.92,990.92,407.93,990.92,407.94,990.91L407.94,990.91z M407.91,990.92L407.91,990.92L407.91,990.92L407.91,990.92z
		 M409.61,990.94L409.61,990.94c-0.02,0-0.02-0.01-0.03-0.01C409.6,990.94,409.61,990.94,409.61,990.94L409.61,990.94z
		 M409.57,990.93l0.01,0C409.58,990.93,409.58,990.93,409.57,990.93L409.57,990.93L409.57,990.93z M409.68,990.96l0.02,0.01
		C409.69,990.96,409.69,990.96,409.68,990.96c0.03,0.01,0.06,0.02,0.09,0.03l0,0c-0.01,0-0.04-0.01-0.07-0.02
		c0.02,0,0.03,0.01,0.05,0.01c0,0-0.02-0.01-0.03-0.01C409.7,990.97,409.7,990.97,409.68,990.96z M409.79,991L409.79,991
		c0.01,0,0.01,0,0.01,0c0.01,0.01,0.01,0,0.01,0.01h0c0,0,0,0-0.01,0C409.81,991,409.81,991.01,409.79,991z M409.36,990.68
		c0.02,0.02,0.03,0.03,0.05,0.05c0.04,0.04,0.08,0.07,0.14,0.11l0,0c-0.05-0.03,0.01,0.01,0.08,0.06c-0.01-0.01-0.02-0.01-0.03-0.02
		c0.03,0.02,0.05,0.04,0.08,0.05c-0.02-0.01-0.03-0.02-0.05-0.03c0.03,0.02,0.07,0.05,0.09,0.06c0.01,0.01,0.04,0.03,0.05,0.03
		c0.01,0,0.02,0.01,0.02,0.01c0,0,0.01,0,0.01,0c0,0-0.01-0.01-0.01-0.01c0.01,0.01,0.01,0.01,0.02,0.01l0,0c-0.01,0,0,0-0.01,0
		l0.01,0l0,0l0,0l-0.01,0l0,0c-0.01,0-0.01,0-0.02-0.01c-0.05-0.02-0.14-0.05-0.28-0.07c0.02,0,0.03,0.01,0.04,0.01l-0.01,0
		c0.01,0,0.01,0,0.02,0c-0.01,0-0.04,0-0.05-0.01c0.01,0,0.02,0,0.02,0c-0.02,0-0.04-0.01-0.07-0.02c0.02,0,0.03,0.01,0.05,0.01
		c-0.02,0-0.03,0-0.05-0.01C409.42,990.83,409.39,990.75,409.36,990.68z M407.83,990.94c0.02-0.01,0.04-0.01,0.06-0.02c0,0,0,0,0,0
		c-0.01,0-0.02,0.01-0.03,0.01C407.85,990.94,407.83,990.94,407.83,990.94z"/>
	<path class="st0" d="M408.99,964.38c-0.27,0.25-0.51,0.5-0.72,0.72c0.21-0.1,0.42-0.19,0.64-0.29c0.42-0.34,0.84-0.69,1.25-1.02
		C409.77,963.98,409.38,964.18,408.99,964.38z"/>
	<path class="st0" d="M631.11,661.67c-2.77,0.65-5.68,1.29-8.7,1.93l-4.61,0.95l-2.69,0.54l-6.66,1.44
		c-17.76,3.77-35.64,7.05-53.59,9.79c-1.21,0.18-2.19,0.47-2.22,0.67c-0.03,0.17,0.93,0.2,2.04,0.02
		c17.98-2.71,35.83-5.98,53.57-9.73l6.64-1.43l2.83-0.57l4.37-0.88c2.86-0.59,5.61-1.19,8.22-1.79c0.36-0.1,0.81-0.37,1.04-0.61
		C631.56,661.73,631.45,661.6,631.11,661.67z"/>
	<path class="st0" d="M392.19,978.4L392.19,978.4l0.24,0.2h0C392.36,978.54,392.25,978.45,392.19,978.4z"/>
	<path class="st0" d="M408.76,989.15c-0.15,0.1-0.3,0.19-0.42,0.27c0.08-0.05,0.18-0.12,0.31-0.2
		C408.69,989.19,408.72,989.17,408.76,989.15z"/>
	<path class="st0" d="M408.33,989.43c-0.08,0.05-0.15,0.09-0.21,0.14c-0.11,0.06-0.13,0.08-0.05,0.1
		C408.07,989.61,408.18,989.52,408.33,989.43z"/>
	<path class="st0" d="M409.35,990.64c-0.36-0.99-0.56-1.51-0.56-1.51l0,0C408.98,989.66,409.16,990.14,409.35,990.64L409.35,990.64z
		"/>
	<path class="st0" d="M409.85,991.02L409.85,991.02L409.85,991.02C409.83,991.01,409.82,991.01,409.85,991.02z"/>
	<path class="st0" d="M412.24,998.48c0,0,0-0.02-0.01-0.03c-0.56-1.51-1.28-3.47-2.13-5.77
		C410.65,994.16,411.36,996.09,412.24,998.48L412.24,998.48z"/>
	<path class="st0" d="M408.66,989.87c0.01,0.01,0.03,0.04,0.03,0.06c0.04,0.06,0.09,0.13,0.15,0.2
		C408.79,990.01,408.73,989.93,408.66,989.87z"/>
	<path class="st0" d="M408.07,989.66c0,0.03,0.05,0.05,0.17,0.05c0.02,0.01,0.04,0,0.06,0.01
		C408.17,989.69,408.07,989.68,408.07,989.66L408.07,989.66z"/>
	<path class="st0" d="M408.3,989.72c0.11,0.02,0.24,0.06,0.36,0.15c-0.01-0.02-0.02-0.03-0.04-0.07
		C408.62,989.7,408.46,989.75,408.3,989.72z"/>
	<path class="st0" d="M392.44,978.61h-0.13l6.47,5.28c0.02-0.01,0.03-0.01,0.05-0.02L392.44,978.61z"/>
	<path class="st0" d="M395.86,985c5.6,2.89,8.63,4.45,11.69,6.03l-8.78-7.16C397.58,984.39,396.55,984.79,395.86,985z"/>
	<path class="st0" d="M408.79,989.13c-0.01,0-0.02,0.02-0.03,0.02C408.77,989.15,408.78,989.14,408.79,989.13L408.79,989.13z"/>
	<path class="st0" d="M650.23,599.79c-4.2,1.32-8.4,2.64-12.59,3.95c-8.38,2.75-16.5,4.9-24.57,7.24l-6.03,1.71l-3.12,0.82
		L602.2,614l-6.5,1.87l-13.04,3.59c-8.72,2.29-17.47,4.53-26.29,6.6c-14.97,3.57-28.48,6.79-41.5,9.9c-3.26,0.81-6.49,1.5-9.71,2.26
		c-1.62,0.37-3.24,0.75-4.85,1.12l-7.1,1.24l-6.97,1.23l-3.46,0.61l-3.67,0.59c-2.41,0.39-4.83,0.78-7.25,1.18l-3.59,0.58
		l-1.78,0.29c-0.57,0.13-1.26,0.1-1.64,0.47c-1.91,6.68-3.66,13.31-5.8,19.76c-0.43,1.33-0.29,1.57,0.1,0.99
		c0.53-0.92,1.24-2.67,1.61-3.87c1.81-5.08,3.34-10.3,5.07-15.57c0.32-0.32,0.9-0.31,1.42-0.38l1.58-0.19l3.17-0.38l6.4-0.77
		l6.4-0.77l6.1-0.8l6.15-0.8l3.1-0.4c0.58-0.07,0.89-0.13,1.26-0.19l1.1-0.18c2.92-0.47,5.85-0.95,8.78-1.42
		c11.71-1.99,23.45-4.1,35.23-6.48c11.78-2.4,23.63-4.9,35.55-7.69c5.96-1.41,11.95-2.79,17.95-4.31l4.51-1.12l3.21-0.78l3.67-0.95
		c4.92-1.29,9.85-2.58,14.8-3.88c4.9-1.3,9.82-2.79,14.68-4.14c2.43-0.69,4.86-1.38,7.28-2.06c2.44-0.72,4.87-1.45,7.3-2.17
		c1.04-0.25,2.19-0.55,3.45-0.92c8.6-2.41,17.25-4.84,25.88-7.26c-3.06,0.94-6.11,1.88-9.17,2.82c-6.03,1.8-11.61,4-12.54,4.95
		c-0.23,0.36,0.4,0.44,1.59,0.3c-5.51,1.83-10.99,3.65-16.44,5.46c-5.31,1.71-10.59,3.42-15.86,5.12
		c-5.22,1.74-10.29,3.15-15.32,4.68c-4.51,1.34-9.01,2.67-13.51,4c-3.99,1-7.63,2.07-10.75,3.07c-15.68,2.91-31.46,5.51-47.35,7.58
		l-3.95,0.42c-5.21,0.7-10.17,1.74-12.56,2.86c-0.78,0.34-1.22,0.64-1.43,0.92c-8.47,1.48-16.99,2.79-25.53,4.01
		c-5.6,0.68-11.19,1.36-16.78,2.04c-2.98,0.33-5.95,0.65-8.92,0.98l-4.43,0.49l-2.2,0.24l-1.1,0.12l-0.55,0.06l-0.38,0.28
		c-2.16,6.57-4.24,13.06-6.61,19.35l-1.71,4.71c-0.13,0.4-0.31,0.77-0.46,1.15l-0.23,0.57l-0.32,0.7l-0.66,1.55
		c-0.91,2.05-1.7,4.16-2.68,6.17c-3.73,8.14-8.13,15.87-12.76,23.33c-0.93,1.4-1.26,2.27-0.85,2.24c-0.44,0.45-0.97,1.09-1.36,1.72
		c-0.52,0.85-1.06,1.73-1.6,2.63c-0.58,0.87-1.23,1.73-1.87,2.63c-1.32,1.76-2.65,3.63-4.15,5.45c-0.63,0.81-0.89,1.34-0.44,1.1
		c0.47-0.23,1.37-0.98,1.9-1.75c1.45-1.93,2.88-3.84,4.27-5.71c1.38-1.87,2.52-3.84,3.67-5.66c0.24-0.4,0.35-0.7,0.32-0.82
		c0.72-0.65,1.78-1.75,2.54-3.06c5.01-7.21,9.22-14.82,13-22.56l2.61-5.9c1.24-2.61,2.16-5.52,3.23-8.3
		c2.17-5.6,3.97-11.38,5.91-17.18l0.34-0.3l0.53-0.06l1.06-0.12l2.11-0.23l4.25-0.46l8.54-0.93c5.39-0.65,10.79-1.29,16.2-1.94
		c8.63-1.18,17.31-2.4,26.05-3.7c-8.29,1.7-16.72,3.2-25.33,4.57l-1.62,0.26l-2.01,0.27l-4.09,0.55c-2.71,0.36-5.44,0.72-8.18,1.09
		c-2.82,0.34-5.66,0.68-8.52,1.03c-1.42,0.17-2.85,0.34-4.28,0.51l-2.14,0.25l-1.07,0.13l-0.53,0.06c-0.13,0.08-0.22,0.21-0.34,0.32
		c-0.31,0.98-0.65,2.02-0.98,3.06c-2.24,7.24-4.7,14.17-7.21,20.8c-1.08,2.55-2.15,5.09-3.22,7.63l-3.49,7.21
		c-4.9,9.5-10.74,18.64-17.9,27.39c-0.77,0.89-1.14,1.61-0.93,1.63c0.23,0,0.98-0.63,1.71-1.54c7.49-9.06,13.67-18.68,18.71-28.63
		c1.19-2.53,2.55-4.94,3.57-7.52l1.61-3.81l0.92-2.16c0.35-0.81,0.65-1.65,0.94-2.49l3.61-10.19l3.3-10.53
		c0.15-0.11,0.19-0.36,0.44-0.34l0.64-0.08l1.28-0.16l2.57-0.32l5.18-0.65l5.25-0.64l5.08-0.68c3.41-0.45,6.83-0.9,10.27-1.36
		c2.79-0.42,5.6-0.85,8.42-1.28c11.28-1.75,22.79-3.54,34.75-5.4c1.91-0.28,3.81-0.57,5.69-0.84c-14.67,3.94-29.21,7.5-43.83,10.66
		c-4.62,0.63-10.83,1.25-16.43,1.87c-2.81,0.32-5.82,0.58-8.72,0.87l-4.37,0.42l-2.18,0.21l-1.09,0.11l-0.54,0.05
		c-0.17,0.04-0.21,0.23-0.32,0.34c-1.75,4.98-3.32,9.98-5.31,14.8l-1.42,3.64c-0.48,1.25-0.89,2.33-1.54,3.67l-2.7,5.83
		c-3.84,7.65-7.96,15.21-12.86,22.25l-1.78,2.68l-1.91,2.58c-1.28,1.72-2.53,3.47-3.84,5.16c0,0-0.01,0.01-0.01,0.01
		c-0.06,0.02-0.13,0.04-0.16,0.1c-0.02,0.03,0,0.07-0.01,0.11c-2.67,3.23-5.24,6.56-8.12,9.6c-5.67,6.44-11.94,12.32-18.46,17.88
		c-1.7,1.31-2.9,2.61-2.64,2.87c0.25,0.26,1.89-0.63,3.6-1.94c10.23-7.73,19.68-16.61,28.12-26.42c0.4,0.27,0.8,0.54,1.2,0.81
		c-3.51,4.32-7.19,8.5-11.09,12.49c-0.64,0-1.23,0.29-1.49,0.85c-0.11,0.24-0.14,0.5-0.13,0.76c-0.89,0.89-1.76,1.78-2.67,2.65
		c-2.25,2.13-4.19,4.19-5.62,5.76c-1.39,1.6-2.14,2.84-1.94,3.35c0.28,0.42,1.44,0.03,3.12-0.95c0.84-0.49,1.81-1.13,2.86-1.89
		c1.03-0.78,2.1-1.73,3.23-2.76c-0.68,0.72-1.35,1.43-2.02,2.16c-0.68,0.73-1.11,1.32-0.79,1.27c0.43-0.1,1.42-0.91,2.1-1.6
		c1.58-1.74,3.16-3.42,4.7-5.13c0.34,0.21,0.67,0.42,1.01,0.62c-0.43,0.4-0.85,0.84-1.13,1.21c-0.44,0.59-0.26,0.74,0.38,0.29
		c0.42-0.29,0.91-0.72,1.34-1.16c0.07,0.04,0.15,0.09,0.22,0.13c-1.29,1.31-2.6,2.6-3.93,3.88c0.44-0.59,0.35-0.8-0.38-0.29
		c-0.63,0.44-1.73,1.47-2.18,2.07c-0.52,0.69-0.27,0.75,0.37,0.3c0.03-0.02,0.04-0.03,0.06-0.05c-7.12,6.43-14.62,12.51-22.7,17.79
		c-8.1,5.23-16.51,10.07-25.41,13.92c-1.03,0.47-1.84,1.03-1.74,1.2c0.1,0.17,1.11-0.13,2.24-0.67
		c20.39-9.06,38.82-22.09,54.3-37.79c2.12,1.22,4.27,2.36,6.46,3.48c-0.11,0.12-0.2,0.24-0.31,0.36
		c-6.88,7.46-14.09,14.59-21.86,20.97c-0.9,0.77-1.29,1.29-0.85,1.18c0.44-0.11,1.46-0.77,2.35-1.53
		c7.94-6.2,15.33-12.98,22.15-20.23c1.81,0.92,3.65,1.83,5.53,2.79c-13.64,15.05-29.59,28.14-47.4,38.69
		c-2.78,1.55-5.07,3.11-6.59,4.23c-1.53,1.1-2.22,1.92-1.67,2.17c0.53,0.23,2.27-0.05,4.5-0.95c2.23-0.89,5.05-2.25,7.86-3.84
		c18.15-10.47,33.95-23.33,47.37-38.15c4.81,2.58,9.05,5.17,13.72,8.31c5.85,4.02,10.55,8.67,15.55,13.58
		c0.39,0.59,0.82,1.13,1.35,1.58l1.61,1.38c3.82,3.96,7.2,8.23,10.5,12.58c-4.9-4.29-9.9-8.36-15.24-11.87
		c-0.36-0.28-0.82-0.23-1.03,0.05c-0.19,0.31-0.09,0.78,0.27,1.05c6.76,5.55,13.16,11.69,19.58,17.91c-0.63,3.95,1.53,9,4.61,12.46
		c1.13,1.3,2.47,2.23,3.95,3.05c-0.41-0.64-0.82-1.26-1.23-1.9c1.59,1.55,3.47,2.36,5.38,3.17c0.08,0.15,0.16,0.3,0.26,0.44
		c1.67,4.4,5.4,7.92,8.05,11.92l0.67-1.07c0.36,0.86,0.17,1.73,0.66,2.59l0.12-1.19l0.03,0.05c0.21,1.2,0.83,2.31,1.69,3.27
		c0.59,3.43,2.21,6.78,4.37,9.86c-0.03,0.69,0.2,1.45,0.72,2.11c0.13,0.37,0.34,0.74,0.35,1.08c0.11,3.05,1.04,6.05,2.41,9.03
		c-0.14-0.7-0.28-1.41-0.41-2.11c0.32,0.73,0.67,1.45,1.15,2.11c-0.45,0.5-0.9,1-1.34,1.5l-5.59,6.25c-1.87,2.07-3.73,4.14-5.58,6.2
		c-1.88,2.03-3.64,4.14-5.64,5.98c0.62-0.08,1.31-0.17,1.93-0.25c-3.02,2.69-5.19,3.89-8.4,6.91c1.08-0.68,2.09-1.32,3.16-2
		l-0.19,0.18c-3.75,2.95-7.88,6.84-11.97,11.07c-2.5,2.07-5.32,4.04-8.14,6.2c-2.83,2.15-5.73,4.42-8.68,6.8
		c-2.97,2.35-5.89,4.91-9.01,7.36c-3.17,2.39-6.36,4.86-9.57,7.39c-0.44,0.35-0.89,0.72-1.33,1.07c-1.99,1.03-4.73,2.89-7.71,5.33
		c-1.34,0.92-2.83,2.1-3.93,2.6c-4.82,2.38-9.97,5.22-15.39,8.42c-2.7,1.62-5.48,3.3-8.35,5.02c-2.94,1.61-5.95,3.29-9,5.03
		c2.46-1.2,5.02-2.45,7.48-3.66c-3.55,2.01-7.06,3.97-10.82,6.47c0.52-0.09,1.16-0.19,1.69-0.28c-11.69,6.42-27,15.43-34.46,22.53
		c1.64,1.92,3.2,3.74,4.73,5.53c1.3-0.48,2.78-1.08,4.39-1.8l1.88-0.81c-1.89,1.26-3.68,2.51-5.32,3.73
		c-0.32-0.37-0.64-0.74-0.96-1.12c-0.49,0.18-0.95,0.34-1.39,0.49c0.45,0.48,0.87,0.93,1.32,1.4c-0.12,0.09-0.26,0.19-0.38,0.28
		c1.03,1.06,2.02,2.08,3.02,3.11l-0.83,0.62c-0.03,0.03-0.07,0.06-0.07,0.07c0.52,0.49,0.99,0.93,1.47,1.38
		c0.01,0,0.02-0.01,0.02-0.01l1-0.42c0.14,0.15,0.29,0.3,0.43,0.44c0.1-0.06,0.21-0.12,0.31-0.17c0.37,0.4,0.74,0.79,1.11,1.18
		c-0.1,0.05-0.19,0.1-0.29,0.16c-0.38-0.39-0.75-0.77-1.13-1.16c-0.32,0.17-0.62,0.33-0.92,0.49c-0.17-0.16-0.36-0.34-0.53-0.5
		c-0.25,0.1-0.48,0.18-0.6,0.19c0.22,0.2,0.42,0.37,0.64,0.57c-0.08,0.04-0.17,0.09-0.25,0.13c0.19,0.16,0.37,0.32,0.55,0.48
		l-0.23,0.1c0.15,0.13,0.3,0.26,0.45,0.38c0.06-0.05,0.12-0.1,0.17-0.14c0.11,0.1,0.22,0.2,0.34,0.29c-0.07,0.04-0.13,0.07-0.2,0.11
		c-0.1-0.09-0.2-0.17-0.3-0.26c-0.05,0.05-0.1,0.09-0.16,0.14c0.09,0.07,0.19,0.15,0.27,0.23c-0.04,0.02-0.07,0.04-0.11,0.06
		l0.01,0.01l0.13-0.05c0.1,0.08,0.2,0.17,0.3,0.25h-0.18c0.93,0.76,3.16,2.59,6.39,5.25c0.02-0.01,0.05-0.02,0.07-0.03
		c2.78,2.32,5.71,4.76,8.66,7.21c-2.85-2.43-5.7-4.85-8.54-7.26c0.04-0.02,0.08-0.04,0.12-0.05c2.84,2.47,5.63,4.89,8.42,7.31
		c-2.49-2.57-5-5.14-7.52-7.75c0.05-0.03,0.11-0.06,0.16-0.09c2.47,2.63,4.92,5.24,7.36,7.83c-2.28-2.67-4.57-5.34-6.91-8.07
		c3.45-1.84,3.86-2.06,8.58-4.57c0,0,1.14-0.58,3.1-1.58c1.63-0.47,2-0.56,3.25-0.85c0,0,0.01,0,0.03-0.01
		c-0.95,0.59-1.85,1.22-2.57,1.79c-2.08,1.67-2.07,2.41,0.07,1.65c-1.61,2.99,0.69,3.46,4.69,2.85c-0.68,1.07-0.81,1.87-0.36,2.33
		c-3,3.52-4.56,6.29-4.7,8.34l0.29,1.55c1.73,0.42,5.53-0.48,10.78-2.56l1.63-0.56l-0.74,1.85c7.97-0.64,21.09-6.59,30.23-8.97
		l6.47-2.39c2.44-0.76,5.24-2.26,8.45-4.08c3.21-1.84,6.78-4.08,10.54-6.63l7.94-5.42c1.65-1.17,3.17-2.48,4.74-3.78
		c-1.67,1.95-3.17,3.7-4.48,5.22c-1.26,1.53-2.24,2.89-2.9,4.04c-1.32,2.3-1.39,3.78,0.08,4.14c1.24,0.28,3.42-0.25,6.32-1.45
		c1.44-0.61,3.11-1.33,4.82-2.32c1.71-0.99,3.57-2.15,5.53-3.44c3.93-2.59,8.31-5.73,12.9-9.28c2.28-1.79,4.66-3.63,6.97-5.63
		c2.26-2.07,4.54-4.22,6.8-6.43c3.07-2.9,6.14-5.79,9.2-8.68c3.03-2.92,6.19-5.7,9.02-8.79c5.78-6.07,11.55-12.12,17.3-18.17
		c1.47-1.49,2.82-3.07,4.17-4.66l4.07-4.75l8.11-9.5c5.53-6.23,10.48-12.93,15.55-19.55c20.18-26.51,38.46-54.77,53.8-85.61
		c1.45-2.84,2.98-5.61,4.33-8.45c1.31-2.87,2.61-5.72,3.9-8.56c2.57-5.68,5.12-11.3,7.66-16.89c2.46-5.62,4.53-11.37,6.79-17
		c1.11-2.82,2.21-5.64,3.31-8.46c1.07-2.83,2.28-5.59,3.18-8.48l5.76-17.16l2.49-7.21c0.9-2.41,1.56-5.02,2.33-7.54
		c1.48-5.08,2.6-10.04,3.93-15.06c5.1-20.05,10.51-40.01,15.26-60.89c1.25-5.78,2.49-11.54,3.72-17.26
		c0.61-2.83,1.21-5.64,1.81-8.44c0.27-1.36,0.65-2.86,0.83-4.08c0.13-1.15,0.26-2.29,0.39-3.43c-17.74,5.85-35.35,11.65-52.88,17.43
		C658.82,596.97,654.52,598.38,650.23,599.79z M392.77,978.19c0.03,0.02,0.05,0.05,0.08,0.07c-0.08,0.03-0.14,0.06-0.22,0.09
		c-0.03-0.02-0.06-0.05-0.09-0.08L392.77,978.19z M392.72,978.42c0.09,0.02,0.24,0.06,0.45,0.11c0.03,0.03,0.06,0.05,0.09,0.08
		h-0.32C392.86,978.55,392.79,978.48,392.72,978.42z M394.5,977.59c-0.01-0.01-0.01-0.01-0.02-0.02l0.32-0.12
		c0,0,0.01,0.01,0.01,0.01C394.73,977.49,394.63,977.54,394.5,977.59z M404.76,975.75c0.54-0.22,0.99-0.34,1.72-0.54
		C406.48,975.21,406.47,975.21,404.76,975.75z M425.96,989.98l-0.47,0.1l2.77-5.95L425.96,989.98z M426.17,957.59l-0.03,0.01
		c0,0-0.01,0.01-0.46,0.4c-0.72,0.61-1.36,1.14-2.27,1.9c0,0,0.02,0.01,0.03,0.04c-0.18,0.16-0.37,0.32-0.57,0.5
		c-0.98,0.61-1.97,1.23-2.96,1.85c-1.12,0.69-2.11,1.49-2.55,2c-0.45,0.14-0.96,0.24-1.57,0.44c-5.85,3.16-5.85,3.16-11.85,6.4
		c0,0,0.09,0.12,0.38,0.19c-0.22,0.15-2.09,1.45-4.41,2.73c-1.66,1.01-2.06,1.25-4.63,2.66c-0.35-0.41-0.7-0.81-1.05-1.23
		c0.24-0.14,0.47-0.26,0.71-0.4c1.88-1.09,3.63-2.2,5.19-3.27c2.9-1.52,5.82-3.05,8.74-4.58c2.5-1.31,4.99-2.62,7.46-3.92
		c2.4-1.41,4.79-2.82,7.14-4.2c1.51-0.84,3.18-2.11,3.76-2.87c0.47-0.68-0.34-0.56-1.89,0.32c-3.85,2.03-7.53,4.14-11.34,5.95
		c-1.71,0.78-3.4,1.55-5.1,2.32c-0.39,0.32-0.77,0.64-1.17,0.96c0.12-0.2,0.32-0.43,0.53-0.67c-0.5,0.23-1,0.46-1.5,0.68
		c0.34-0.27,0.65-0.52,1-0.79c0.41-0.21,0.81-0.41,1.22-0.61c0.57-0.54,1.26-1.12,2.06-1.75c0.94-0.5,1.88-1.01,2.82-1.51
		c1.71-0.92,3.31-1.99,4.97-2.96c6.57-3.98,13.09-7.83,19.47-11.36c0.52-0.28,0.04,0.74,1.06,0.31c0.52-0.21,1-0.49,1.53-0.76
		c-1.49,1.03-3.21,1.92-4.94,3.03C429.98,954.39,427.73,956.28,426.17,957.59z M442.61,959.93c-0.68,0.2-1.51,0.43-2.55,0.73
		c0,0,1.08-0.31,2.58-0.74C442.62,959.92,442.61,959.93,442.61,959.93z M492.06,909.59c-0.75,0.79-2.34,2.2-1.15,1.79
		c-3.25,3.01-6.79,5.75-10.3,8.58c-3.49,2.85-7.03,5.73-10.6,8.64c-2.66,2.17-5.15,4.48-7.69,6.5c-3.5,1.42-7.13,2.99-11.51,5.34
		c3.46-2.24,7.1-4.74,10.77-7.28c1.87-1.23,3.63-2.62,5.38-4c1.76-1.37,3.51-2.72,5.22-4.05c3.81-2.94,7.59-5.85,11.36-8.74
		l2.82-2.18l2.69-2.31l5.36-4.64C493.62,908.01,492.84,908.79,492.06,909.59z M502.28,888.57c-1.69,1.44-3.43,2.82-5.15,4.24
		l1.1-0.62c-3.21,2.83-6.42,5.66-9.62,8.49l-4.8,4.22c-1.6,1.4-3.17,2.83-4.87,4.1c-6.57,4.71-13.33,9.75-20.12,15.03
		c-3.67,2.59-7.37,5.22-11.06,7.89c2.82-2.62,5.45-5.14,7.83-7.57c0.33-0.22,0.67-0.44,1-0.66c1.94-1.33,3.78-2.77,5.67-4.14
		c3.77-2.77,7.52-5.52,11.28-8.29c1.88-1.39,3.77-2.79,5.66-4.2c1.87-1.44,3.63-3.01,5.46-4.54c3.63-3.09,7.29-6.26,10.98-9.57
		c0.93-0.73,1.84-1.44,2.76-2.16c1.44-0.91,2.98-1.73,4.37-2.72L502.28,888.57z M609.04,657.57c3.87-0.8,7.73-1.59,11.59-2.38
		c3.17-0.68,6.27-1.42,9.34-2.17c-1.07,0.7-1.78,1.35-2.01,1.93c-0.06,0.14-0.05,0.27-0.04,0.4c-2.52,0.62-5.04,1.23-7.58,1.86
		c-3.03,0.7-6.08,1.39-9.16,2.1c-22.33,5.06-44.47,9.34-66.5,12.97c-11.02,1.79-22,3.46-32.98,4.89c-4.24,0.56-8.47,1.13-12.7,1.69
		l-4.32,0.58l-1.96,0.26l-0.97,0.13l-0.48,0.06c-0.17,0.01-0.34,0.02-0.35,0.24l-1.26,4.13l-1.41,3.96
		c-0.12,0.32-0.22,0.65-0.36,0.97l-0.1,0.24c-0.05,0.11,0.06-0.1,0.11-0.19l-0.11,0.24l-0.49,1.07l-1.95,4.27
		c-1.24,2.88-2.78,5.6-4.2,8.39c-2.37,4.47-4.93,8.82-7.62,13.1c-1.74-0.79-3.5-1.5-5.3-2.11c3.68-5.71,7.09-11.59,10.17-17.64
		c1.45-2.26,2.62-4.67,3.93-7.01l0.96-1.77l0.24-0.44l0.06-0.11c0.01-0.01-0.02,0.05-0.03,0.07c-0.05,0.1-0.01,0.03,0.02-0.01
		l0.29-0.49l1.03-1.98c1.42-2.59,2.57-5.2,3.71-7.75c0.02-0.25,0.27-0.21,0.49-0.21l0.64-0.01l1.27-0.02l2.52-0.04l2.5-0.05
		c0.94-0.04,1.89-0.08,2.84-0.13c0.94-0.05,1.89-0.09,2.84-0.14c1-0.06,2-0.12,3.01-0.18c2.98-0.27,5.98-0.54,9.03-0.81
		C547.34,672.15,578.48,665.62,609.04,657.57z M471.45,719.61c-0.64-0.28-1.28-0.57-1.91-0.86c-1.13-0.48-2.24-0.97-3.35-1.5
		c0.42-0.63,0.85-1.25,1.27-1.88c1.63,0.95,3.27,1.86,4.92,2.77C472.06,718.63,471.76,719.13,471.45,719.61z M476.35,720.33
		c3.76,2.1,7.47,4.29,10.91,6.96c-3.64-1.65-7.22-3.5-10.95-5.42c-0.25-0.12-0.5-0.23-0.75-0.35
		C475.82,721.12,476.09,720.73,476.35,720.33z M454.53,715.07c0.45,0.38,0.89,0.78,1.34,1.16c-0.5,0.7-1.02,1.39-1.53,2.08
		c-0.65-0.06-1.26,0.11-1.64,0.59c-0.36,0.5-0.35,1.15-0.1,1.75c-0.6,0.78-1.22,1.55-1.83,2.32c-0.54-0.36-1.08-0.71-1.63-1.07
		C450.99,719.67,452.79,717.39,454.53,715.07z M451.72,723.02c-0.1,0.01-0.17,0.06-0.22,0.13c0.3-0.38,0.59-0.78,0.88-1.17
		c0.04,0.06,0.09,0.11,0.15,0.14c-0.24,0.31-0.48,0.62-0.73,0.93C451.78,723.05,451.75,723.02,451.72,723.02z M452.98,721.56
		l-0.21-0.07c0,0-0.01,0-0.02,0c0.07-0.09,0.13-0.17,0.19-0.26c0.05,0.06,0.1,0.12,0.16,0.17
		C453.06,721.46,453.02,721.51,452.98,721.56z M453,724.05c0.09,0.06,0.19,0.09,0.29,0.08c0.22-0.02,0.33-0.18,0.27-0.4
		c-0.02-0.08-0.08-0.14-0.15-0.2l0.73-0.92l0.6,0.17c1.05,0.86,2.13,1.67,3.2,2.51c-0.36,0.49-0.74,0.98-1.1,1.47
		c-1.34-0.83-2.68-1.65-4.01-2.49L453,724.05z M459.05,721.02c0.39-0.09,0.9-0.33,1.5-0.74c0.19,0.17,0.39,0.35,0.58,0.52
		c-0.25,0.37-0.51,0.73-0.77,1.1C459.92,721.6,459.48,721.32,459.05,721.02z M462.73,722.24c1.21,1.08,2.42,2.15,3.62,3.24
		l-1.17-0.31l-0.99-0.54c-0.7-0.5-1.4-0.99-2.09-1.49C462.31,722.84,462.52,722.54,462.73,722.24z M459.57,716.12
		c-0.1-0.05-0.2-0.1-0.3-0.15l1.12-1.58C460.09,715,459.82,715.57,459.57,716.12z M458.55,718.55c-0.29,0.82-0.43,1.45-0.39,1.89
		c-0.5-0.34-1-0.67-1.52-1l1.19-1.52C458.07,718.13,458.31,718.34,458.55,718.55z M455.3,718.61c-0.1-0.05-0.19-0.11-0.28-0.15
		c0.45-0.61,0.91-1.2,1.35-1.81c0.08,0.07,0.16,0.14,0.24,0.21C456.16,717.44,455.74,718.03,455.3,718.61z M451.49,723.17
		c-0.04,0.07-0.05,0.16-0.03,0.25l0.01,0.02c-0.04-0.03-0.09-0.06-0.13-0.08C451.39,723.29,451.44,723.23,451.49,723.17z
		 M451.09,723.98c-0.05,0.06-0.1,0.12-0.15,0.19c-1.73,1.99-2.93,3.88-2.63,4.22c0.26,0.34,1.95-1.11,3.81-3.22l0.28-0.36
		c1.33,0.85,2.66,1.7,4,2.53c-0.05,0.07-0.1,0.13-0.15,0.2c-0.21-0.16-0.43-0.33-0.64-0.5c-0.41-0.32-0.95-0.31-1.23,0.05
		c-0.26,0.33-0.11,0.85,0.3,1.2l0.63,0.5c-0.95,1.25-1.91,2.48-2.88,3.7c-2.14-0.99-4.31-1.86-6.49-2.64
		c1.7-1.96,3.35-3.96,4.96-5.99C450.97,723.9,451.03,723.94,451.09,723.98z M458.15,728.42c1.64,1,3.3,1.99,4.96,2.97
		c-0.25,0.33-0.49,0.66-0.75,0.99c-1.49-1.22-2.99-2.42-4.51-3.59C457.95,728.66,458.05,728.54,458.15,728.42z M467.07,733.71
		c2.15,1.24,4.3,2.48,6.48,3.7c0.53,0.41,1.06,0.83,1.58,1.26l-0.01,0.01c-0.35,0.73-0.46,1.54-0.37,2.36
		c-1.74-1.31-3.52-2.53-5.31-3.75c-1.12-0.77-2.28-1.51-3.42-2.25C466.36,734.59,466.72,734.16,467.07,733.71z M470,734.65
		c-0.85-0.49-1.69-1-2.53-1.49c0.07-0.1,0.14-0.2,0.21-0.29C468.45,733.46,469.23,734.05,470,734.65z M463.52,730.84
		c-1.66-0.98-3.31-1.98-4.95-2.98c0.33-0.42,0.64-0.86,0.97-1.28c1.51,1.18,3.01,2.37,4.53,3.53
		C463.89,730.35,463.71,730.6,463.52,730.84z M464.93,719.12c0.28-0.4,0.55-0.82,0.82-1.22c1.7,0.89,3.43,1.69,5.16,2.48
		c-0.37,0.57-0.77,1.12-1.15,1.68C468.17,721.05,466.56,720.08,464.93,719.12z M503.75,663.85c2.86-0.43,5.72-0.86,8.57-1.29
		c3.26-0.36,6.52-0.83,9.8-1.25l0.01,0.01c1.13,0.64,3.38,1.06,6.39,1.23c-4.21,0.6-8.43,1.21-12.63,1.81L503.25,666l-10.87,1.29
		l-5.17,0.55l-2.57,0.28l-1.28,0.14l-0.64,0.07c-0.1,0.01-0.22,0.02-0.31,0.04l-0.1,0.31c-1.18,3.42-2.18,6.88-3.56,10.16
		c-0.73,1.65-1.38,3.34-2.18,4.96l-2.95,5.99c-0.96,2.08-2.18,4.03-3.27,6.04c-1.14,1.99-2.19,4.03-3.45,5.94
		c-2.78,4.64-5.84,9.09-9.05,13.44c-0.1-0.05-0.2-0.1-0.3-0.15c3.63-5.18,6.99-10.53,10.05-16.03l4.41-8.45l3.78-8.32l2.86-7.43
		l2.49-7.71c0.01-0.42,0.38-0.37,0.69-0.41l0.92-0.11l1.85-0.22l3.71-0.45c2.46-0.29,5.01-0.62,7.6-0.99
		C498.52,664.58,501.14,664.22,503.75,663.85z M473.65,683.23c1.35-2.73,2.41-5.61,3.62-8.41c1.13-2.84,2.08-5.76,3.13-8.64
		l0.12-0.34c0.11-0.02,0.23-0.02,0.35-0.04l0.71-0.06l1.42-0.13l2.84-0.25l5.69-0.51c-1.85,0.22-3.7,0.45-5.57,0.67l-2.77,0.33
		l-1.39,0.16l-0.69,0.08l-0.35,0.04l-0.11,0.35c-1.08,3.2-1.97,6.43-3.18,9.52l-1.78,4.61c-0.57,1.57-1.22,2.9-2.06,4.77l-2.4,5.25
		l-2.68,5.12c-1.72,3.46-3.78,6.73-5.76,10.07c-1.85,3.04-3.81,6-5.86,8.92c-0.52-0.26-1.03-0.55-1.56-0.81
		c2.95-3.99,5.74-8.11,8.35-12.33C467.42,695.71,470.68,689.53,473.65,683.23z M444.47,718.77c7.94-9.3,14.99-19.4,20.91-30.19
		c-0.73,1.64-1.45,3.27-2.18,4.92c-0.81,1.59-1.61,3.19-2.54,4.71c-4.51,7.44-9.53,14.59-15,21.38
		C445.27,719.32,444.87,719.04,444.47,718.77z M450.34,723.51c-1.65,2.06-3.34,4.1-5.09,6.1c-0.66-0.23-1.32-0.5-1.98-0.71
		c-0.09-0.03-0.18-0.02-0.25,0c1.94-2.11,3.84-4.26,5.68-6.46C449.25,722.79,449.8,723.15,450.34,723.51z M438.06,734.11
		c1.63-1.63,3.21-3.31,4.78-5.01c-0.03,0.19,0.09,0.39,0.29,0.45c0.48,0.27,0.96,0.54,1.45,0.81c-1.41,1.6-2.86,3.17-4.32,4.72
		C439.52,734.76,438.79,734.44,438.06,734.11z M440.94,735.41c1.45-1.54,2.88-3.09,4.27-4.68c1.99,1.11,3.98,2.22,5.97,3.34
		c-1.23,1.51-2.48,3.01-3.75,4.48C445.27,737.46,443.11,736.41,440.94,735.41z M448.98,739.36c1.29-1.44,2.56-2.9,3.81-4.37
		c1.36,0.78,2.71,1.58,4.06,2.41c0.25,0.32,0.51,0.64,0.76,0.96c-1.08,1.31-2.14,2.63-3.25,3.92
		C452.58,741.27,450.79,740.3,448.98,739.36z M483.49,764.4c-0.09,0.09-0.16,0.2-0.22,0.3c-1.35-1.42-2.75-2.76-4.16-4.16
		c-6.49-6.36-13.54-11.57-20.88-16.03c0.74-0.86,1.48-1.71,2.21-2.58c0.13,0.15,0.24,0.31,0.37,0.47c1.33,1.69,2.74,3.33,4.34,4.91
		c4.62,4.65,9.93,7.93,15.19,11.42c1.45,1.73,2.95,3.38,4.45,5.02C484.3,763.83,483.84,764.04,483.49,764.4z M479.62,728.76
		c-1.98-1.45-3.99-2.86-6.03-4.24c0.5-0.74,0.99-1.5,1.48-2.25c4.88,2.23,9.68,4.62,13.98,8.38c0.31,0.27,0.62,0.56,0.91,0.85
		C486.46,730.53,483.06,729.59,479.62,728.76z M512.95,739.69c-0.59-0.6-1.44-0.75-1.94-0.32c-0.19,0.2-0.28,0.46-0.29,0.75
		c-2.69-1.66-5.51-3.09-8.37-4.45c-0.71-0.56-1.47-0.96-2.22-1.19c-2.24-2.71-4.61-5.33-6.97-8l-0.54-0.72
		c-0.79-0.87-1.9-1.3-2.81-1.09c-0.28,0.05-0.52,0.17-0.72,0.32c-3.78-2.29-7.58-4.62-11.48-6.67c0.4-0.65,0.78-1.33,1.18-1.99
		c10.46,4.72,20.6,10.38,29.62,18.12c1.06,0.89,2.01,1.83,2.96,2.77c0.06,0.14,0.15,0.29,0.27,0.42l2.26,2.9L512.95,739.69z
		 M529.86,823.62l0.05-1.52l0.09,0.13l0.64,1.36l0.04-0.4c1.07,1.53,2.13,3.06,3.15,4.62c1.1,2.61,2.57,5.15,4.34,7.46
		c-0.86-0.35-1.72-0.63-2.57-0.85c-1.73-3.41-3.14-6.94-5.46-10.04L529.86,823.62z M543.47,824.62c0.47,0.56,1,1.05,1.6,1.44
		c-0.19,1.22-0.32,2.46-0.17,3.75c-0.77-1.68-1.97-3.31-2.94-4.94c-1.07-1.8-2.14-3.56-3.24-5.28l0.57,0.44
		c0.2,0.13,0.46,0.5,0.68-0.03C541.05,821.57,542.21,823.1,543.47,824.62z M545.15,833.62c-0.05-0.13,0.53-0.37,0.53-0.69
		l-0.03-0.47c0.13,0.27,0.29,0.55,0.45,0.83c-0.24,0.29-0.48,0.57-0.72,0.86C545.31,833.97,545.22,833.8,545.15,833.62z
		 M643.76,653.8l-0.34,1.68c-0.82,3.18-1.64,6.34-2.46,9.49c-0.81,3.15-1.97,6.16-2.95,9.16c-1.04,3.02-1.93,5.83-3.23,8.77
		l-0.46,1.12l-0.85,2.2l-1.74,4.52l-3.48,9.02l3.43-10.18l1.71-5.08l0.89-2.79c0.97-3.01,1.52-5.99,2.23-8.82l0.95-4.18
		c0.26-1.37,0.44-2.73,0.64-4.04l0.53-3.81l0.22-1.8l0.1-0.87c-0.34,0.1-0.74,0.28-1.11,0.42c-0.91,0.36-1.81,0.72-2.71,1.08
		c-0.86,0.32-1.77,0.94-2.08,1.38c-0.26,0.44,0.09,0.59,0.87,0.29l1.89-0.67l0.68-0.24l0.17-0.06c0.03-0.01,0.06-0.02,0.08-0.02
		l-0.01,0.07l-0.05,0.3l-0.22,1.21l-0.46,2.46l-0.98,5.1c-0.87,3.41-1.77,6.95-2.79,10.55l-0.96,2.88l-2.45,7.05l-2.49,7.16
		l-1.24,3.58l-1.43,3.51l-5.76,14.03c-1.92,4.68-3.75,9.39-6.03,13.91c-1.98,2.25-4.23,5.25-6.64,8.79
		c-1.2,1.77-2.44,3.66-3.71,5.67c-1.29,1.99-2.49,4.15-3.98,6.25c-2.86,4.26-5.77,8.82-8.63,13.51c-1.43,2.34-2.84,4.71-4.23,7.09
		c-1.38,2.38-2.96,4.62-4.37,6.93c-0.86,1.35-1.68,2.69-2.49,4.03c-0.11-0.11-0.21-0.23-0.33-0.34
		c-9.03-9.52-17.74-18.63-28.32-27.57c-7.82-6.62-15.43-12.26-22.66-19.49c-8.11-5.73-16.5-10.76-25.45-15.26
		c-7.26-3.65-14.54-4.46-21.88-6.14c0.77-1.29,1.56-2.56,2.3-3.88c1.52-2.5,2.83-5.14,4.18-7.76c1.36-2.62,2.71-5.25,3.88-7.98
		l1.83-4.08l0.23-0.51l0.11-0.25l0.06-0.13c0.02-0.05-0.06,0.11-0.08,0.16c-0.12,0.22-0.07,0.11-0.06,0.1l0.03-0.09l0.06-0.17
		l0.22-0.71c0.3-0.97,0.61-1.95,0.92-2.94c0.31-1.2,0.62-2.39,0.91-3.46c0-0.23,0.22-0.17,0.35-0.22l0.46-0.08l0.93-0.16l1.87-0.33
		c1.57-0.26,3.12-0.51,4.67-0.77l2.53-0.41l4.69-0.67c3.28-0.47,6.56-0.95,9.83-1.42c13.1-1.96,26.2-4.23,40.03-6.88
		c18-3.47,35.3-7.11,52.42-11.11l4.66-1.09l2.94-0.73c1.96-0.5,3.92-0.99,5.89-1.49c3.92-1.01,7.84-2.09,11.79-3.25
		c1.41-0.25,2.81-0.6,4.43-1.14l1.32-0.45l0.9-0.3l0.22-0.08c0.08-0.03,0.18-0.08,0.12,0.03L643.76,653.8z"/>
	<path class="st0" d="M398.83,983.86l8.73,7.18C404.18,988.26,401.24,985.84,398.83,983.86L398.83,983.86z"/>
	<path class="st0" d="M409.04,990.36C409.04,990.36,409.04,990.36,409.04,990.36c-0.05-0.05-0.1-0.12-0.16-0.19
		C408.96,990.28,409.04,990.38,409.04,990.36z"/>
	<path class="st0" d="M408.85,990.14l0.02,0.02c-0.01-0.02-0.02-0.03-0.04-0.05C408.84,990.13,408.85,990.13,408.85,990.14z"/>
	<path class="st0" d="M481.11,773.02c0.14-0.13,0.14-0.36,0-0.53c-4.53-5.36-9.34-10.36-14.28-15.2c-0.17-0.16-0.4-0.18-0.54-0.04
		c-0.12,0.12-0.1,0.36,0.07,0.5c4.91,4.86,9.69,9.83,14.21,15.18C480.73,773.09,480.96,773.13,481.11,773.02z"/>
</g>
</svg>
