<?xml version="1.0" encoding="utf-8"?>
<!-- Generator: Adobe Illustrator 25.4.1, SVG Export Plug-In . SVG Version: 6.00 Build 0)  -->
<svg version="1.1" id="bg" xmlns="http://www.w3.org/2000/svg" xmlns:xlink="http://www.w3.org/1999/xlink" x="0px" y="0px"
	 viewBox="0 0 1122 1080" style="enable-background:new 0 0 1122 1080;" xml:space="preserve">
<style type="text/css">
	.st0{fill:#1E2329;}
</style>
<g>
	<path class="st0" d="M141.64,340.79c0.36-0.27,0.3-0.53-0.14-0.63c-0.38-0.09-1.01,0.01-1.37,0.28c-0.3,0.23-0.23,0.54,0.14,0.63
		C140.71,341.17,141.33,341.02,141.64,340.79z"/>
	<path class="st0" d="M375.08,181.21c0.05,0.5,0.09,1,0.14,1.49c0.09-0.38,0.19-0.76,0.28-1.15c-0.07-0.34-0.14-0.66-0.24-0.94
		C375.2,180.82,375.14,181.01,375.08,181.21z"/>
	<path class="st0" d="M374.11,162.74c0.5-1.54,1.01-3.02,1.19-5.28c-0.12-0.56-0.19-0.85-0.22-1c-0.29,0.81-0.67,1.91-1.06,3.01
		C373.26,161.62,373.52,162.8,374.11,162.74z"/>
	<path class="st0" d="M375.08,156.46c0.27-0.75,0.44-1.25,0.44-1.25c-0.17,0.28-0.33,0.56-0.49,0.82c0,0.25,0,0.26,0,0.26
		S375.04,156.29,375.08,156.46z"/>
	<path class="st0" d="M271.16,569.88c-0.22-0.15-0.71,0.41-1.14,1.27c-13.22,27.47-27.46,55.23-43.94,82.1
		c-0.55,0.9-0.84,1.76-0.64,1.94c0.17,0.16,0.79-0.43,1.28-1.27c16.55-26.91,30.77-54.55,44-82.04
		C271.15,570.95,271.33,570.1,271.16,569.88z"/>
	<path class="st0" d="M117.07,746.9c0.7-0.32,1.59-1.07,1.97-1.58c0.45-0.61,0.26-0.8-0.45-0.47c-0.6,0.28-1.52,0.98-1.96,1.58
		C116.25,746.94,116.47,747.18,117.07,746.9z"/>
	<path class="st0" d="M433.38,745.64c-2.59,7.22-5.18,14.44-7.77,21.68c-2.66,7.2-5.33,14.41-7.99,21.62l-8.23,21.54l-4.55,11.58
		c-2.22,5.74-4.46,11.42-6.73,17.02c-0.6,1.51-0.95,2.89-0.77,3.13c0.16,0.22,0.83-0.82,1.37-2.24c2.3-5.66,4.57-11.39,6.81-17.19
		l4.62-11.73c2.75-7.17,5.49-14.34,8.23-21.51l7.99-21.58l7.77-21.66c0.32-0.98,0.4-1.85,0.21-2.06
		C434.13,744.11,433.7,744.73,433.38,745.64z"/>
	<path class="st0" d="M277.3,817.66c-0.23-0.65-0.88-1.67-1.44-2.21c-0.45-0.48-0.72-0.3-0.53,0.38c0.26,0.77,0.96,1.77,1.44,2.22
		C277.36,818.59,277.57,818.42,277.3,817.66z"/>
	<path class="st0" d="M486.65,555.15c-0.79,3.1-1.56,6.13-2.35,9.23c1.72-9.28,2.03-17.41,2.31-25.43c0.18-0.67,0.36-1.34,0.53-2.07
		c1.4-4.4,2.7-9.03,3.85-14.91c0.57-2.88,1.07-6.01,1.45-9.4l0.14-1.28l0.07-0.65l0.06-0.79l0.21-3.2c0.09-2.14,0.17-4.29,0.12-6.44
		c-0.09-8.6-1.38-17.29-4.12-25.48c-2.74-8.19-6.76-15.89-11.74-22.74c0,0.89,0.09,1.9,0.06,2.77c-3.4-5.11-4.98-8.56-9.79-13.51
		c1.17,1.58,2.13,3.14,3.13,4.8c-0.09-0.1-0.18-0.21-0.27-0.31c-1.06-1.49-2.3-2.96-3.68-4.41c-0.79-0.84-1.62-1.7-2.47-2.54
		c0.12-0.08,0.24-0.15,0.35-0.23c2.19-1.46,4.38-2.92,6.57-4.38c2.19-1.47,4.39-2.94,6.46-4.62c4.18-3.28,8.41-6.6,12.74-10
		c6.25-4.67,11.6-9.71,17.14-14.44c2.76-2.37,5.52-4.75,8.32-7.16c2.73-2.5,5.41-5.15,8.23-7.8c3.29-3.12,6.57-6.12,9.85-9.04
		c1.67-1.42,3.21-2.97,4.77-4.49c1.57-1.51,3.13-3.01,4.69-4.52c3.15-2.97,6.29-5.93,9.45-8.91c1.62-1.45,3.13-3.01,4.63-4.61
		c1.51-1.58,3.02-3.17,4.55-4.77c0.86-0.72,1.69-1.48,2.48-2.28c2.42-0.38,4.84-0.79,7.27-1.21c-1.22,1.57-2.47,3.12-3.67,4.71
		c-0.74,0.89-0.93,1.77-0.5,2.02c0.49,0.19,1.47-0.33,2.21-1.22l5.27-6.09c6.21-1.12,12.48-2.32,18.92-3.54
		c7.74-1.45,15-2.82,22.26-4.19c7.27-1.31,14.54-2.63,22.3-4.03c9.08-1.61,17.88-2.81,26.63-3.98c8.77-1.09,17.48-2.18,26.43-3.29
		c1.78-0.03,3.56-0.13,5.33-0.44c1.79-0.31,3.57-0.61,5.35-0.91c7.02-0.79,13.96-1.6,20.89-2.23c6.93-0.62,13.82-1.23,20.7-1.84
		c-8.1,1.63-16.18,3.25-24.25,4.87c-8.05,1.71-16.07,3.44-24.01,5.32c-1.15,0.22-1.86,0.79-1.67,1.25c0.27,0.46,1.36,0.67,2.51,0.44
		c22.35-3.89,44.75-7.79,67.12-11.68c6.78,3.25,20.18,3.75,31.78,1.9c4.29-0.66,8.17-1.82,12.04-3.21
		c-1.89,0.15-3.74,0.29-5.63,0.43c5.47-1.1,9.97-3,14.4-4.95c0.41-0.02,0.83-0.03,1.26-0.08c11.15,0.36,23.64-2.31,35.41-3.6
		c-0.37-0.49-0.74-0.99-1.1-1.47c2.22,0,3.66,0.74,6.07,0.58c-0.73-0.28-1.43-0.54-2.16-0.82l0.14-0.01
		c2.68,0.39,5.78,0.2,8.93-0.38c7.62,1.11,16.62,0.8,25.87-0.41c1.31,0.41,3.17,0.5,5.26,0.16c0.92,0.03,1.97-0.06,2.66,0.09
		c6.22,1.42,13.53,1.73,21.46,1.44c-1.58-0.17-3.22-0.36-4.81-0.53c2.3-0.06,4.57-0.1,7.03-0.61c-0.34-0.24-0.71-0.51-1.05-0.76
		c8.09,0.61,18.31-2.6,22.8-7c4.51-4.43,1.63-8.45-6.43-9l-1.17-0.1c3.74-1.37,6.86-3.19,8.33-5.48c0.78-1.25-0.41-2.35-0.9-3.49
		c-0.09-1.79-3.47-2.62-7.51-1.83c-1.1,0.21-2.12,0.53-3.04,0.9c-4.78,0.41-9.64,0.98-14.31,1.22c-0.93,0-1.99,0.4-2.37,0.91
		c-0.31,0.48,0.17,0.87,1.14,0.85c3.43,0.1,6.77,0.24,10.1,0.39c0.24-0.16,0.47-0.32,0.71-0.48c-0.08,0.17-0.2,0.34-0.33,0.5
		c0.3,0.01,0.6,0.03,0.9,0.04c-0.21,0.13-0.4,0.26-0.61,0.38c-0.25,0.01-0.49,0.02-0.73,0.03c-0.35,0.32-0.76,0.62-1.25,0.9
		c-5.77,0.67-11.5,1.23-17,1.19c-0.32-0.01,0.02-0.89-0.6-1.05c-0.31-0.08-0.63-0.14-0.96-0.21c0.98-0.03,2.01-0.11,3.1-0.23
		c3.8-1.96,5.23-2.7,6.22-3.22l0.02,0.01c0,0,0.01-0.01,0.29-0.17c0.46-0.24,0.86-0.44,1.44-0.74c0,0-0.01-0.03-0.02-0.07
		c0.11-0.07,0.23-0.14,0.36-0.21l1.84-0.25c0.69-0.08,1.32-0.37,1.6-0.69c0.28,0.14,0.57,0.28,0.94,0.4
		c3.52-0.42,3.52-0.42,7.13-0.86c0,0-0.05-0.19-0.23-0.44c0.14-0.05,1.26-0.53,2.66-0.73c1.31-0.33,1.31-0.33,4.69-0.75
		c0,0,0,0-1.77-0.41c0,0,0,0,1.52,0.22c0,0,0,0-0.57-0.8c0,0,0,0,0.86,0.82c0,0,0,0,0.43-0.86c0,0,0.01,0.01,3.25,1.47
		c0.21-0.09,0.69-0.32,1.92-0.88c0,0,0.31-0.28,0.52-0.58c-0.03-0.26-0.03-0.26,0.86-1.41c0,0-0.04-0.3-0.22-0.59
		c-0.41-0.21-0.41-0.21-0.68-1c0,0-0.45-0.23-1.07-0.37c-0.57-0.04-0.71-0.04-2.79-0.1c0.14-0.17,0.27-0.36,0.38-0.54
		c0.04-1.59,0.03-1.59-3.22-4.52c0,0-1.59-0.64-3.95-0.83c-2.64,0.27-2.64,0.27-5.69,0.57c0,0-0.67,0.04-1.83,0.1
		c-0.96-0.38-1.17-0.49-1.9-0.86l-0.02,0c0.56-0.16,1.09-0.39,1.51-0.66c1.23-0.79,1.22-1.68-0.03-2.01
		c0.95-2.64-0.4-4.54-2.71-6.12c0.4-0.89,0.47-1.76,0.21-2.57c1.73-2.46,2.61-4.87,2.67-7.23l-0.18-2.01
		c-1-1.51-3.16-2.63-6.12-3.21l-0.92-0.28l0.41-1.78c-4.41-3.5-11.98-5.4-17.08-8.61l-3.63-1.48c-2.67-1.25-6.59-1.75-10.98-1.45
		l-4.63,0.35c-0.95,0.18-1.9,0.36-2.86,0.54c4.38-3.01,6.37-6.55,4.84-9.47c-2.59-4.77-13.97-6.22-25.42-3.17
		c-30.93,6.45-60.86,12.3-92.4,19.7c-23.34,5.51-44.55,10.72-67.83,13.99c-21.28,5.04-41.78,10.52-62.57,16.17
		c0.81-1.82,1.53-3.66,2.2-5.52c-1.09,1.56-2.16,3.07-3.25,4.63c2.62-4.93,4.04-9.58,5.26-14.22c0.23-0.34,0.46-0.68,0.69-1.06
		c3.47-4.32,6.52-9.42,9.46-14.7c1.44-2.66,2.98-5.29,4.29-8.03c1.3-2.74,2.62-5.46,4-8.09c-0.61,0.03-1.23,0.06-1.83,0.1
		c1.23-1.85,2.64-2.64,3.85-4.74c-0.64,0.46-1.24,0.9-1.88,1.36l0.07-0.13c1.81-2.02,3.37-4.73,4.64-7.68
		c5.04-5.84,9.49-13.8,13.09-22.55c1.04-0.94,2.09-2.54,2.88-4.58c0.52-0.79,0.92-1.78,1.37-2.33c4.16-4.9,7.89-11.43,11.35-18.88
		c-0.9,1.37-1.83,2.8-2.73,4.17c1.02-2.13,2.06-4.24,2.76-6.74c-0.37,0.2-0.79,0.43-1.17,0.63c0.54-0.89,1.05-1.85,1.52-2.84
		c0.43-1,0.79-2.06,1.12-3.14c0.65-2.16,1.13-4.41,1.42-6.63c0.58-4.43,0.4-8.7-0.68-11.71c-2.16-6.04-7.05-4.85-10.88,2.31
		l-0.57,1.02c0.29-3.99-0.09-7.59-1.57-9.82c-0.83-1.2-2.32-0.54-3.56-0.54c-1.68-0.61-3.82,2.11-4.76,6.06
		c-0.25,1.07-0.39,2.11-0.42,3.09c-1.59,4.46-3.06,9.02-4.77,13.28c-0.43,0.82-0.55,1.91-0.27,2.46c0.29,0.49,0.86,0.23,1.28-0.62
		c1.61-2.97,3.09-5.9,4.59-8.82c-0.05-0.28-0.09-0.56-0.14-0.84c0.12,0.14,0.22,0.32,0.32,0.51c0.14-0.27,0.28-0.53,0.41-0.8
		c0.03,0.24,0.07,0.46,0.09,0.7c-0.09,0.23-0.18,0.45-0.27,0.68c0.14,0.44,0.25,0.94,0.31,1.5c-0.49,1.53-0.99,3.07-1.5,4.57
		c-1.36,3.87-3.13,7.54-4.92,11c-0.15,0.28-0.78-0.42-1.21,0.05c-0.21,0.24-0.42,0.48-0.63,0.74c0.42-0.87,0.82-1.8,1.21-2.81
		c-0.02-4.18-0.02-5.76-0.02-6.85l0.02-0.01c0,0,0-0.01-0.02-0.33c-0.01-0.5-0.01-0.94-0.02-1.58c0,0-0.03-0.01-0.07-0.01
		c-0.01-0.13-0.03-0.27-0.04-0.41l0.52-1.74c0.21-0.65,0.2-1.33,0.03-1.71c0.24-0.19,0.49-0.39,0.75-0.66
		c1.06-3.31,1.06-3.31,2.14-6.7c0,0-0.2-0.03-0.5,0.02c0.01-0.14,0.04-1.34,0.42-2.67c0.24-1.31,0.24-1.3,1.23-4.49
		c0,0,0,0-1.1,1.42c0,0,0,0,0.82-1.27c0,0,0,0-0.96,0.19c0,0,0,0,1.1-0.45c0,0,0,0-0.61-0.73c0,0,0.01-0.01,2.68-2.33
		c0-0.22-0.01-0.75-0.02-2.07c0,0-0.13-0.39-0.32-0.69c-0.25-0.07-0.25-0.08-0.94-1.31c0,0-0.29-0.08-0.63-0.02
		c-0.36,0.28-0.36,0.28-1.2,0.22c0,0-0.39,0.32-0.77,0.81c-0.26,0.49-0.33,0.62-1.23,2.45c-0.1-0.19-0.22-0.38-0.34-0.54
		c-1.44-0.65-1.44-0.63-5.45,1.08c0,0-1.23,1.14-2.36,3.13c-0.83,2.4-0.83,2.4-1.78,5.18c0,0-0.24,0.6-0.65,1.62
		c-0.73,0.67-0.92,0.82-1.55,1.29c0,0,0,0-0.01,0.01c0.08-0.55,0.09-1.1,0.01-1.58c-0.23-1.38-1.04-1.74-1.84-0.79
		c-2.03-1.9-4.3-1.49-6.67-0.19c-0.66-0.7-1.42-1.12-2.26-1.22c-1.56-2.45-3.41-4.14-5.54-5.12l-1.91-0.64
		c-1.77,0.24-3.66,1.57-5.35,3.75l-0.62,0.63l-1.47-1.05c-2.46,1.08-4.86,2.94-7.25,4.85c-2.36,1.91-5.03,3.8-7.52,5.1l-2.89,2.15
		c-2.27,1.51-4.38,4.24-5.97,7.68l-1.65,3.63c-0.25,0.79-0.47,1.59-0.78,2.37c-0.73-4.64-3.11-7.69-6.34-7.86
		c-1.34-0.06-2.72,0.38-4.06,1.2c-1.32,0.83-2.62,2.05-3.98,3.53c-2.63,2.98-4.87,7.13-6.12,11.87
		c-8.74,24.58-19.59,47.47-32.23,71.44c-2.38,4.44-4.71,8.77-7.01,13.05c-2.57,4.13-5.1,8.21-7.62,12.28l-3.86,6.09
		c-1.4,1.95-2.86,3.85-4.32,5.77c-2.93,3.83-5.95,7.65-9.13,11.47c-2.63,3.61-5.25,7.22-7.86,10.82c-0.58-0.31-1.35-0.66-2.3-0.97
		c-2.45-0.3-2.45-0.32-5.29-0.62c0,0-0.62-0.07-1.7-0.2c-0.82-0.53-1-0.67-1.62-1.16c0,0,0,0-0.01-0.01c0.54-0.07,1.07-0.2,1.51-0.4
		c1.26-0.58,1.41-1.46,0.3-1.99c1.33-2.45,0.4-4.55-1.54-6.49c0.52-0.82,0.75-1.66,0.64-2.51c2.08-2.18,3.39-4.32,3.9-6.62l0.21-2
		c-0.7-1.68-2.65-3.26-5.52-4.26l-0.88-0.43l0.73-1.7c-1.92-2.08-4.76-3.89-7.75-5.66c-3-1.79-6.13-3.51-8.58-5.32l-3.63-1.85
		c-2.65-1.49-6.83-2.48-11.5-2.48l-4.94,0.05c-1.03,0.12-2.04,0.24-3.08,0.36c4.87-2.75,7.38-6.13,6.02-9.16
		c-2.27-4.98-14.83-7.11-27.33-4.13c-16.74,3.13-32.57,6.72-47.94,10.6c-5.28,1.34-10.49,2.72-15.66,4.1
		c0.9-3.44,1.75-6.95,2.56-10.51c1.01-1.88,2.01-4.81,2.72-8.32c0.47-1.45,0.91-3.16,1.39-4.18c2.21-4.58,4.08-9.78,5.98-15.41
		c1.84-5.65,3.7-11.73,5.28-18.18c-0.83,2.45-1.75,5-2.65,7.44c1.04-3.7,1.97-7.37,2.56-11.59c-0.36,0.41-0.79,0.9-1.15,1.32
		c2.03-6.34,3.45-14.02,4.09-21.28c0.55-7.27,0.26-14.13-0.86-18.81c-2.27-9.41-7.17-6.67-10.95,5.99l-0.57,1.82
		c0.25-6.66-0.17-12.55-1.7-16c-0.85-1.85-2.34-0.47-3.6-0.23c-1.7-0.71-3.83,4.3-4.74,11.14c-0.25,1.89-0.38,3.71-0.41,5.39
		c-0.58,2.9-1.17,5.82-1.76,8.74c-1.05,4.93-2.11,9.84-3.25,14.58c-0.4,1.49-0.48,3.36-0.18,4.22c0.31,0.74,0.88,0.15,1.27-1.39
		c1.55-5.43,3.18-10.69,4.77-15.93c-0.04-0.45-0.08-0.89-0.12-1.34c0.12,0.2,0.21,0.47,0.3,0.75c0.15-0.48,0.29-0.96,0.43-1.44
		c0.03,0.4,0.07,0.79,0.09,1.2c-0.1,0.39-0.19,0.78-0.29,1.18c0.14,0.71,0.23,1.51,0.28,2.42c-0.54,2.67-1.08,5.33-1.62,7.97
		c-1.44,6.78-2.86,13.43-4.76,19.7c-0.16,0.51-0.8-0.48-1.24,0.43c-0.21,0.46-0.42,0.93-0.64,1.42c0.42-1.57,0.83-3.24,1.22-5.04
		c-0.05-7-0.21-9.66-0.23-11.48l0.02-0.03c0,0,0-0.02-0.03-0.55c-0.02-0.84-0.04-1.58-0.07-2.65c0,0-0.03,0-0.07,0
		c-0.01-0.21-0.02-0.44-0.04-0.68c0.19-1.01,0.38-2.03,0.57-3.05c0.23-1.15,0.24-2.29,0.07-2.88c0.25-0.38,0.5-0.78,0.78-1.29
		c1.15-5.81,1.24-5.8,2.27-11.78c0,0-0.2-0.01-0.5,0.15c0.01-0.24,0.02-2.27,0.4-4.6c0.23-2.26,0.23-2.26,1.2-7.85c0,0,0,0-1.1,2.63
		c0,0,0,0,0.82-2.32c0,0,0,0-0.97,0.52c0,0,0,0,1.11-0.99c0,0,0,0-0.62-1.11c0,0,0.01-0.02,2.68-4.49c0-0.37-0.01-1.26-0.04-3.49
		c0,0-0.13-0.63-0.33-1.1c-0.26-0.08-0.26-0.08-0.96-2.05c0,0-0.3-0.07-0.64,0.08c-0.36,0.54-0.36,0.54-1.21,0.6
		c0,0-0.39,0.61-0.77,1.53c-0.25,0.89-0.31,1.12-1.22,4.41c-0.1-0.31-0.22-0.6-0.34-0.86c-1.46-0.81-1.46-0.8-5.49,2.97
		c0,0-1.24,2.22-2.37,5.9c-0.82,4.33-0.82,4.33-1.77,9.32c0,0-0.24,1.08-0.66,2.95c-0.77,1.33-0.96,1.63-1.62,2.6
		c0,0,0,0.01-0.01,0.02c0.09-0.96,0.12-1.92,0.06-2.72c-0.21-2.33-1.06-2.75-1.86-0.92c-2.08-2.8-4.33-1.55-6.81,1.32
		c-0.65-1.05-1.41-1.6-2.27-1.58c-1.56-3.93-3.45-6.47-5.61-7.7l-1.94-0.68c-1.82,0.85-3.67,3.73-5.48,8.1l-0.66,1.31l-1.46-1.51
		c-5.14,5.24-10.17,16.16-15.27,22.56l-3,4.93c-2.36,3.55-4.6,9.38-6.33,16.34c0,0-0.45,1.84-0.9,3.68
		c-0.44,1.84-0.95,3.67-0.95,3.67c-0.3,1.56-0.6,3.11-0.9,4.68c-0.56-8.26-2.93-13.09-6.29-12.16c-2.75,0.82-5.81,5.45-8.56,12.23
		c-2.75,6.78-4.99,15.75-6.61,25.26c-1.91,9.99-3.95,19.88-6.05,29.72c-6.85,1.19-13.79,2.32-20.93,3.39
		c-10.65,1.54-21.25,3.08-31.93,4.63c-18.47,2.74-33.23,8.54-50.01,13.86c-0.49,0.14-0.52,0.44-0.25,0.64
		c0.4,0.2,1.09,0.19,1.53,0.03c26.8-5.2,53.45-7.47,79.95-8.39c3.01-0.13,5.97-0.18,8.9-0.19c0.33,0.08,0.68,0.13,1.07,0.14
		c2.66,0.21,5.27,0.31,7.92,0.44l-2.75,0.15c-1.82,0.03-3.36,0.75-3.47,1.64c0,0.37,0.27,0.71,0.7,0.98
		c-6.8,1.09-13.54,2.39-20.39,3.64c-2.03,0.1-3.91,0.41-5.56,0.86c-8.06-0.65-16.13-1.3-24.23-1.96l-2.03-0.27
		c-2.7-0.21-5.3,0.31-6.61,1.34c-0.42,0.31-0.68,0.64-0.8,0.97c-18.81,1.79-38.51,3.67-56.39,9.24c-0.9,0.26-1.35,0.7-1.15,1.09
		c-0.36-0.05-0.81-0.01-1.2,0.15c-2.08,1-4.44,1.77-6.94,2.51c-0.53,0.22-0.8,0.51-0.51,0.68c0.31,0.23,0.95,0.24,1.43,0.06
		c2.54-0.77,5.02-1.62,7.28-2.62c0.24-0.12,0.39-0.25,0.42-0.39c0.55,0.2,1.39,0.23,2.19,0.04c18.58-3.25,36.64-6.23,55.14-6.77
		c-9.06,1.6-18.35,2.71-28.17,4.34c-5.91,0.88-11.6,2.22-17.25,3.39c-5.67,1.4-11.32,2.55-17.24,3.92c-0.62,0.09-1,0.4-0.9,0.63
		c0.11,0.23,0.65,0.37,1.26,0.22c12.1-2.36,23.48-5.02,35.02-7.07c11.53-2.1,23.21-3.63,35.63-3.52c0.98,0.01,1.96,0.04,2.92,0.09
		c-7.68,2.01-15.25,4.12-22.77,6.28c-11.49,0.56-23.02,1.57-34.45,3.17c-11.44,1.69-22.76,4.18-33.73,7.5
		c-1.08,0.28-1.87,0.9-1.73,1.37c0.13,0.47,1.14,0.63,2.21,0.35c12.73-2.02,25.57-2.99,38.39-3.39l-2.63,0.84
		c-0.88,0.13-1.76,0.29-2.64,0.47c-8.18,0.84-16.34,1.96-24.39,3.74c-3.04,0.53-5.32,2.07-5.18,3.47c0.24,1.34,2.66,2,5.52,1.56
		l-1.33,0.51c-0.45,0.15-0.73,0.48-0.56,0.67c0.23,0.2,0.85,0.24,1.28,0.1c1.6-0.64,3.17-1.27,4.75-1.9
		c15.18-1.98,30.54-3.17,46.05-3.82c-16.66,1.98-33.26,4.29-49.47,7.75c0.3-0.23,0.28-0.52-0.15-0.62
		c-0.37-0.08-1.07,0.05-1.37,0.28c-0.35,0.26-0.23,0.54,0.15,0.63l0.04,0.01c-2.17,0.49-4.36,0.89-6.51,1.42l-6.44,1.66l-3.23,0.8
		l-3.17,0.97l-6.37,1.88c-0.5,0.13-0.85,0.47-0.76,0.72c0.1,0.25,0.62,0.31,1.16,0.13c27.78-8.82,57.29-12.56,86.9-15.99
		c1.61-0.03,3.23-0.06,4.86-0.09l0,0.02c0.51,1.05,1.58,1.98,3.03,2.74c-10.48,0.42-20.82,1.17-31.08,2.27
		c-4.27,0.24-8.55,0.44-12.8,0.76l-6.36,0.59c-2.13,0.17-4.24,0.4-6.34,0.72c-1.21,0.16-2.16,0.74-2.1,1.36
		c0.05,0.57,1.1,0.87,2.37,0.72c2.04-0.29,4.09-0.52,6.17-0.67c-1.62,0.89-2.6,2.03-2.58,3.18c0.02,1.11,0.99,2.03,2.48,2.67
		c-4.4,0.97-8.64,2.27-12.85,3.48c-2.04,0.73-4.08,1.45-6.11,2.18c-2.02,0.72-4.01,1.47-5.9,2.4c-0.45,0.2-0.64,0.5-0.42,0.7
		c0.22,0.19,0.73,0.2,1.17,0c11.52-3.32,23.47-5.92,35.88-7.63c2.48,0.18,4.96,0.35,7.43,0.52c2.5,0.22,5,0.45,7.53,0.67
		c5.03,0.37,10.26,0.87,15.71,1.04c15.96,0.63,31.38-0.44,47.07-1.83c5.13,0.35,10.27,0.57,15.43,0.66c-0.2,0.8-0.41,1.6-0.62,2.4
		c-4.66,0-9.29-0.05-13.98-0.13c-23.3-0.36-45.26-0.06-65.87,2.41c-5.19,0.53-10.17,1.4-15.19,2.17c-4.89,1-9.85,1.81-14.52,3.09
		c-9.52,2.23-18.46,5.26-26.91,8.78c-2.18,0.85-3.42,2.43-2.76,3.54c0.65,1.11,2.91,1.36,5.01,0.54c8.19-2.33,16.22-4.69,24.82-6.65
		c8.5-2.13,17.53-3.9,27.28-5.47c13.94-2.16,26.77-3.25,41.81-4.16c13.26-0.78,26.11-0.65,39.46-0.79
		c-0.49,1.92-0.99,3.85-1.48,5.77c-13.81-0.41-27.25-1.07-40.28-1.51c-0.58-0.02-1.07,0.16-1.1,0.43c-0.03,0.22,0.42,0.46,0.95,0.46
		c13.03,0.47,26.4,1.14,40.19,1.56c-3.65,14.09-7.46,28.27-11.43,42.68c-10.54,37.61-20.95,71.69-35.86,107.07
		c-1.52,4.34-3.04,8.66-4.55,12.97c-1.5,4.31-3.14,8.55-4.68,12.82c-1.55,4.27-3.09,8.52-4.63,12.77
		c-1.57,4.19-3.14,8.36-4.71,12.53c-6.33,16.6-12.88,32.86-19.98,48.89c-1.54,3.32-2.99,6.58-4.37,9.79
		c-0.68,1.61-1.35,3.2-2.01,4.78c-0.69,1.55-1.37,3.08-2.04,4.6c-1.33,3.05-2.6,6.07-3.84,9.08c-1.29,2.95-2.57,5.86-3.84,8.75
		c-4.98,11.67-10.29,22.68-16.79,34.1c-0.38,0.66-0.2,0.91,0.21,0.73c0.54-0.33,1.22-1.13,1.54-1.75
		c23.34-34.07,41.39-71.99,60.26-113.12c2.19-4.72,4.34-9.36,6.47-13.96c0.3-0.48,0.61-1.02,0.9-1.63c2.11-4.14,4.24-8.3,6.36-12.45
		c-0.65,1.49-1.29,2.97-1.94,4.46c-1.35,2.92-1.88,5.71-1.16,6.29c0.34,0.16,0.84-0.11,1.4-0.68c-1,2.82-1.99,5.63-2.97,8.43
		c-1,2.77-1.99,5.53-2.99,8.28c-1.93,5.55-3.94,10.98-5.93,16.44c-1.44,3.13-2.56,6.12-3.42,8.73c-3.38,5.74-6.66,11.56-10.18,17.18
		l-5.2,8.5l-5.43,8.32l-1.89,2.69c-2.36,3.64-4.22,7.36-4.43,9.7c-0.1,0.73-0.04,1.24,0.13,1.59c-3.55,6.68-7.62,12.98-11.46,19.48
		c-2.06,3.14-4.11,6.27-6.16,9.4c-1.04,1.56-2.01,3.17-3.09,4.68l-3.22,4.54c-8.41,12.3-17.57,23.64-26.58,34.6
		c-0.94,1.08-1.25,1.86-0.79,2.02c-0.46,0.28-1,0.73-1.4,1.23c-1.01,1.38-2.15,2.79-3.38,4.22c-1.22,1.43-2.52,2.91-3.98,4.25
		c-0.59,0.65-0.8,1.13-0.35,1.04c0.49-0.05,1.33-0.59,1.87-1.16c2.86-2.95,5.45-6.07,7.73-8.99c0.24-0.32,0.34-0.59,0.3-0.73
		c0.78-0.35,1.82-1.13,2.69-2.07c2.54-2.64,4.95-5.41,7.39-8.1l3.63-4.06l3.41-4.26c2.25-2.85,4.5-5.69,6.75-8.53l6.35-8.85
		c1.05-1.48,2.14-2.92,3.16-4.43l3.01-4.57c2-3.05,4.07-6.04,6.05-9.13c3.83-6.28,7.91-12.38,11.7-18.84
		c-3.16,6.67-6.9,13.03-10.63,19.63c-1.93,3.24-3.99,6.42-6.03,9.69c-1.03,1.63-2.06,3.27-3.11,4.92c-1.11,1.59-2.22,3.2-3.34,4.81
		c-10.77,15.6-21.14,29.96-35.16,43.07c-0.74,0.67-1.07,1.31-0.84,1.42c0.25,0.1,1-0.29,1.69-1c14.53-13.33,25.76-28.28,36.02-43.83
		c10.27-15.59,19.62-31.85,30.14-49.29c0.84-1.37,1.67-2.74,2.5-4.09c-1.16,2.98-2.31,5.95-3.45,8.9c-1.23,2.92-2.45,5.82-3.67,8.73
		c-2.37,5.88-5.05,11.52-7.69,17.24c-10.46,15.72-21.8,30.78-34.22,44.79c-12.37,14.06-26.04,26.86-40.88,38.06
		c-1.48,1.05-2.45,2.24-2.15,2.61c0.3,0.39,1.79-0.18,3.28-1.23c17.97-11.35,34.55-25.29,49.52-40.87
		c-0.85,1.28-1.69,2.55-2.54,3.83l-3,3.38l-7.31,7.47c-2.45,2.48-5.1,4.75-7.64,7.14c-5.01,4.87-10.51,9.17-15.89,13.66
		c-2.02,1.66-3.85,3.19-5.05,4.57c-1.2,1.37-1.79,2.54-1.5,3.19c0.68,1.13,4.67-0.1,8.8-3.15c-0.61,0.57-1.17,1.2-1.82,1.72
		c-0.65,0.53-0.99,1.09-0.67,1.13c0.41,0,1.41-0.46,2.01-1.02c2.15-2.14,4.26-4.24,6.37-6.34c10.85-8.16,20.61-17.62,30.05-27.32
		l6.75-7.58c2.23-2.54,4.54-5.02,6.6-7.7c4.2-5.29,8.54-10.48,12.41-16c-15.97,24.26-35.82,46.88-59.5,65.68
		c0.38-0.51,0.25-0.79-0.44-0.47c-0.6,0.27-1.57,1.1-1.99,1.57c-0.47,0.56-0.2,0.73,0.43,0.48c0.03-0.01,0.04-0.02,0.06-0.03
		c-6.63,4.67-13.08,9.66-20.21,13.67l-5.25,3.15l-2.63,1.56l-2.74,1.38l-11,5.46c-0.86,0.41-1.5,0.98-1.37,1.22
		c0.13,0.24,1.01,0.03,1.95-0.46c24.77-11.43,46.98-27.66,65.85-46.4c2.44-2.27,4.58-4.81,6.87-7.21c2.24-2.44,4.53-4.83,6.69-7.32
		l6.28-7.62c2.08-2.54,4.19-5.05,6.08-7.72c3.85-5.28,7.84-10.44,11.32-15.91c1.78-2.7,3.56-5.4,5.34-8.09
		c1.73-2.72,3.34-5.51,5-8.26c1.55-2.32,3.11-4.64,4.68-6.98l0.02,0.01c1.35-0.16,3.13-1.22,5.12-2.94
		c-9.54,15.53-19.67,30.69-31.06,45.14c-2.45,2.94-5.11,5.71-7.65,8.58c-2.57,2.84-5.1,5.72-7.89,8.38l-8.16,8.15
		c-2.79,2.65-5.73,5.16-8.58,7.75c-1.66,1.48-2.75,3.06-2.38,3.56c0.32,0.47,1.99-0.43,3.76-1.97c2.84-2.53,5.72-5.04,8.51-7.63
		c-1.76,2.69-2.64,4.78-2.01,5.78c0.59,0.96,2.47,0.63,5.01-0.61c-11.76,12.48-24.43,24.12-37.72,34.83
		c-0.76,0.66-1.11,1.1-0.67,1.13c0.45,0.04,1.35-0.46,2.12-1.09c20.33-14.23,37.8-31.15,53.32-49.2
		c13.82-12.86,26.19-26.58,38.09-42.86c17.21-23.84,29.35-48.44,40.07-73.1c2.29-4.25,4.63-8.49,6.81-12.77
		c2.15-4.29,4.29-8.57,6.43-12.83c-0.09,1.44,0.14,2.42,0.76,2.71c0.16,0.07,0.35,0.05,0.55,0.02c-1.83,3.79-3.67,7.58-5.52,11.4
		c-1.86,3.82-3.83,7.62-5.77,11.48c-9.09,17.83-18.42,35.33-28.4,52.44c-10.02,17.08-20.81,33.71-32.69,49.73
		c-11.91,15.98-24.86,31.46-39.75,45.54c-14.81,14.12-31.27,27.03-49.45,37.93c-4.75,2.59-7.75,5.4-6.62,6.22
		c1.12,0.84,6.08-0.65,10.91-3.29c18.05-10.04,33.83-21.98,48.04-35.16c3.43-3.39,6.87-6.78,10.32-10.19
		c3.37-3.46,6.48-7.12,9.73-10.71c3.3-3.56,6.27-7.36,9.3-11.15c3.04-3.79,6.14-7.59,8.95-11.6c16.54-22.56,28.96-43.2,41.77-67.07
		c1.93-3.48,3.7-6.96,5.48-10.41c1.79-3.44,3.58-6.85,5.35-10.25c3.36-6.84,6.94-13.53,10.15-20.28
		c6.71-13.44,12.93-26.89,19.1-40.67c1.4-2.63,2.75-5.29,3.91-8.07c1.21-2.79,2.28-5.63,3.41-8.43
		c4.72-10.86,9.57-21.53,14.12-32.27c2.3-5.36,4.71-10.65,6.94-16.01c2.24-5.35,4.48-10.7,6.71-16.03
		c-8.79,26.26-18.61,52.11-27.98,77.8c-0.74,1.82-0.84,3.2-0.32,3.21c0.59-0.12,1.63-1.59,2.37-3.41
		c14.43-35.28,28-71.01,39.95-107.23c3.3-3.73,7.01-9.8,10.62-17.03c4.78,5.48,12.63,11.57,17.26,17.03l4.41,3.93
		c3.14,3.02,8.64,6.39,15.39,9.49l7.14,3.24c1.54,0.58,3.07,1.15,4.62,1.73c-8.52-0.89-13.85,0.41-13.49,3.92
		c0.35,2.91,4.57,6.81,11.11,10.75c3.27,1.97,7.12,3.95,11.36,5.83c3.93,1.77,7.7,3.28,11.2,4.55c4.54,1.86,8.18,3.68,10.49,5.09
		c0.33,0.18,0.49,0.34,0.75,0.49c0.01,0.02,0.01-0.04,0.01-0.04l0.04,0c0.02-0.01,0.05-0.01,0.08-0.01
		c0.06-0.01,0.09,0.02,0.21,0.04c0.03,0.02,0.09,0.04,0.11,0.08c0.03,0.02,0.04,0.03,0.06,0.05c0.04-0.15-0.01,0.42-0.02,0.78
		c-0.01,0.37-0.06,0.86-0.09,1.31c-0.15,1.88-0.44,4.23-0.85,7.02c-0.49,3.1-0.99,6.21-1.48,9.32c-1.06,6.4-1.98,12.84-3.11,19.28
		c-1.08,6.45-2.17,12.92-3.26,19.43c-1.13,6.51-2.27,13.05-3.42,19.64c-7.05,38.98-13.92,74.45-25.14,111.74
		c-4.18,18.18-8.65,35.96-13.02,53.69c-2.33,8.82-4.46,17.69-6.85,26.49l-3.49,13.25c-0.56,2.22-1.2,4.41-1.8,6.62l-0.45,1.66
		l-0.22,0.8l-0.01,0.26l-0.05,1.07c-0.34,5.41-0.42,12.4-1.34,21.65l-0.3,2.95l-0.17,1.53c0.02,0.35-0.18,0.29-0.3,0.38l-0.41,0.19
		c-1.1,0.48-2.33,1.09-3.6,1.39c-2.57,0.71-5.48,1.02-8.7,0.72c-0.4-0.06-0.46,0.28-0.25,0.66c0.32,0.44,0.9,0.78,1.27,0.78
		l4.46,0.9c1.48,0.19,2.96,0.29,4.38,0.43c1.44,0.08,2.88-0.03,4.27-0.03l0.52-0.01c0.07-0.03,0.21,0.06,0.22-0.07l0.09-0.33
		l0.34-1.3l0.67-2.55c2.52-9.52,4.59-17.85,6.39-25.23c2.42-7.67,4.86-15.41,7.32-23.21c2.56-8,5.15-16.08,7.76-24.24
		c1.63-5.05,3.23-10.02,4.9-14.91c0.25-0.52,0.51-1.09,0.73-1.73c1.75-4.37,3.38-8.81,4.99-13.24c-0.48,1.57-0.95,3.14-1.43,4.71
		c-1,3.1-1.26,5.95-0.48,6.45c0.35,0.12,0.82-0.21,1.33-0.84c-1.45,5.87-2.82,11.71-4.13,17.54c-1.35,5.82-2.7,11.6-4.04,17.38
		c-1.06,3.36-1.82,6.53-2.34,9.31c-2.61,6.31-5.23,12.63-7.85,18.96l-2.01,4.73l-1.23,2.66l-2.37,5.01l-0.88,1.53
		c-1.03,2.1-1.46,4.66-1.17,6.75c0.07,0.64,0.22,1.17,0.42,1.59c-1.09,3.88-2.38,7.83-3.66,11.94l-0.93,2.97l-0.47,1.5
		c-0.4,0.06-0.88-0.04-1.31-0.05c-1.78-0.18-3.64-0.13-5.42-0.53c-3.62-0.55-7.26-1.46-10.82-2.74
		c-7.15-2.54-14.08-6.38-20.69-11.36c-0.83-0.65-1.47-0.79-1.62-0.33c-0.21-0.38-0.55-0.79-0.95-1.07
		c-1.13-0.64-2.24-1.61-3.23-2.53c-0.5-0.47-1.02-0.96-1.54-1.45c-0.6-0.62-1.3-1.3-1.9-2c-0.56-0.6-1-0.84-0.97-0.4
		c-0.01,0.48,0.4,1.33,0.97,1.83l1.01,1.05l0.84,0.82c0.56,0.52,1.11,1.04,1.65,1.56c1.11,1.11,2.41,1.95,3.58,2.76
		c0.26,0.16,0.48,0.21,0.6,0.15c0.26,0.67,0.87,1.51,1.62,2.15c6.56,6,13.95,10.42,21.51,13.23c1.87,0.74,3.84,1.21,5.71,1.81
		c1.89,0.57,3.86,0.81,5.75,1.23c1.9,0.4,3.87,0.42,5.77,0.66l0.72,0.07c0.23,0,0.54,0.16,0.56-0.22l0.52-1.54l1.04-3.05
		c1.52-4.48,3.11-8.79,4.63-13.05c-1.07,4.69-2.47,9.52-3.94,14.62c-0.49,1.65-0.98,3.32-1.47,4.99l-0.1,0.32
		c-0.02,0.13-0.16,0.03-0.24,0.05l-0.55-0.03l-1.1-0.05l-2.24-0.12c-0.75-0.05-1.53-0.05-2.28-0.16l-2.28-0.38
		c-1.52-0.31-3.14-0.41-4.66-0.9c-1.67-0.46-3.33-0.91-4.97-1.35c-1.62-0.6-3.24-1.2-4.84-1.79c-1.67-0.54-3.16-1.41-4.77-2.14
		l-2.39-1.16c-0.79-0.42-1.53-0.9-2.3-1.36c-1.51-0.96-3.15-1.82-4.62-2.93c-1.49-1.13-2.98-2.27-4.49-3.41
		c-1.47-1.21-2.84-2.58-4.29-3.92c-1.48-1.31-2.78-2.88-4.02-4.32c-0.5-0.64-1.02-0.92-1.17-0.7c-0.13,0.23,0.12,0.9,0.67,1.51
		c7.8,9.29,17.36,16.13,27,19.95c2.47,0.87,4.77,1.94,7.26,2.46l3.61,0.93c1.19,0.31,2.44,0.41,3.64,0.62
		c1.21,0.17,2.4,0.4,3.6,0.52l3.62,0.19l1.79,0.1l0.45,0.03l0.11,0.01l0.04-0.13l0.08-0.25l0.32-1.02c0.42-1.33,0.84-2.67,1.26-4.01
		c2.66-8.24,5.19-15.92,8.18-23.55c0.43-1.06,0.87-2.12,1.29-3.17c-1.49,9.6-3.5,20.58-6.31,32.89l-0.21,0.55
		c-0.74,1.86-1.39,3.9-2.21,5.63l-5.76-0.92l-1.45-0.23l-1.41-0.37l-2.84-0.75l-2.85-0.75l-2.76-1.01
		c-1.82-0.73-3.75-1.24-5.51-2.15l-5.38-2.55c-3.43-2-6.96-3.92-10.17-6.37l-2.48-1.75c-0.83-0.59-1.56-1.29-2.35-1.93
		c-1.53-1.33-3.17-2.57-4.63-4l-4.38-4.35c-1.46-1.5-2.7-3.09-4.03-4.6c-0.68-0.83-1.5-1.68-2.14-2.58l-1.97-2.75
		c-1.28-1.85-2.74-3.61-3.82-5.59l-3.49-5.82l-2.99-6.09c-0.77-1.61-1.54-2.85-1.99-2.65c-0.45,0.2-0.38,1.81,0.39,3.45
		c0.99,2.43,1.83,4.94,2.95,7.33l3.52,7.12l4.13,6.82c0.64,1.17,1.54,2.19,2.27,3.27l2.27,3.13c6.35,8.27,14.03,15.76,22.8,21.96
		c-1.29-0.58-2.67-1.07-3.9-1.82l-3.65-2.51c-10.92-8.58-20.3-19.21-27.39-31.46c-1.22-2.34-2.58-4.34-3.83-5.73
		c-1.11-1.46-2.14-2.29-2.83-2.13c-0.64,0.24-0.82,1.39-0.57,3.12c0.29,1.71,1.18,3.89,2.37,6.27c-0.48-0.72-0.95-1.43-1.43-2.16
		c-0.46-0.74-1-1.17-1.08-0.86c-0.06,0.41,0.33,1.47,0.79,2.2c0.88,1.3,1.76,2.59,2.63,3.87c0.93,1.24,1.94,2.42,2.9,3.62l2.8,4.46
		l3.26,4.35c1.16,1.5,2.23,3.02,3.47,4.39l3.75,4.09c5.01,5.46,10.7,10.23,16.65,14.5c1.43,1.16,3.04,2.02,4.58,3l4.66,2.85
		c3.2,1.7,6.47,3.25,9.73,4.81c3.38,1.22,6.68,2.63,10.11,3.68l5.18,1.45l2.59,0.73c0.86,0.23,1.77,0.36,2.65,0.54
		c-1.9-0.21-3.73-0.67-5.58-1.12l-5.58-1.32c-1.84-0.52-3.64-1.17-5.48-1.76l-2.75-0.91l-1.38-0.45l-1.34-0.59l-5.38-2.37
		c-0.89-0.41-1.82-0.76-2.69-1.23l-2.61-1.46l-5.24-2.94c-1.72-1.05-3.35-2.27-5.04-3.41c-6.8-4.51-12.9-10.29-18.73-16.39
		c-1.44-1.52-2.75-3.22-4.14-4.93l-1.98-2.45c-0.63-0.76-1.24-1.54-1.77-2.37l-3.32-4.92c-0.54-0.83-1.13-1.63-1.63-2.49l-1.45-2.6
		c0.45,0.49,0.74,0.41,0.53-0.38c-0.18-0.67-0.81-1.84-1.27-2.34c-0.52-0.57-0.73-0.33-0.54,0.35c0.01,0.03,0.01,0.04,0.02,0.07
		c-8.28-14.92-12.69-32.21-12.58-49.63c-0.01-1.01-0.25-1.89-0.51-1.88c-0.27,0.01-0.46,0.95-0.42,2.09
		c-0.16,14.15,2.89,28.17,8.37,40.92l2.1,4.76c0.72,1.58,1.63,3.05,2.44,4.58l2.52,4.53c0.91,1.46,1.9,2.87,2.85,4.31l2.9,4.27
		l3.4,4.22c1.22,1.51,2.38,2.98,3.63,4.33l3.88,3.95c10.38,10.46,22.51,18.46,35.1,23.7c3.09,1.51,6.37,2.33,9.54,3.42l2.39,0.78
		c0.8,0.23,1.63,0.39,2.44,0.6l4.86,1.14l2.41,0.56l2.47,0.37l4.91,0.72l1.22,0.18l0.61,0.09l0.3,0.04c0.05,0,0.11,0.02,0.15,0.01
		l0.07-0.12l1.12-2l2.2-4.05c0.58-1.65,1.15-3.27,1.71-4.9c1.14-2.85,2.29-5.72,3.44-8.59l0.01,0.02c1.06,0.21,2.46-0.76,4.04-2.72
		c-2.54,6.64-5.07,13.27-7.6,19.87l-2.49,3.44l-1.25,1.71c-0.12,0.44-0.64,0.19-1.03,0.15L356,871.6l-4.94-0.85
		c-1.65-0.28-3.32-0.54-4.91-0.99l-4.84-1.2c-1.61-0.41-3.25-0.75-4.81-1.33l-4.75-1.57c-1.58-0.54-3.2-0.97-4.72-1.72
		c-15.58-7.03-30-17.76-41.42-31.37c-1.59-1.96-3.29-3.51-3.82-3.15c-0.5,0.25,0.56,2.43,2.29,4.6c1.42,1.74,3.03,3.31,4.54,4.97
		c1.57,1.6,3,3.37,4.68,4.84c-3.09-1.9-5.35-3.03-6.3-2.3c-0.89,0.67-0.18,2.87,1.73,5.98l-5.87-5.56
		c-0.98-0.94-1.99-1.85-2.94-2.81c-0.93-0.99-1.84-1.97-2.79-3.09l-5.16-6c-1.41-1.89-2.83-3.78-4.24-5.67l-2.11-2.85l-1.89-3
		c-1.26-2.01-2.52-4.02-3.77-6.02c-1.11-2.11-2.21-4.21-3.31-6.3l-1.64-3.17c-0.51-1.07-0.95-2.18-1.42-3.27
		c-0.43-1.03-0.85-1.52-0.95-1.07c-0.1,0.45,0.13,1.6,0.57,2.62c2.56,6.45,5.54,12.68,9.07,18.51c1.61,3.01,3.67,5.73,5.57,8.53
		c0.99,1.37,1.88,2.82,2.97,4.11l3.68,4.49c1.35,1.68,2.64,3.19,3.99,4.61l4.21,4.14l4.19,4.12c1.44,1.31,2.99,2.46,4.48,3.7
		l4.49,3.64l1.12,0.91l1.19,0.78l2.38,1.55l4.74,3.09c0.8,0.5,1.56,1.07,2.38,1.5l2.46,1.28c2.34,1.48,4.68,2.96,7.01,4.44
		c2.39,1.34,4.85,2.48,7.29,3.74l3.69,1.84c1.24,0.57,2.52,0.98,3.78,1.48c2.55,0.95,5.1,1.9,7.67,2.85c2.64,0.8,5.29,1.6,7.95,2.41
		c1.34,0.39,2.69,0.79,4.04,1.18c1.4,0.34,2.8,0.69,4.21,1.03c1.41,0.34,2.83,0.68,4.25,1.03l2.14,0.51
		c0.71,0.16,1.51,0.46,1.9,0.13c1.96-0.73,3.94-1.46,5.94-2.2c0.8-1.83,1.65-3.76,2.5-5.71c3.99-9.16,7.81-18.42,11.44-27.63
		c3.66-9.21,7.2-18.34,10.43-27.53c0.81-2.3,1.61-4.59,2.41-6.88l1.67-4.97c1.09-3.21,2.06-6.45,3.07-9.67
		c1.97-6.45,4-12.85,5.83-19.31c3.51-8.99,6.94-17.97,10.05-26.99c0.08,1.44,0.43,2.4,1.07,2.61c0.16,0.05,0.35,0.01,0.55-0.04
		c-2.68,7.97-5.55,15.93-8.43,24.02c-2.47,7.09-5.11,14.07-7.59,21.06c-1.24,3.5-2.49,6.98-3.78,10.44
		c-1.69,4.6-3.39,9.18-5.07,13.75c-7.51,19.8-15.14,39.45-22.92,59.59l-4.08,1.63l-2.05,0.8c-0.18,0.06-0.33,0.15-0.53,0.18
		l-0.74-0.13l-1.48-0.26c-3.92-0.71-7.95-1.31-11.8-2.1c-3.82-0.83-7.69-1.53-11.5-2.46c-3.78-1.04-7.6-1.89-11.39-3.07
		c-15.12-4.91-30.28-12.97-43.69-24.54c-0.89-0.64-1.69-1.41-2.48-2.19l-2.41-2.32l-4.84-4.65c-1.67-1.56-3.12-3.11-4.68-4.98
		l-4.45-5.35c-4.56-5.75-8.77-11.83-12.41-18.32c-7.32-12.94-12.69-27.38-15.23-42.81c-1.12-6.28-2.12-10.99-3.41-10.16
		c-0.61,0.41-1.1,2.16-1.36,4.66c-0.12,2.46,0.11,5.65,0.61,8.93c1.88,12.25,5.32,23.91,10.38,34.45l1.84,3.98
		c0.64,1.31,1.39,2.55,2.08,3.82c1.43,2.52,2.84,5.04,4.33,7.5l4.88,7.07c0.85,1.15,1.6,2.37,2.53,3.45l3.16,3.85
		c1.25,1.5,2.51,3.1,3.74,4.5c1.21,1.34,2.46,2.65,3.78,3.87c2.59,2.48,5.18,4.96,7.78,7.45c1.25,1.3,2.67,2.35,4.07,3.43l4.19,3.24
		l4.18,3.23c1.38,1.1,2.93,1.84,4.38,2.78c2.94,1.77,5.89,3.54,8.86,5.32c3.04,1.43,6.09,2.86,9.15,4.3
		c3.02,1.59,6.16,2.51,9.27,3.62c3.12,1.01,6.21,2.38,9.37,2.94c3.91,0.87,7.7,1.88,11.52,2.61c3.81,0.71,7.58,1.42,11.32,2.12
		c3.83,0.62,7.63,1.24,11.41,1.85c0.44,0.04,1.01,0.25,1.34,0.14l1.04-0.25l2.06-0.51l4.09-1.05c7.94-21.12,15.52-41.28,23.32-62.7
		c1.82-5.16,3.63-10.28,5.42-15.36c1.24-3.61,2.47-7.2,3.7-10.77c2.46-7.13,4.9-14.19,7.33-21.24c4.85-14.09,9.63-28.11,14.27-42.6
		c1.09-2.79,2.12-5.61,2.96-8.51c0.84-2.94,1.73-5.86,2.52-8.79c7.16-22.71,14.22-44.98,20.92-67.28
		c-6.25,27.14-13.06,54.09-19.69,80.77c-0.53,1.9-0.47,3.29,0.05,3.24c0.57-0.19,1.44-1.77,1.97-3.68
		c10.54-36.83,20.29-73.99,28.67-111.41c6.69-9.15,14.02-30.3,18.18-49.74C485.18,568.77,486.02,562,486.65,555.15z M930.26,279.98
		c-0.32-0.04-0.59-0.16-1.03-0.35C929.23,279.64,929.24,279.64,930.26,279.98z M918.01,250.68l0.27,0.15l-1.59,5.5L918.01,250.68z
		 M907.62,275.19c0.4,0.22,0.89,0.48,1.51,0.81c0,0-0.64-0.34-1.52-0.81C907.61,275.19,907.62,275.19,907.62,275.19z M874.14,293.82
		c0.54-0.2,1.66-0.34,0.92-0.9c4.64-0.57,9.34-1.26,14.13-2.1c1.79-0.3,3.52-0.76,5.14-1.35c2.14,0.88,4.39,1.7,7.15,2.16
		c-4.43,0.15-9.35,0.92-13.95,1.3c-5.1,0.44-10.1,0.9-15.07,1.41C873.02,294.17,873.57,293.99,874.14,293.82z M864.94,307.19
		l3.62-0.09l-0.72-0.26c4.58-0.59,9.14-1.16,13.7-1.67c4.42-0.04,9.01-0.28,13.66-0.76c2.42-0.27,4.85-0.61,7.28-1
		c-1.92,0.96-3.72,1.96-5.38,2.99c-9.24,0.51-18.22,0.39-27.69,1.8c-0.65-0.02-1.28-0.03-1.92-0.04c-0.97-0.3-1.96-0.61-2.94-0.91
		L864.94,307.19z M671.29,184.89c0.88-2.26,1.71-4.57,2.49-6.91c-0.04,2.16,0.01,4.24,0.14,6.21c-1.75,3.7-3.8,7.21-5.68,10.79
		c-2.42,4.51-4.76,9.07-6.79,13.99c-0.34,0.54-0.65,1.09-1.04,1.6l-2.38,1.96l0.17-0.34c0.63-1.02,1.32-2.02,1.89-3.07l-0.59,0.47
		c1.85-4.19,3.69-8.38,5.53-12.54C667.23,193.23,669.38,189.16,671.29,184.89z M664.98,143.15c-0.17,0.27-0.38,0.45-0.73,0.76
		C664.24,143.92,664.25,143.91,664.98,143.15z M656.46,183.44c0.31-0.82,0.59-1.65,0.83-2.48c0.19-0.84,0.34-1.68,0.45-2.52
		c1.75-1.41,3.5-2.95,5.17-5.12c-1.91,3.89-3.37,8.52-5.45,12.54c-2.14,4.49-4.24,8.9-6.33,13.3c0.13-0.55,0.26-1.11,0.4-1.67
		c0.1-0.55,0.54-1.55-0.32-1.23C653.04,192.12,654.79,187.85,656.46,183.44z M651.07,160.62c0.38-0.24,0.83-0.54,1.41-0.91
		c0,0-0.59,0.39-1.41,0.92C651.07,160.63,651.07,160.62,651.07,160.62z M339.29,395.3c0.02-0.08,0.04-0.15,0.06-0.23
		c0.06,0.01,0.11,0.01,0.17,0.02c-0.03,0.09-0.07,0.19-0.1,0.28C339.37,395.35,339.33,395.33,339.29,395.3z M339.59,394.87
		c-0.06-0.03-0.12-0.06-0.17-0.08c0.01-0.04,0.02-0.08,0.03-0.12c0.07,0,0.14,0,0.21,0C339.64,394.74,339.61,394.8,339.59,394.87z
		 M393.48,405.27c6.06,2.84,11.98,5.72,17.97,8.56c4.19,1.97,8.39,3.95,12.65,5.96c3.33,1.61,6.76,3.27,10.36,5.13l-1.75,0.84
		c-5.94-3.02-11.68-5.57-17.12-7.92c-3.59-1.77-6.83-3.33-10.25-4.91c-3.41-1.58-6.89-3.13-10.43-4.65
		c-3.68-1.58-7.42-3.12-11.2-4.61C387.13,404.32,390.4,404.86,393.48,405.27z M452.78,417.12c0.24,0.51,1.36,0.41,2.52-0.19
		l5.58-2.99c-1.16,1.47-1.65,2.91-1.18,3.97c0.45,1.02,1.72,1.47,3.42,1.43c-3.87,2.74-7.73,5.5-11.54,8.3
		c-0.28,0.21-0.55,0.41-0.83,0.62c-2.7-2.24-5.52-4.35-8.43-6.32c18.47-10.15,35.41-22.66,50.41-36.5c1.25-0.94,2.5-1.89,3.75-2.84
		l0.01,0.01c1.03,0.55,2.43,0.68,4.04,0.45c-3.99,3.22-7.97,6.44-11.95,9.65c-2.01,1.59-3.92,3.31-6.01,4.8l-6.23,4.52l-10.88,6.78
		l-2.72,1.69l-2.82,1.53l-5.65,3.05C453.19,415.67,452.5,416.56,452.78,417.12z M435.57,425.51c0.88,0.46,1.75,0.92,2.65,1.4
		c1.12,0.69,2.24,1.44,3.37,2.23c1.17,1.07,2.33,2.15,3.51,3.28c-0.07,0.05-0.14,0.1-0.22,0.15c-2.03-1.42-4.04-2.69-6.06-3.99
		l1.06,1.01c-2.02-1.15-4.01-2.22-5.98-3.24C434.47,426.09,435.02,425.79,435.57,425.51z M540.94,369.47
		c-2.11,1.95-4.22,3.9-6.32,5.83c-2.05,1.99-4.33,3.71-6.46,5.59c-4.32,3.69-8.57,7.4-12.77,11.14c-2.05,1.93-4.32,3.59-6.48,5.37
		c-2.18,1.77-4.35,3.53-6.51,5.29c-2.16,1.78-4.31,3.56-6.46,5.33c-1.08,0.88-2.13,1.81-3.23,2.66l-3.35,2.49
		c-8.96,6.61-17.67,13.61-27.1,19.6c-0.94,0.62-1.87,1.24-2.8,1.87c-0.77-0.64-1.55-1.27-2.37-1.88c-1.72-1.24-3.13-2.24-4.56-3.17
		c1.91-1.21,3.82-2.42,5.73-3.63l8.39-5.37c2.79-1.78,5.39-3.86,8.1-5.76c4.76-2.22,9.51-4.41,14.3-6.76
		c4.75-2.41,9.31-5.32,14.09-8.41c3.44-2.3,6.78-4.64,9.97-7.1c3.07-2.6,6.03-5.26,8.93-7.95c2.89-2.69,5.71-5.4,8.48-8.13
		c2.77-2.73,5.24-5.75,7.85-8.61c4.29-3.53,8.52-7.1,12.63-10.76c-0.17,0.92-0.08,1.67,0.41,2.16c0.12,0.12,0.28,0.2,0.45,0.28
		C548.23,362.84,544.62,366.13,540.94,369.47z M591.25,324.01c-0.5,0.07-1,0.15-1.49,0.22c-0.07,0.01-0.14,0.01-0.21,0.02
		c0.19-0.21,0.39-0.42,0.58-0.63c0.55-0.61,1.07-1.24,1.61-1.86c0.4-0.07,0.8-0.15,1.21-0.22l-1.29,1.92L591.25,324.01z
		 M592.68,320.67c0.22-0.26,0.45-0.52,0.67-0.78c0.25-0.03,0.5-0.05,0.75-0.08l-0.46,0.69C593.32,320.55,593,320.61,592.68,320.67z
		 M598.73,319.32c1.23-0.13,2.46-0.26,3.69-0.4c-1.3,0.25-2.61,0.46-3.91,0.7C598.59,319.52,598.66,319.42,598.73,319.32z
		 M572.8,342.51l3.44-3.83c1.03-1.13,2.06-2.26,3.09-3.39c0.92-0.13,1.83-0.27,2.75-0.4c0.36,0.01,0.71,0.03,1.06,0.04
		c-0.18,0.25-0.37,0.49-0.55,0.74c-1.85,2.54-3.69,5.08-5.54,7.61c-2,0.34-4,0.67-5.99,1L572.8,342.51z M597.77,320.67
		c5.27-0.96,10.52-1.97,15.73-3.05c1.65-0.19,3.31-0.39,4.98-0.58l0,0.02c0.63,1,1.83,1.81,3.4,2.42c-8.68,1.28-17.33,2.56-26,3.85
		C596.53,322.44,597.15,321.56,597.77,320.67z M609.84,303.63c-0.04,0.01-0.09,0.01-0.13,0.02c0.31-0.46,0.64-0.9,0.94-1.37
		c2.64-1.02,5.64-3.06,8.7-5.73c3.18-0.52,6.42-0.97,9.73-1.32c0.98-0.1,1.97-0.19,2.94-0.26
		C624.54,297.89,617.17,300.77,609.84,303.63z M679.59,328.44c0.02,0.17,0.1,0.33,0.19,0.49c-4.96,0.52-9.95,1.05-15.03,1.59
		c-28.85,3.1-56.48,7.56-83.94,12.15l5.98-7.59c9.25,0.36,18.47,0.66,28.44,0.08c8.49-0.45,16.67-1.5,24.67-2.85
		c8.01-1.32,15.85-2.9,23.66-4.6c5.73-0.33,11.43-0.74,17.07-1.25C679.9,327.08,679.51,327.76,679.59,328.44z M676.11,275.68
		c0.35,0.03,0.73,0.04,1.14,0c2.83-0.14,5.68-0.28,8.52-0.42l-2.93,0.44c-1.95,0.22-3.53,1.1-3.55,2c0.04,0.37,0.36,0.68,0.85,0.9
		c-7.07,1.91-13.98,3.9-20.86,6.04c-2.09,0.35-3.98,0.9-5.59,1.57c-8.21,0.35-16.43,0.69-24.69,1.04l-0.79-0.01
		c0.98-1.22,1.92-2.48,2.8-3.77c11.66-2.46,23.51-4.71,35.74-6.59C669.91,276.42,673.02,276.06,676.11,275.68z M633.58,141.5
		l4.39,3.54l-4.63-3.39L633.58,141.5z M522.52,314.35l-1.74,1.92c-1.2,1.22-1.73,2.75-1.18,3.47c0.26,0.26,0.68,0.33,1.15,0.24
		c-0.91,1.34-1.82,2.67-2.73,3.99l-2.86,3.84c-0.62,0.84-1.23,1.71-1.84,2.56c-0.99-0.8-2.32-1.52-3.99-2.08l-0.95-0.35
		c3.3-0.55,6.2-1.68,7.86-3.61c0.89-1.06,0.12-2.38-0.07-3.6c0.04-0.28-0.01-0.54-0.1-0.8c0.02-0.02,0.04-0.04,0.05-0.05
		c0.26-0.16,0.53-0.36,0.78-0.61L522.52,314.35z M506.06,309.83c-0.28-0.11-0.5-0.28-0.86-0.55
		C505.2,309.28,505.21,309.28,506.06,309.83z M499.39,278.85l0.24,0.19l-2.49,5.18L499.39,278.85z M485.88,301.61
		c0.36,0.26,0.78,0.58,1.33,0.98c0,0-0.56-0.41-1.34-0.98C485.87,301.61,485.88,301.61,485.88,301.61z M487.21,318.47
		c3.59-1.5,4.97-2.08,5.9-2.4l0.02,0.01c0,0,0.01,0,0.28-0.12c0.44-0.16,0.82-0.3,1.37-0.51c0,0,0-0.03-0.01-0.07
		c0.11-0.05,0.23-0.1,0.35-0.15l1.67,0.06c0.63,0.03,1.22-0.15,1.51-0.41c0.23,0.18,0.47,0.37,0.78,0.55
		c2.82,0.15,3.14,0.17,5.46,0.3c-0.36,0.48-0.71,0.97-1.07,1.45c-2.97-0.26-5.96-0.47-8.85-0.86c-0.83-0.15-1.81,0.08-2.21,0.52
		c-0.33,0.43,0.06,0.89,0.91,1.02c2.81,0.6,5.52,1.25,8.19,1.91c-0.32,0.43-0.65,0.85-0.97,1.28c-1.34-0.07-2.68-0.15-4.01-0.27
		c-3.63-0.35-7.28-0.53-10.82-1.02c-0.29-0.04,0.1-0.88-0.44-1.12c-0.27-0.12-0.55-0.22-0.85-0.32
		C485.3,318.41,486.22,318.46,487.21,318.47z M453.38,317.58c0.51-0.17,1.55-0.26,0.88-0.86c4.35-0.32,8.77-0.94,13.23-1.35
		c1.66-0.17,3.29-0.49,4.82-0.94c1.93,1.06,3.94,2.05,6.42,2.77c-4.05-0.25-8.62,0.09-12.87,0.14c-4.73,0.12-9.41,0.41-14.07,0.68
		C452.33,317.87,452.85,317.72,453.38,317.58z M444.81,330.66l3.35-0.02l-0.67-0.28c4.24-0.52,8.41-0.85,12.56-1.12
		c2.01,0.09,4.05,0.13,6.11,0.12c2.05,0.04,4.11,0.05,6.19,0c2.14-0.06,4.29-0.18,6.43-0.33c-1.73,0.75-3.36,1.58-4.86,2.46
		c-8.17-0.3-16.27-0.84-24.97,0.25c-0.59-0.03-1.18-0.06-1.77-0.09c-0.9-0.32-1.81-0.64-2.72-0.95L444.81,330.66z M385.46,349.52
		c5.24-1.35,9.52-3.47,13.68-5.61c0.4-0.03,0.79-0.06,1.21-0.12c10.74,0,22.46-3.19,33.33-4.39c-0.36-0.48-0.72-0.98-1.07-1.46
		c2.07,0,3.43,0.73,5.66,0.57c-0.69-0.27-1.34-0.54-2.03-0.81l0.13-0.01c2.51,0.37,5.36,0.2,8.22-0.3
		c7.05,1.19,15.11,1.22,23.29,0.67c1.14,0.5,2.75,0.73,4.56,0.58c0.79,0.1,1.7,0.11,2.3,0.33c2.64,1.03,5.57,1.65,8.55,2.37
		c0.27,0.06,0.57,0.1,0.85,0.16c-2.01,2.51-3.89,5.03-5.64,7.55c-2.29,2.94-4.41,5.9-6.48,8.9c-2.07,3.04-4.12,6.04-6.18,9.07
		c-1.02,1.56-2.15,2.97-3.31,4.41c-1.15,1.44-2.33,2.88-3.56,4.32c-0.29,0.33-0.17,0.59,0.14,0.65c0.4,0,0.91-0.3,1.15-0.62
		c11.68-10.96,22.92-22.15,34.21-33.74c0.06,0,0.12,0,0.18-0.01c-0.03-0.03-0.06-0.07-0.08-0.1c0.17-0.18,0.35-0.36,0.52-0.54
		c2.83,0.65,5.91,0.75,8.85,0.32c-0.59,0.46-1.18,0.93-1.8,1.35l-4.48,3.16c-2.97,2.1-5.95,4.2-8.93,6.31l-1.54,0.95
		c-1.94,1.39-3.38,3.28-3.7,4.73c-0.11,0.46-0.09,0.85,0.02,1.18c-3.1,2.81-6.22,5.63-9.33,8.45c-3.14,2.8-6.17,5.77-9.47,8.32
		c-3.23,2.65-6.42,5.34-9.53,8.09c-1.56,1.37-3.1,2.77-4.61,4.17c-1.52,1.4-3.12,2.63-4.64,3.99c-0.62,0.54-0.81,1.07-0.49,1.37
		c-0.31,0.06-0.68,0.23-0.94,0.49c-1.33,1.52-3,2.93-4.8,4.35c-0.36,0.36-0.48,0.71-0.18,0.78c0.33,0.12,0.87-0.06,1.21-0.37
		c1.84-1.47,3.58-2.99,5.07-4.57c0.15-0.18,0.22-0.36,0.19-0.49c0.53,0,1.23-0.25,1.81-0.7c3.55-2.14,6.72-4.84,9.96-7.35
		c3.2-2.55,6.39-5.1,9.59-7.65l2.39-1.9l2.29-2.05l4.61-4.06c3.1-2.68,6.25-5.31,9.51-7.86c-2.79,3.01-5.71,5.97-8.74,8.95
		c-3.06,2.93-6.06,6.12-9.51,8.88c-8.18,6.85-15.25,14.17-24.49,19.87c-0.49,0.27-0.7,0.67-0.53,0.86c0.18,0.18,0.69,0.14,1.15-0.18
		c9.6-5.64,17.23-13.13,25.13-20.01c2-1.68,3.86-3.58,5.76-5.44c1.9-1.85,3.83-3.68,5.8-5.48c3.92-3.65,8.22-6.94,12.46-10.68
		c0.68-0.56,1.38-1.11,2.08-1.64c-1.01,1.52-2.02,3.04-3.03,4.55l-1.51,2.28l-1.61,2.16c-2.17,2.89-4.33,5.77-6.48,8.65l-6.18,4.95
		c-1.04,0.81-2.03,1.69-3.11,2.46l-3.22,2.29c-4.28,3.1-8.55,6.19-12.81,9.28l-3.19,2.34l-3.31,2.14l-6.61,4.32l-6.58,4.37
		l-3.28,2.21c-1.1,0.73-2.26,1.34-3.38,2.02c-0.92,0.44-1.49,1.17-1.25,1.59c0.23,0.43,1.2,0.41,2.12-0.04
		c2.82-1.03,5.49-2.38,8.2-3.68l8.13-3.91l8.15-3.96c2.67-1.41,5.26-2.97,7.89-4.46l-1.8,1.92l-2,1.57l-2.45,1.6
		c-0.83,0.51-1.69,0.97-2.53,1.46l-5.08,2.91c-3.37,1.98-6.75,3.96-10.13,5.94c-2.58,1.38-4.22,3.49-3.75,4.76
		c0.59,1.27,3.04,1.25,5.58-0.06l-1.1,0.89c-0.38,0.28-0.55,0.68-0.34,0.81c0.27,0.13,0.87-0.02,1.24-0.29
		c1.31-1.1,2.6-2.18,3.89-3.26c3.36-1.71,6.71-3.45,10.04-5.23l4.99-2.69l4.78-3.03l9.51-6.16c3.13-2.11,6.39-4.04,9.34-6.41
		l-2.3,2.04c-0.79,0.65-1.6,1.26-2.41,1.89l-4.88,3.74c-3.27,2.49-6.58,4.96-9.93,7.41c-3.28,2.55-6.9,4.59-10.42,6.81
		c-3.55,2.17-7.13,4.32-10.75,6.43c0.22-0.31,0.12-0.59-0.33-0.55c-0.38,0.03-1,0.38-1.22,0.69c-0.26,0.36-0.06,0.59,0.33,0.56
		l0.04-0.01c-0.33,0.21-0.68,0.38-1.02,0.57c-3.48-2.3-7.08-4.43-10.69-6.37c-7.35-3.98-15.14-7.31-21.62-10.02
		c-0.46-0.19-0.95-0.37-1.41-0.57c-1.64-1.3-4.3-2.75-7.57-4.02c-1.31-0.69-2.88-1.41-3.79-2.04c-8.06-5.76-18.4-11.43-30.02-17.08
		c2.16,1.31,4.41,2.68,6.57,3.99c-3.35-1.65-6.65-3.31-10.53-4.73c0.32,0.43,0.7,0.95,1.02,1.39c-5.83-3.37-13.14-6.37-20.15-8.46
		c0.07-0.49,0.13-0.98,0.2-1.48c0.23-0.65,0.46-1.3,0.68-2.01c2.17-5.36,4.18-11.1,6.07-17.03c1.14,0.33,2.37,0.6,3.7,0.82
		c2.41,0.37,5.08,0.55,7.91,0.58c5.69,0.06,11.85-0.6,17.5-1.78c4.22-0.85,7.91-2.18,11.58-3.75
		C389.07,349.05,387.29,349.28,385.46,349.52z M375.46,227.6c-0.02,3.56,0.04,6.95,0.16,10.12c-1.77,6.59-3.68,13.03-5.47,19.52
		c-0.67,2.45-1.37,4.92-2.07,7.39c-0.66,0.18-1.32,0.37-1.98,0.55c0.28-1.13,0.57-2.28,0.85-3.41
		C370.28,251.11,373.19,239.49,375.46,227.6z M366.28,171.91c-0.17,0.49-0.38,0.86-0.74,1.47
		C365.55,173.38,365.55,173.37,366.28,171.91z M357.68,242.37c0.58-2.97,1.02-5.93,1.29-8.79c1.85-2.93,3.59-6.09,5.3-10.23
		c-1.84,7.1-3.6,15.26-5.49,22.71c-1.03,4.13-2.05,8.23-3.06,12.31c-0.92,3.51-1.84,7-2.75,10.49c-0.07,0.02-0.14,0.04-0.21,0.06
		c0.06-0.44,0.12-0.88,0.19-1.32c0.1-0.95,0.55-2.77-0.33-1.91C354.58,258.12,356.07,250.34,357.68,242.37z M352.1,205.48
		c0.38-0.53,0.85-1.17,1.44-1.98c0,0-0.61,0.84-1.44,2C352.1,205.49,352.1,205.48,352.1,205.48z M334.36,176.8l4.36,5.15l-4.62-4.8
		L334.36,176.8z M327.79,433.01c0.06-0.14,0.13-0.28,0.19-0.42l3.71-1.94L327.79,433.01z M357.62,422.46
		c-0.45-0.48-0.98-1.05-1.67-1.78c0,0,0.71,0.75,1.69,1.79C357.62,422.46,357.62,422.46,357.62,422.46z M363.82,406.72
		c-6.83-1.26-9.4-1.74-11.18-2.07l-0.02-0.02c0,0-0.02,0-0.54-0.08c-0.82-0.15-1.54-0.29-2.58-0.48c0,0,0,0.03-0.02,0.07
		c-0.21-0.03-0.43-0.07-0.66-0.1c-0.94-0.39-1.89-0.79-2.84-1.19c-1.06-0.46-2.17-0.7-2.78-0.66c-0.31-0.32-0.65-0.65-1.09-1.02
		c-1.05-0.45-1.89-0.82-2.61-1.13c0.11-0.46,0.24-0.93,0.35-1.4c3.51,1.58,6.99,3.16,10.35,4.78c1.36,0.7,3.16,1.16,4.05,1.04
		c0.78-0.15,0.33-0.83-1.09-1.53c-4.34-2.34-8.55-4.66-12.72-6.99c0.08-0.39,0.17-0.78,0.25-1.16c0.3,0.03,0.6,0.07,0.92,0.12
		c8.79,3.81,17.46,7.66,25.45,11.78c0.46,0.25-0.62,0.7,0.18,1.29c0.41,0.29,0.83,0.58,1.26,0.89
		C367.04,408.15,365.49,407.44,363.82,406.72z M406.01,428.02c-3.68-1.43-7.4-2.87-11.17-4.34c-2.81-1.07-5.64-1.99-8.39-2.73
		c-2.55-2.31-5.29-4.65-9.01-7.08c6.55,3.19,14.23,6.27,21.21,9.34c3.92,1.72,7.8,3.42,11.66,5.11c2.78,1.22,5.62,2.51,8.47,3.85
		c-0.19,0.09-0.38,0.18-0.58,0.26c-0.7-0.22-1.23-0.28-0.76,0.37C413.6,431.07,409.73,429.5,406.01,428.02z M419.54,432.89
		c0.13-0.05,0.26-0.11,0.39-0.17c0.88,0.42,1.75,0.81,2.64,1.25C421.57,433.61,420.55,433.21,419.54,432.89z"/>
	<path class="st0" d="M673.67,149.9c0.05,0.3,0.1,0.6,0.15,0.9c0.09-0.21,0.17-0.43,0.26-0.65c-0.07-0.21-0.14-0.41-0.24-0.58
		C673.78,149.67,673.72,149.79,673.67,149.9z"/>
	<path class="st0" d="M672.76,138.75c0.5-0.85,1.01-1.67,1.2-2.99c-0.12-0.35-0.18-0.52-0.21-0.62c-0.29,0.45-0.68,1.05-1.07,1.65
		C671.92,137.98,672.17,138.71,672.76,138.75z"/>
	<path class="st0" d="M673.75,135.15c0.27-0.41,0.45-0.69,0.45-0.69c-0.17,0.15-0.33,0.29-0.49,0.43c0,0.15,0,0.15,0,0.15
		S673.71,135.04,673.75,135.15z"/>
	<path class="st0" d="M565.45,359.27c-6.35,6.39-13.37,12.09-20.12,18.06c-6.63,6.1-13.96,11.42-20.98,17.06
		c-0.48,0.37-0.75,0.84-0.61,1.07c0.12,0.19,0.63,0.08,1.05-0.28c7.05-5.64,14.39-10.94,21.03-17.03
		c6.75-5.97,13.79-11.65,20.14-18.05c0.42-0.43,0.63-0.93,0.52-1.16C566.31,358.73,565.86,358.89,565.45,359.27z"/>
	<path class="st0" d="M444.91,418.74c0.45-0.04,1-0.38,1.22-0.69c0.26-0.37,0.12-0.6-0.33-0.56c-0.39,0.03-0.96,0.32-1.22,0.69
		C444.36,418.49,444.52,418.77,444.91,418.74z"/>
	<path class="st0" d="M928.05,290.72c-0.13-0.01-0.26-0.01-0.38-0.02c-0.25,0.17-0.51,0.34-0.76,0.51c0.23-0.01,0.47-0.02,0.71-0.03
		C927.78,291.02,927.93,290.87,928.05,290.72z"/>
	<path class="st0" d="M937.59,285.23c0.99,0.1,1.96,0.23,3.26-0.14c0.28-0.25,0.41-0.38,0.49-0.45c-0.53-0.08-1.25-0.18-1.97-0.29
		C937.96,284.15,937.38,284.68,937.59,285.23z"/>
	<path class="st0" d="M941.34,284.64c0.49,0.07,0.82,0.12,0.82,0.12c-0.21-0.09-0.4-0.18-0.59-0.27c-0.14,0.06-0.14,0.06-0.14,0.06
		S941.43,284.56,941.34,284.64z"/>
	<path class="st0" d="M636.44,341.74c-0.61,0.05-1.1,0.29-1.1,0.56c-0.01,0.23,0.49,0.41,1.05,0.34c18.17-1.5,36.26-3,54.37-4.49
		c0.61-0.07,1.08-0.32,1.13-0.57c0-0.26-0.46-0.43-1.02-0.38C672.76,338.71,654.59,340.23,636.44,341.74z"/>
	<path class="st0" d="M754.66,381.94c0.04,0.39,0.07,0.79,0.11,1.18c0.1-0.29,0.2-0.59,0.3-0.89c-0.06-0.27-0.13-0.52-0.21-0.74
		C754.79,381.64,754.72,381.79,754.66,381.94z"/>
	<path class="st0" d="M753.04,367.29c0.33-1.25,0.8-2.45,0.61-4.27c-0.2-0.43-0.31-0.65-0.36-0.76c-0.17,0.67-0.37,1.58-0.63,2.47
		C752.1,366.48,752.45,367.38,753.04,367.29z"/>
	<path class="st0" d="M753.29,362.26c0.15-0.63,0.25-1.04,0.25-1.04c-0.12,0.25-0.24,0.48-0.36,0.71c0.04,0.19,0.04,0.2,0.04,0.2
		S753.23,362.13,753.29,362.26z"/>
	<path class="st0" d="M499.58,651.08c0.33-0.34,0.21-0.58-0.28-0.59c-0.42-0.01-1.07,0.22-1.4,0.55c-0.28,0.28-0.15,0.58,0.27,0.59
		C498.66,651.64,499.3,651.36,499.58,651.08z"/>
	<path class="st0" d="M684.64,729.97c-0.26-0.06-0.52,0.34-0.62,0.9c-2.8,17.91-5.21,35.79-7.09,53.59
		c-0.07,0.6,0.08,1.12,0.34,1.17c0.22,0.05,0.49-0.4,0.54-0.95c1.92-17.8,4.33-35.58,7.12-53.48
		C685,730.6,684.87,730.08,684.64,729.97z"/>
	<path class="st0" d="M649.81,864.97c0.19-0.44,0.16-1.13-0.01-1.49c-0.19-0.43-0.46-0.41-0.65,0.03c-0.16,0.38-0.19,1.07,0.01,1.49
		C649.33,865.37,649.66,865.36,649.81,864.97z"/>
	<path class="st0" d="M978.76,448.92c-0.04,0.29-0.08,0.58-0.12,0.87c0.14-0.17,0.29-0.34,0.43-0.51c0-0.21-0.02-0.42-0.05-0.61
		C978.93,448.75,978.84,448.83,978.76,448.92z"/>
	<path class="st0" d="M981.09,438.48c0.71-0.61,1.42-1.18,1.97-2.31c-0.01-0.36-0.02-0.54-0.02-0.63c-0.4,0.31-0.93,0.73-1.47,1.15
		C980.52,437.52,980.54,438.26,981.09,438.48z"/>
	<path class="st0" d="M983.04,435.54c0.37-0.29,0.61-0.48,0.61-0.48c-0.2,0.08-0.39,0.15-0.58,0.23c-0.04,0.13-0.04,0.14-0.04,0.14
		S983.03,435.43,983.04,435.54z"/>
	<path class="st0" d="M1027.73,850.32c-0.38-0.02-0.76-0.03-1.13-0.05c0.25,0.15,0.52,0.28,0.78,0.42c0.26-0.02,0.5-0.06,0.73-0.11
		C1027.98,850.49,1027.86,850.4,1027.73,850.32z"/>
	<path class="st0" d="M1041.32,851.65c1.02,0.63,1.99,1.27,3.6,1.67c0.43-0.07,0.66-0.1,0.77-0.12c-0.53-0.36-1.25-0.84-1.97-1.32
		C1042.31,850.93,1041.4,851.07,1041.32,851.65z"/>
	<path class="st0" d="M1045.7,853.2c0.5,0.33,0.83,0.55,0.83,0.55c-0.17-0.19-0.34-0.38-0.5-0.55c-0.18-0.02-0.19-0.02-0.19-0.02
		S1045.83,853.18,1045.7,853.2z"/>
	<path class="st0" d="M802.17,708.64c-15.74-10.99-31.97-21.42-48.44-31.43c-0.55-0.33-1.12-0.44-1.28-0.23
		c-0.14,0.18,0.18,0.63,0.7,0.92c16.45,10.04,32.58,20.42,48.31,31.4c0.54,0.35,1.09,0.47,1.3,0.32
		C802.93,709.41,802.66,708.99,802.17,708.64z"/>
	<path class="st0" d="M1050.94,850.65c0,0-0.37-0.44-0.95-0.9c-0.58-0.34-0.74-0.42-2.91-1.6c0.24-0.07,0.47-0.16,0.68-0.26
		c0.88-1.35,0.84-1.36-0.97-5.62c0,0-1.29-1.4-3.6-2.82c-2.77-1.31-2.77-1.31-5.97-2.81c0,0-0.68-0.36-1.86-0.98
		c-0.73-0.87-0.88-1.09-1.37-1.82c0,0-0.01,0-0.01-0.01c0.64,0.19,1.29,0.31,1.86,0.33c1.65,0.05,2.14-0.71,1.11-1.69
		c2.42-1.66,2.15-4.03,0.89-6.65c0.88-0.52,1.44-1.2,1.65-2.03c2.99-1.1,5.1-2.64,6.42-4.6l0.91-1.8c-0.1-1.82-1.42-3.96-3.68-6.03
		l-0.64-0.73l1.34-1.28c-0.95-2.62-2.68-5.56-4.47-8.36c-1.79-2.78-3.58-5.71-4.63-8.51l-1.96-3.32c-1.34-2.49-3.98-5.44-7.49-7.87
		c0,0-0.93-0.63-1.85-1.34c-0.92-0.69-1.84-1.38-1.84-1.38c-0.83-0.48-1.65-0.96-2.48-1.44c5.25,0.56,8.91-0.87,9.64-4.11
		c0.57-2.66-0.95-6.09-3.83-9.37c-2.89-3.41-7.14-6.72-12.23-9.58c-26.33-16.32-52.38-37.25-84.15-57.69
		c-23.23-14.99-45.01-27.39-67.59-42.13c-22.86-12.18-45.55-22.67-68.96-32.2c-4.8-1.95-9.44-3.57-13.97-4.99
		c3.64-0.84,7.3-1.6,10.93-2.62l13.25-3.58c0.59-0.18,1.01-0.51,1.01-0.77c-0.06-0.26-0.54-0.33-1.09-0.19
		c-8.62,2.45-17.25,4.63-25.87,6.62c-3.25-0.98-6.45-1.87-9.62-2.69c3.21-0.9,6.41-1.86,9.6-2.72c8.41-2.18,16.71-4.97,25.25-7.63
		c1.74-0.35,3.44-0.9,5.1-1.57c1.67-0.7,3.35-1.4,5.01-2.09c3.31-1.23,6.66-2.27,9.94-3.55c3.29-1.28,6.56-2.55,9.83-3.83
		c6.61-2.35,12.98-5.37,19.46-8.14l-10.97,6.26c-3.67,2.05-7.43,3.82-11.13,5.77c-7.39,4-14.92,7.27-22.33,10.99
		c-1.09,0.48-1.66,1.2-1.39,1.61c0.36,0.39,1.47,0.35,2.57-0.14c21.29-8.56,42.44-18.75,62.22-31.67c3.94,0.31,9.05-1.19,14.57-3.52
		c2.76-1.17,5.6-2.57,8.4-4.11c2.73-1.67,5.37-3.58,7.87-5.51c1.85-1.43,3.54-2.91,5.13-4.45c1.59-1.54,3.11-3.08,4.44-4.88
		c-1.58,1.29-3.24,2.38-4.94,3.5c1.13-0.98,2.22-1.91,3.16-2.96c0.93-1.06,1.8-2.12,2.63-3.19c1.65-2.13,3.11-4.27,4.54-6.4
		c0.36-0.26,0.72-0.51,1.08-0.81c5.12-3.05,9.94-7.3,14.45-11.86c1.13-1.15,2.25-2.3,3.39-3.45l3.26-3.52
		c2.16-2.33,4.31-4.65,6.42-6.94c-0.6-0.12-1.22-0.25-1.82-0.37c1.76-1.5,3.38-1.93,5.11-3.72c-0.74,0.3-1.45,0.58-2.2,0.88
		l0.1-0.11c2.29-1.55,4.62-3.84,6.57-6.48c6.55-4.5,12.9-11.16,18.58-18.63c1.22-0.65,2.59-1.92,3.8-3.66
		c0.65-0.64,1.31-1.45,1.9-1.84c5.38-3.46,10.55-8.48,15.62-14.33c-1.18,1.01-2.41,2.05-3.6,3.06c1.48-1.67,2.99-3.33,4.22-5.4
		c-0.4,0.08-0.84,0.16-1.25,0.24c5.83-5.34,10.07-14.49,9.64-20.46c-0.44-5.97-5.25-6.71-10.83-1.57l-0.83,0.73
		c1.39-3.47,2.03-6.8,1.24-9.3c-0.44-1.36-2.01-1.28-3.18-1.7c-1.4-1.12-4.16,0.62-6.17,3.9c-0.54,0.89-0.97,1.8-1.28,2.67
		c-2.77,3.55-5.5,7.27-8.4,10.66c-0.61,0.65-0.99,1.65-0.87,2.25c0.16,0.54,0.76,0.46,1.37-0.22c2.32-2.32,4.6-4.53,6.88-6.71
		c0.04-0.27,0.07-0.53,0.11-0.81c0.08,0.17,0.12,0.36,0.15,0.56c0.21-0.2,0.42-0.4,0.63-0.6c-0.04,0.22-0.07,0.44-0.11,0.67
		c-0.15,0.18-0.3,0.36-0.46,0.54c0.01,0.45-0.04,0.93-0.13,1.45c-3.25,4.42-6.58,8.78-10.25,12.61c-0.22,0.22-0.64-0.62-1.17-0.29
		c-0.26,0.16-0.52,0.34-0.79,0.53c0.62-0.7,1.24-1.47,1.87-2.31c1.03-3.96,1.42-5.45,1.69-6.48l0.02-0.01c0,0,0-0.01,0.07-0.32
		c0.12-0.48,0.23-0.89,0.38-1.49c0,0-0.03-0.01-0.06-0.03c0.03-0.12,0.05-0.25,0.08-0.39l1.02-1.44c0.4-0.53,0.59-1.16,0.53-1.56
		c0.28-0.1,0.58-0.21,0.9-0.38c1.99-2.69,2-2.69,3.99-5.47c0,0-0.18-0.09-0.48-0.14c0.05-0.13,0.42-1.21,1.17-2.31
		c0.6-1.12,0.6-1.12,2.45-3.71c0,0,0,0-1.45,0.94c0,0,0,0,1.14-0.89c0,0,0,0-0.96-0.14c0,0,0,0,1.16-0.05c0,0,0,0-0.36-0.86
		c0,0,0.01,0,3.17-1.24c0.06-0.2,0.21-0.68,0.57-1.89c0,0-0.01-0.4-0.1-0.74c-0.22-0.15-0.22-0.15-0.5-1.52c0,0-0.25-0.17-0.58-0.24
		c-0.42,0.13-0.42,0.13-1.18-0.2c0,0-0.46,0.16-0.96,0.48c-0.39,0.36-0.49,0.45-1.86,1.83c-0.04-0.21-0.09-0.42-0.16-0.61
		c-1.16-1.07-1.16-1.07-5.43-0.8c0,0-1.49,0.65-3.15,2.15c-1.5,1.98-1.5,1.98-3.23,4.27c0,0-0.41,0.48-1.11,1.32
		c-0.9,0.4-1.12,0.48-1.87,0.73l-0.01,0.01c0.24-0.49,0.42-1,0.49-1.47c0.2-1.36-0.46-1.95-1.52-1.31c-1.35-2.4-3.64-2.73-6.31-2.21
		c-0.41-0.86-1-1.49-1.78-1.85c-0.72-2.81-1.95-5.01-3.67-6.61l-1.61-1.21c-1.77-0.32-3.99,0.42-6.33,2.05l-0.8,0.43l-1.06-1.46
		c-5.44,0.68-11.73,4.51-17.34,5.75l-3.4,1.4c-2.62,0.94-5.48,3.12-8.05,6.13l-2.71,3.14c-0.48,0.72-0.95,1.43-1.43,2.15
		c0.58-4.79-0.74-8.37-3.87-9.38c-5.2-1.6-13.28,4.51-18.23,12.89c-7.33,10.81-14.74,20.47-22.48,29.14
		c-0.98,1.06-1.9,2.2-2.93,3.22l-3.08,3.09c-2.03,2.1-4.06,4.22-6.11,6.34c-2.23,1.96-4.44,3.97-6.65,6.03
		c-1.1,1.04-2.2,2.08-3.31,3.13c-1.2,0.97-2.39,1.94-3.6,2.91c-14.02,11.79-28.57,21.83-46.52,28.98
		c-16.31,8.96-33.34,16.85-51.42,24.36c-3.76,1.67-7.37,3.24-10.82,4.93c-3.46,1.68-6.74,3.53-10.04,5.29
		c-3.32,1.75-6.59,3.49-9.89,5.23c-1.67,0.87-3.35,1.74-5.04,2.62c-0.59,0.28-1.2,0.55-1.8,0.82c0.21-3.14,0.44-6.27,0.76-9.34
		c-0.55,0.27-1.12,0.54-1.67,0.8c0.47-2.27,1.5-3.59,1.86-6.09c-0.43,0.69-0.83,1.35-1.26,2.04l0.02-0.15
		c0.95-2.66,1.42-5.89,1.53-9.25c2.63-7.61,4.06-17.04,4.5-26.98c0.65-1.3,1.09-3.24,1.14-5.51c0.21-0.95,0.29-2.08,0.53-2.79
		c2.33-6.33,3.73-14.08,4.6-22.65c-0.41,1.67-0.83,3.4-1.23,5.06c0.28-2.47,0.57-4.91,0.43-7.64c-0.29,0.32-0.61,0.69-0.9,1.01
		c1.01-4.27,0.65-9.36-0.13-14.01c-0.21-1.17-0.46-2.32-0.76-3.42c3.21-3.72,6.39-7.51,9.66-11.02c-0.59-0.13-1.19-0.27-1.78-0.4
		c1.62-1.41,3.14-1.71,4.82-3.4c-0.74,0.3-1.42,0.52-2.14,0.78l0.1-0.1c2.23-1.43,4.44-3.62,6.44-6.24
		c6.29-4.25,12.91-10.81,19.07-19.32c0.21-0.29,0.42-0.61,0.63-0.91c0.06-0.04,0.11-0.06,0.17-0.1c1.27-0.84,2.72-2.41,4.01-4.54
		c0.72-0.84,1.47-1.87,2.11-2.41c5.79-5,11.7-12.51,16.77-22.92c-0.6,0.96-1.21,1.94-1.82,2.92c-0.62,0.95-1.27,1.84-1.9,2.73
		c1.6-2.7,3.04-5.75,4.24-9.21c-0.43,0.27-0.89,0.64-1.32,0.91c1.49-2.43,2.66-5.56,3.71-8.69c1.04-3.15,1.67-6.74,2.14-10.09
		c0.36-3.47,0.39-6.91,0.19-9.97c-0.34-3.14-0.91-5.93-1.69-8.12c-1.66-4.43-3.81-5.69-5.57-4.41c-0.91,0.64-1.71,1.91-2.51,3.71
		c-0.85,1.79-1.64,4.13-2.36,6.96c0,0-0.2,0.76-0.49,1.67c-0.01-2.39-0.23-4.7-0.58-6.74c-0.45-2.94-1.53-5.42-2.71-7.02
		c-1.12-1.44-2.38-0.04-3.59,0.32c-1.83-0.32-2.97,3.99-3.44,9.42c-0.06,1.44-0.11,2.8-0.1,4.05c-1.25,6.24-2.95,12.36-5.37,17.59
		c-0.47,1.05-0.71,2.39-0.52,3.06c0.23,0.6,0.84,0.29,1.38-0.75c1.95-3.74,3.82-7.54,5.46-11.55c-0.03-0.36-0.07-0.71-0.1-1.08
		c0.12,0.17,0.21,0.39,0.3,0.62c0.15-0.38,0.28-0.78,0.43-1.16c0.03,0.33,0.07,0.65,0.09,0.99c-0.1,0.31-0.2,0.61-0.3,0.91
		c0.12,0.56,0.2,1.19,0.24,1.91c-2.13,7.39-5.04,14.11-8.58,19.65c-0.21,0.32-0.71-0.56-1.24-0.03c-0.26,0.27-0.51,0.55-0.78,0.83
		c0.59-0.99,1.18-2.07,1.77-3.24c0.72-5.04,0.82-7.02,0.98-8.31l0.02-0.02c0,0,0-0.01,0.02-0.41c0.03-0.63,0.06-1.18,0.11-1.97
		c0,0-0.03-0.01-0.07-0.01c0-0.16,0-0.33,0.01-0.5l0.75-2.15c0.29-0.81,0.36-1.64,0.23-2.1c0.25-0.25,0.51-0.52,0.79-0.88
		c0.62-2.14,0.93-3.21,1.24-4.3c0.33-1.08,0.59-2.21,1.03-4.51c0,0-0.2-0.02-0.5,0.1c0-0.19-0.02-1.75,0.29-3.53
		c0.15-1.73,0.1-1.74,0.61-6.14c0,0,0,0-0.87,2.1c0,0,0,0,0.62-1.84c0,0,0,0-0.92,0.46c0,0,0,0,1.02-0.83c0,0,0,0-0.72-0.81
		c0,0,0,0,0.29-0.46c0.3-0.46,0.82-1.38,1.8-3.3c-0.06-0.29-0.21-0.99-0.57-2.73c0,0-0.23-0.47-0.5-0.81
		c-0.27-0.02-0.26-0.03-1.27-1.42c0,0-0.3-0.01-0.62,0.17c-0.27,0.47-0.27,0.47-1.09,0.66c0,0-0.29,0.52-0.53,1.27
		c-0.11,0.7-0.14,0.88-0.55,3.45c-0.15-0.22-0.31-0.42-0.47-0.6c-1.57-0.46-1.55-0.34-5.02,2.68c0,0-1.02,1.65-1.83,4.21
		c-0.43,3-0.55,2.98-1.28,6.35c0,0-0.2,0.73-0.55,1.97c-0.74,0.84-0.94,1.01-1.58,1.6c0,0,0,0.01-0.01,0.01
		c0.09-0.63,0.1-1.26,0.03-1.79c-0.31-1.58-1.15-1.88-1.89-0.75c-2.17-1.96-4.34-1.22-6.71,0.26c-0.66-0.69-1.43-1.07-2.29-1.14
		c-1.73-2.43-3.74-3.89-5.95-4.62l-1.96-0.42c-1.78,0.38-3.44,1.7-5,3.62l-0.6,0.56l-1.5-0.89c-4.76,1.93-9.41,5.73-14.39,7.04
		c0,0-0.71,0.32-1.41,0.65c-0.73,0.31-1.45,0.63-1.45,0.63c-2.22,0.82-4.43,2.58-6.39,5.07l-2.11,2.66
		c-0.39,0.62-0.77,1.24-1.15,1.87c0.01-1.06-0.08-2.04-0.28-2.93c-0.25-0.88-0.59-1.67-1.02-2.36c-0.87-1.38-2.12-2.34-3.67-2.81
		c-5.12-1.43-11.38,2.51-16.21,10.56c-3.55,5.17-7.53,10.49-12.1,16.52c-4.5,5.98-8.99,11.94-13.5,17.92
		c-8.98,11.98-17.92,24.11-26.89,36.78c-13.31,18.74-25.1,36.07-39.83,53.11c-6.17,8.9-12.18,17.7-18.06,26.55
		c-5.67,8.6-11.31,17.16-17,25.8c-2.33,3.55-4.4,6.82-6.3,10.2c-1.93,3.22-3.65,6.58-5.4,9.69c-3.44,6.45-6.87,12.46-11.16,18.52
		c-0.26,0.32-0.12,0.58,0.18,0.63c0.39,0,0.86-0.33,1.07-0.68c7.81-8.24,15.09-17.26,22.53-26.73c7.48-9.5,14.96-19.35,23.6-29.71
		c1.98-2.34,3.94-4.61,5.94-6.82c0.28-0.19,0.56-0.43,0.83-0.71c1.99-1.86,3.95-3.76,5.89-5.67l-1.82,2.17
		c-1.26,1.39-1.83,3.03-1.24,3.73c0.28,0.25,0.71,0.28,1.21,0.14c-3.88,5.84-7.48,11.75-11.04,17.67c-1.27,1.57-2.25,3.12-2.96,4.61
		c-5.64,5.3-11.18,10.53-16.87,15.44l-1.49,1.13c-1.86,1.61-3.15,3.65-3.28,5.18c-0.06,0.48,0.01,0.87,0.15,1.19
		c-5.45,6.57-11.25,12.69-17.1,18.46c-2.9,2.97-5.9,5.62-8.81,8.44c-2.99,2.6-5.89,5.37-8.86,7.85c-0.6,0.52-0.78,1.05-0.48,1.36
		c-0.3,0.05-0.65,0.21-0.9,0.47c-1.28,1.54-2.99,2.65-4.79,3.95c-0.37,0.33-0.51,0.66-0.22,0.76c0.31,0.15,0.85,0.02,1.19-0.26
		c1.86-1.31,3.64-2.6,5.06-4.21c0.15-0.17,0.22-0.35,0.19-0.49c0.51,0.02,1.19-0.22,1.74-0.65c6.72-4.39,12.84-9.58,18.63-15.28
		c5.81-5.67,11.44-11.58,17.3-17.7c-4.83,6.93-10.42,13.28-16.6,19.61c-7.48,7.56-14.54,14.64-23.75,19.98
		c-0.5,0.23-0.73,0.61-0.57,0.81c0.17,0.19,0.67,0.19,1.14-0.09c9.61-5.3,17.29-12.59,24.46-20.27
		c7.19-7.72,13.95-15.91,22.13-24.14c0.65-0.64,1.31-1.27,1.97-1.88c-3.56,6.54-7.09,13.06-10.98,19.27
		c-15.43,14.91-32.21,28.14-51.61,36.07c-0.97,0.3-1.65,0.93-1.49,1.39c0.15,0.46,1.1,0.6,2.09,0.29
		c11.72-2.8,23.16-7.78,33.75-14.26c-0.58,0.7-1.21,1.31-1.83,1.96l-2.08,1.58c-3.34,2.24-6.9,4.09-10.39,6.1l-5.41,2.68
		c-0.91,0.43-1.8,0.92-2.72,1.32l-2.8,1.16c-2.83,1.02-4.81,2.94-4.57,4.26c0.39,1.36,2.93,1.61,5.81,0.62l-1.29,0.75
		c-0.44,0.23-0.69,0.61-0.49,0.77c0.26,0.16,0.92,0.08,1.35-0.15c1.56-0.94,3.09-1.85,4.58-2.81c14.92-5.92,28.31-14.96,40.13-25.26
		c-2.93,3.07-6.17,5.89-9.36,8.79c-3.36,2.72-6.65,5.56-10.29,8.02c-3.52,2.62-7.34,4.87-11.16,7.17
		c-3.97,2.05-7.91,4.24-12.16,5.83c0.28-0.29,0.22-0.57-0.27-0.58c-0.41-0.01-1.12,0.26-1.41,0.55c-0.34,0.33-0.17,0.58,0.26,0.59
		l0.04,0c-9.07,3.51-18.78,5.94-28.71,6.5c-0.58,0.04-1.05,0.32-1.02,0.58c0.03,0.27,0.58,0.42,1.22,0.34
		c4.12-0.41,8.27-0.7,12.29-1.67c2.01-0.45,4.07-0.74,6.02-1.37l5.88-1.79c7.71-2.69,15.1-6.08,21.82-10.3
		c13.62-8.23,25-18.8,34.97-29.95c1.19-1.1,2.39-2.21,3.54-3.36l0.02,0.01c1.09,0.42,2.51,0.35,4.1-0.11
		c-7.36,7.66-15.04,15.06-23.4,22.02c-7.39,5.23-15.18,10.02-23.43,14.15c-1.22,0.55-2.04,1.42-1.8,1.99
		c0.21,0.53,1.42,0.46,2.73-0.1c2.06-1,4.06-2.12,6.09-3.18c-1.3,1.54-1.92,3.04-1.49,4.12c0.4,1.04,1.73,1.48,3.57,1.37
		c-8.64,6-18.04,11.39-28.13,15.68c-0.59,0.26-0.85,0.59-0.57,0.76c0.28,0.17,0.95,0.11,1.53-0.15
		c15.12-4.99,28.28-12.78,39.92-21.42c10.28-5.2,19.87-11.04,29.14-18.69c13.5-11.21,23.2-23.94,32.48-36.37
		c3.91-3.86,7.77-7.76,11.47-11.73c-0.11,0.92,0.06,1.68,0.58,2.13c0.13,0.11,0.29,0.18,0.46,0.25c-3.23,3.53-6.48,7.08-9.78,10.68
		c-15.54,16.91-30.65,34.41-48.88,50.52c-9.13,8.03-19.12,15.7-30.5,22.3c-11.34,6.58-24.18,12.03-38.12,15.14
		c-3.58,0.6-6.1,2.04-5.54,3.23c0.55,1.19,4.14,1.74,7.84,1.04c13.98-2.29,26.49-7.27,37.56-13.42
		c11.09-6.19,20.82-13.62,29.9-21.74c12.8-11.63,22.54-22.3,32.87-34.42c6.03-7.1,11.75-13.75,17.43-20.21
		c5.59-6.32,11.14-12.6,16.85-19.05c-0.07,3.13-0.15,6.27-0.24,9.42c-4.68,4.86-9.37,9.71-14.06,14.58
		c-6.16,6.43-12.57,12.95-19.19,19.44c-0.45,0.43-0.69,0.94-0.53,1.14c0.14,0.18,0.65,0,1.05-0.42c6.65-6.48,13.07-13,19.23-19.41
		L613.88,588c-0.41,14.73-0.94,29.73-1.3,45.34c-0.14,6.06-0.28,11.98-0.42,17.82c-0.21,5.9-0.42,11.73-0.62,17.54
		c-0.44,11.56-1.26,23.34-2.56,35.35c-0.24,23.49,0.17,46.32,1.75,69.79c0.31,4.92,0.83,9.55,1.49,14.02
		c0.74,4.5,1.61,8.82,2.54,13.07c0.96,4.22,1.91,8.39,2.86,12.59c0.94,4.18,2.08,8.44,3,12.79c0.1,0.51,0.39,0.57,0.61,0.31
		c0.23-0.39,0.28-1.09,0.15-1.55c-2.69-27.47-3.84-55.32-1.6-84.16c0.25-3.31,0.54-6.58,0.93-9.77c0.12-0.34,0.22-0.73,0.28-1.14
		c0.54-2.88,1.09-5.77,1.64-8.66l-0.27,3.05c-0.25,2.01,0.22,3.8,1.1,4.04c0.37,0.04,0.74-0.2,1.08-0.64
		c0.1,7.52,0.64,15.02,1.17,22.43c-0.12,2.19-0.01,4.22,0.29,5.99c-1.51,8.36-2.61,16.89-3.98,25.37l-0.44,2.1
		c-0.43,2.79-0.13,5.54,0.84,6.97c0.28,0.46,0.59,0.74,0.91,0.9c0.12,4.92,0.25,9.85,0.37,14.78c0.14,4.93,0.2,9.82,0.57,14.73
		c0.31,4.9,0.68,9.76,1.14,14.55c0.44,4.79,0.99,9.52,1.89,14.17c0.17,0.94,0.54,1.44,0.96,1.3c-0.1,0.35-0.13,0.81-0.03,1.22
		c0.68,2.21,1.1,4.68,1.46,7.28c0.14,0.57,0.38,0.88,0.6,0.61c0.27-0.27,0.38-0.91,0.27-1.42c-0.39-2.66-0.86-5.26-1.52-7.66
		c-0.08-0.26-0.2-0.43-0.34-0.47c0.26-0.53,0.38-1.37,0.27-2.2c-0.49-9.55-0.98-18.96-1.46-28.4c-0.45-9.44-0.49-18.87-0.19-28.5
		c1.02,9.52,1.33,19.15,2.1,29.32c0.99,12.29,2.44,23.53,3.36,35.84c0,0.64,0.25,1.07,0.49,1c0.24-0.08,0.46-0.6,0.4-1.23
		c-0.74-12.59-1.86-24.4-3.1-36.41c-0.62-6.01-0.89-12-1.11-18.15c-0.16-6.14-0.21-12.44,0.4-18.89c0.11-1.01,0.22-2.03,0.32-3.03
		c1.33,8.13,2.99,16.15,4.58,24.08c-0.47,11.89-0.24,23.83-0.02,35.68l0.1,4.44l0.26,4.44l0.55,8.86l0.61,8.82
		c0.2,2.93,0.42,5.86,0.81,8.78c0.05,1.14,0.5,2.06,0.98,2.02c0.49-0.03,0.85-1.01,0.79-2.15c0.01-3.32,0.24-6.63,0.42-9.95
		c0.18-3.32,0.36-6.64,0.54-9.96l0.51-9.97l0.78-9.96c0.18,0.94,0.37,1.87,0.55,2.81l0.14,2.78c-0.21,8.55,0.06,17.11,0.24,25.68
		c-0.08,3.21,1,5.84,2.44,5.98c1.34,0.03,2.42-2.35,2.56-5.41l0.24,1.48c0.06,0.5,0.33,0.85,0.54,0.72c0.24-0.2,0.4-0.84,0.35-1.32
		c-0.32-1.79-0.64-3.54-0.96-5.3c0.4-16.17,0.88-32.35,1.42-48.57c0.28,8.76,0.77,17.55,0.92,26.37c0.03,4.41,0.34,8.81,0.49,13.23
		c0.17,4.41,0.3,8.83,0.39,13.26c-0.17-0.36-0.46-0.4-0.64,0.05c-0.16,0.38-0.16,1.13,0.01,1.49c0.19,0.42,0.48,0.34,0.65-0.04
		l0.01-0.04c0.32,9.49,0.85,18.98,0.94,28.53c0,0.56,0.23,1.02,0.5,1c0.27-0.03,0.46-0.55,0.43-1.17
		c-1.06-31.68-2.12-63.08-3.15-93.93c0.08-1.68,0.16-3.37,0.24-5.06l0.02,0c1.09-0.46,2.09-1.5,2.94-2.96
		c-0.19,10.92-0.59,21.79-0.23,32.66c-0.43,9.03-0.97,18.07-0.95,27.1c-0.02,1.3,0.42,2.4,1.04,2.43c0.57,0.04,1.02-1.03,1.06-2.4
		l0.11-6.63c0.72,1.83,1.74,3.04,2.89,3.17c1.11,0.14,2.13-0.76,2.91-2.27c0.5,4.84,1.04,9.65,1.63,14.41
		c0.32,2.37,0.63,4.74,0.94,7.1c0.37,2.35,0.86,4.66,1.32,6.97c0.11,0.54,0.36,0.82,0.6,0.62c0.23-0.2,0.34-0.76,0.24-1.29
		l-0.44-5.02c-0.13-1.68-0.18-3.36-0.29-5.04c-0.19-3.36-0.38-6.72-0.58-10.07l-0.6-10.06c-0.2-3.36-0.19-6.74-0.29-10.11
		c0.88-5.3,1.79-10.52,2.6-15.84c0.84-5.33,1.78-10.79,2.4-16.52c0.46-4.18,0.76-8.29,0.99-12.37c0.3-4.09,0.49-8.15,0.61-12.18
		c0.23-8.05,0.19-16.01,0.32-24.02c0.93-5.66,1.77-11.31,2.5-16.93c0.45,0.85,1.03,1.39,1.71,1.46c0.17,0.02,0.34-0.02,0.52-0.07
		c-0.57,4.95-1.14,9.92-1.73,14.98c-5.37,46.88-3.31,91,2.4,134.02c0.25,2.76,1.47,4.7,2.7,4.3c1.24-0.39,2.06-2.97,1.81-5.7
		c-0.18-5.15-0.5-10.19-0.92-15.19c-0.33-5.02-0.56-10.04-0.97-15.06c-0.34-5.03-0.94-10.04-1.22-15.19
		c-0.32-5.16-0.65-10.39-0.99-15.73c-0.57-7.6-0.63-14.85-0.79-22.08c-0.05-3.62-0.11-7.24-0.16-10.92
		c0.05-3.7,0.09-7.47,0.14-11.36c0.16-9.11,0.65-17.87,1.5-26.64c0.79-8.75,1.72-17.44,2.74-26.43c0.39-1.74,0.72-3.5,0.83-5.29
		c0.12-1.81,0.25-3.62,0.37-5.42c1.68-14.08,4.07-27.82,6.36-41.64c-0.48,8.38-0.98,16.65-1.35,24.93
		c-0.38,8.3-0.61,16.5-0.63,24.65c-0.06,1.17,0.33,1.99,0.82,1.92c0.51-0.15,0.97-1.16,1.02-2.33c1.38-22.56,3.53-45.47,5.34-68.45
		c1.82-2.21,3.51-5.43,4.97-9.24c6.02,2.46,12.12,4.95,18.37,7.57c15.36,6.45,28.65,12.6,43.66,20
		c17.53,8.76,32.98,18.43,49.19,28.68c1.48,1.19,3,2.32,4.64,3.29c1.66,0.98,3.32,1.96,4.97,2.94
		c12.54,8.25,24.31,17.15,35.89,26.12c-14.88-9.26-29.9-18.22-45.32-25.99c-1.08-0.61-2.02-0.65-2.17-0.18
		c-0.08,0.53,0.67,1.43,1.75,2.03c20.74,11.97,40.92,25.06,60.78,38.56c1.41,3.67,4.54,8.04,8.56,12.39
		c3.98,4.41,8.83,8.84,13.74,12.55c3.64,2.83,7.3,4.97,11.21,7.05c-1.51-1.36-2.97-2.68-4.47-4.04c4.83,3.44,9.59,5.67,14.36,7.81
		c0.32,0.31,0.64,0.63,1.01,0.95c8.03,9.06,19.63,17.19,30.03,25.8c0.07-0.62,0.14-1.26,0.21-1.88c1.76,1.78,2.42,3.42,4.49,5.24
		c-0.39-0.77-0.77-1.51-1.16-2.28l0.12,0.11c1.91,2.4,4.54,4.77,7.63,6.85c5.51,6.8,13.58,13.76,22.97,20.03
		c0.91,1.32,2.57,2.84,4.85,4.17c0.86,0.71,1.92,1.45,2.47,2.09c1.25,1.44,2.58,2.92,4.09,4.35c1.53,1.42,3.17,2.84,4.9,4.26
		c3.42,2.89,7.46,5.6,11.78,8.32c-1.56-1.26-3.18-2.58-4.74-3.85c2.46,1.59,4.89,3.19,7.84,4.55c-0.2-0.43-0.43-0.91-0.64-1.34
		c2.03,1.58,4.52,2.92,7.07,4.19c2.59,1.23,5.24,2.4,8.03,3.16c5.52,1.59,10.85,2.41,14.8,1.75c7.85-1.19,6.44-6.24-2.24-11.36
		l-1.19-0.78c4.89,1.13,9.47,1.22,12.31,0.1c1.54-0.65,0.79-2.25,0.86-3.5c0.84-1.6-2.41-4.16-7.2-5.71
		c-1.28-0.48-2.54-0.83-3.73-1.07c-1.97-0.94-3.92-1.87-5.9-2.82c-3.29-1.59-6.44-3.38-9.48-5.12c-0.94-0.6-2.25-0.93-2.93-0.8
		c-0.6,0.16-0.38,0.82,0.6,1.43c3.42,2.26,6.7,4.6,10.07,6.82c0.33,0.02,0.66,0.03,1,0.04c-0.18,0.1-0.4,0.15-0.62,0.21
		c0.31,0.2,0.62,0.39,0.93,0.59c-0.3-0.02-0.57-0.03-0.88-0.06c-0.26-0.14-0.52-0.28-0.78-0.42c-0.54,0.04-1.13,0.03-1.78-0.05
		c-1.8-0.9-3.59-1.81-5.35-2.73c-4.52-2.27-8.63-4.96-12.52-7.63c-0.31-0.22,0.6-0.68,0.1-1.23c-0.26-0.27-0.52-0.53-0.8-0.81
		c0.97,0.64,2.02,1.27,3.17,1.92c4.94,1.01,6.81,1.39,8.1,1.66l0.02,0.02c0,0,0.01,0,0.4,0.05c0.6,0.1,1.13,0.19,1.9,0.32
		c0,0,0.01-0.03,0.02-0.06c0.15,0.02,0.32,0.04,0.49,0.06l1.99,0.98c0.75,0.38,1.55,0.55,2.02,0.47c0.2,0.29,0.41,0.59,0.7,0.92
		c3.77,1.97,3.82,1.88,7.82,3.68c0,0,0.06-0.19,0.02-0.5c0.17,0.04,1.61,0.32,3.19,0.98c1.57,0.48,1.51,0.59,5.38,2.05
		c0,0,0,0-1.67-1.32c0,0,0,0,1.5,1.02c0,0,0,0-0.17-0.99c0,0,0,0,0.48,1.17c0,0,0,0,0.93-0.5c0,0,0.01,0.01,2.71,3.04
		c0.27,0.03,0.92,0.1,2.54,0.29c0,0,0.48-0.07,0.86-0.22c0.1-0.24,0.11-0.24,1.66-0.75c0,0,0.11-0.28,0.06-0.63
		C1050.82,851.48,1050.82,851.48,1050.94,850.65z M1041.48,811.54l0.15,0.28l-4.48,3.6L1041.48,811.54z M972.46,440.03
		c-0.24,0.19-0.5,0.3-0.92,0.47C971.55,440.51,971.55,440.5,972.46,440.03z M971.5,475.05c-0.6,2.01-1.11,3.97-1.52,5.85
		c-5.99,6.88-12.34,13.18-18.38,20.73l-1.46,1.29c-0.93,0.45-1.86,0.91-2.79,1.36l0.25-0.3l2.62-2.56l-0.72,0.31
		c2.97-3.58,5.91-7.16,8.76-10.71C963,486.27,967.51,480.83,971.5,475.05z M954.22,452.37c0.42-0.13,0.94-0.29,1.58-0.49
		c0,0-0.67,0.21-1.59,0.5C954.22,452.37,954.22,452.37,954.22,452.37z M953.36,475.63c1-1.44,1.82-2.95,2.5-4.47
		c2.09-0.86,4.22-1.85,6.39-3.45c-2.85,3.17-5.65,7.09-8.51,10.54c-3.16,3.82-6.31,7.57-9.49,11.29c0.28-0.5,0.56-1,0.84-1.5
		c0.26-0.5,0.92-1.36,0.02-1.27C947.95,483.2,950.71,479.51,953.36,475.63z M943.03,428.9l3.07,4.72l-3.36-4.64L943.03,428.9z
		 M745.79,374.38c-0.15,0.35-0.36,0.62-0.69,1.04C745.1,375.43,745.1,375.42,745.79,374.38z M749.98,417.13
		c-0.64,2.47-1.21,4.81-1.68,7.02c-6.5,8.88-13.47,15.8-19.76,23.54l-1.49,1.34c-0.93,0.44-1.88,0.89-2.82,1.34l0.26-0.3l2.68-2.58
		l-0.73,0.32c3.09-3.66,6.19-7.38,9.29-11.33C740.76,431.21,745.77,424.74,749.98,417.13z M730.84,394.94
		c0.4-0.23,0.93-0.49,1.53-0.88c0,0-0.63,0.39-1.54,0.89C730.84,394.95,730.84,394.94,730.84,394.94z M731.11,420.27
		c1.02-1.67,1.91-3.37,2.6-5.11c2.11-1.25,4.33-2.59,6.54-4.83c-1.41,2.09-2.91,4.22-4.33,6.45c-1.49,2.12-2.95,4.32-4.46,6.27
		c-3.34,4.35-6.68,8.41-10.02,12.28c0.3-0.52,0.59-1.05,0.89-1.57c0.27-0.53,0.99-1.42,0.06-1.31
		C725.42,428.72,728.34,424.68,731.11,420.27z M714.29,374.99c0,0,1.12,0.79,2.24,1.58c1.11,0.84,2.23,1.67,2.23,1.67
		s-1.17-0.8-2.35-1.6c-1.18-0.76-2.36-1.52-2.36-1.52L714.29,374.99z M725.63,602.85l-6.63,1.37c-1.55-0.53-3.09-1.02-4.63-1.52
		c3.6-0.89,7.17-1.84,10.72-2.84c1.54-0.27,3.08-0.63,4.63-0.93l0.01,0.02c0.67,0.95,1.86,1.67,3.4,2.16L725.63,602.85z
		 M709.52,602.71c0.28,0.05,0.5,0.02,0.6-0.08c0.04,0.05,0.09,0.09,0.13,0.14c-1.99,0.48-3.99,0.93-6,1.36
		c-0.49-0.21-0.99-0.4-1.48-0.61c2.11-0.29,4.22-0.58,6.33-0.91C709.24,602.63,709.39,602.68,709.52,602.71z M701.48,603.68
		c0.16,0.22,0.46,0.47,0.88,0.63c0.11,0.05,0.23,0.1,0.34,0.15c-1.1,0.23-2.21,0.44-3.32,0.67c-0.33-0.14-0.66-0.27-0.99-0.41
		c-0.03-0.21-0.06-0.41-0.09-0.62C699.36,603.96,700.42,603.82,701.48,603.68z M699.44,618.34c0.03,0,0.07,0,0.1,0
		c-0.04,0.22-0.07,0.44-0.11,0.66C699.45,618.78,699.43,618.57,699.44,618.34z M700.85,605.74c1.09-0.22,2.19-0.43,3.27-0.66
		c1.15,0.5,2.29,1.01,3.44,1.49c-1.1,0.22-2.2,0.44-3.3,0.64C703.12,606.72,701.99,606.23,700.85,605.74z M709.42,606.21
		c-1.24-0.49-2.48-0.99-3.73-1.5c1.82-0.4,3.63-0.83,5.44-1.26c0.3,0.18,0.62,0.34,0.97,0.47c0.9,0.4,1.8,0.78,2.7,1.18
		C713.02,605.48,711.22,605.85,709.42,606.21z M712.69,602.16c-0.11-0.03-0.22-0.07-0.33-0.11c0.79-0.14,1.58-0.26,2.37-0.4
		C714.05,601.83,713.37,601.98,712.69,602.16z M700.73,623.17c0.01-0.17,0.02-0.34,0.02-0.51c1.17,0.53,2.35,1.06,3.52,1.59
		c-0.35,0.07-0.7,0.14-1.05,0.21C702.39,624.04,701.56,623.61,700.73,623.17z M700.76,621.66c0.01-0.91,0.01-1.81-0.01-2.71
		c2.76,1.45,5.52,2.9,8.28,4.34c-1.08,0.23-2.15,0.43-3.23,0.66C704.12,623.19,702.44,622.43,700.76,621.66z M716.57,627.21
		c6.81,3.53,13.63,7.05,20.43,10.61c-7.55-3.31-15.12-6.66-22.7-10.05C715.07,627.59,715.82,627.4,716.57,627.21z M719.42,621.04
		c-0.9-0.25-1.8-0.49-2.7-0.74l-2.76-1.16c-0.54-0.28-1.1-0.54-1.65-0.82c0.76-0.03,1.54-0.08,2.3-0.12
		c1.64,0.94,3.28,1.87,4.91,2.81C719.49,621.02,719.46,621.03,719.42,621.04z M726.87,617.34c0.38-0.04,0.73-0.05,1.11-0.09
		c1.68-0.23,3.34-0.49,5-0.76c0.83,0.31,1.66,0.63,2.49,0.94c-1.89,0.44-3.78,0.88-5.67,1.31
		C728.82,618.26,727.85,617.79,726.87,617.34z M737.64,616.91c-0.73-0.29-1.45-0.58-2.18-0.87c1.15-0.21,2.3-0.42,3.44-0.65
		c0.62,0.27,1.23,0.53,1.85,0.8C739.71,616.44,738.68,616.67,737.64,616.91z M744.47,614.19c1.95-0.45,3.88-0.93,5.79-1.44
		c0.61,0.24,1.21,0.48,1.82,0.72c-1.98,0.48-3.96,0.96-5.93,1.44C745.59,614.67,745.03,614.43,744.47,614.19z M730.45,581.12
		c-3.26,1.65-6.48,3.45-9.79,4.97c-6.65,1.4-13.32,2.68-20.01,3.92c0.15-1.16,0.29-2.33,0.42-3.51c11.9-3.48,23.58-7.39,36.48-9.99
		c0.89-0.16,1.77-0.31,2.65-0.46C736.92,577.76,733.68,579.44,730.45,581.12z M704.96,584.09c-1.27,0.33-2.49,0.68-3.74,1.02
		c0.03-0.33,0.07-0.65,0.11-0.98c0.04-0.38,0.07-0.77,0.11-1.15c1.3-0.3,2.6-0.61,3.89-0.9c8.05-2.17,16.16-4.01,24.34-5.97
		C721.91,579.31,713.64,581.52,704.96,584.09z M684.94,517.24c1.2-2.05,2.34-4.22,3.22-7c-0.53,4.61-0.45,9.83-0.99,14.61
		c-0.51,5.31-0.98,10.51-1.4,15.68c-0.06-0.61-0.13-1.21-0.2-1.82c-0.09-0.59-0.03-1.76-0.72-1.12c0.3-4.85,0.48-9.78,0.54-14.83
		C685.45,520.87,685.31,519.01,684.94,517.24z M690.72,502.44c-0.06,0-0.13,0-0.2,0c0.17-0.24,0.35-0.47,0.52-0.71
		c-0.02,0.15-0.04,0.3-0.06,0.45C690.89,502.26,690.8,502.35,690.72,502.44z M712.86,628.13c11.65,5.22,23.29,10.34,34.87,15.41
		c1.6,0.85,3.21,1.71,4.82,2.57l-0.01,0.02c-0.02,1.2,0.59,2.59,1.63,4.05c-5.27-2.64-10.52-5.27-15.77-7.89
		c-5.28-2.57-10.59-5.07-15.9-7.57c-3.82-2.05-7.64-4.11-11.47-6.15C711.64,628.42,712.25,628.28,712.86,628.13z M752.49,629.84
		c-5.21-2.65-10.45-5.24-15.7-7.78c2.1-0.56,4.21-1.12,6.35-1.7c1.75,0.69,3.5,1.39,5.26,2.1c-0.18,0.11-0.29,0.24-0.28,0.38
		c0.02,0.22,0.52,0.38,1.06,0.25c0.17-0.03,0.33-0.06,0.5-0.1c8.4,3.46,16.81,7.33,25.29,12.18c0.94,0.56,1.89,1.13,2.82,1.68
		C769.26,634.37,760.88,632.04,752.49,629.84z M751.67,622.59c0.78-0.16,1.57-0.31,2.35-0.46c4.6,2.14,9.17,4.38,13.73,6.79
		C762.42,626.94,757.09,624.8,751.67,622.59z M750.17,621.98c-1.73-0.7-3.46-1.41-5.2-2.12c0.83-0.23,1.69-0.47,2.53-0.71
		c1.71,0.76,3.42,1.55,5.13,2.33C751.81,621.65,750.99,621.82,750.17,621.98z M752.59,617.72c1.99-0.58,3.97-1.15,5.94-1.69
		c2.29,0.93,4.58,1.9,6.86,2.86c-2.32,0.49-4.63,0.97-6.94,1.44C756.5,619.45,754.55,618.59,752.59,617.72z M789.42,603.3
		c0.05,0.16,0.16,0.31,0.27,0.45c-2.36,0.69-4.71,1.45-7.1,2.09c-2.39,0.61-4.79,1.22-7.21,1.84c-5.6,1.43-11.17,2.83-16.69,4.2
		c-0.96-0.23-1.93-0.46-2.89-0.68c6.11-1.81,12.09-3.87,18.01-6.13c2.74-0.57,5.47-1.15,8.19-1.72c2.71-0.65,5.39-1.43,8.06-2.18
		C789.47,601.91,789.21,602.65,789.42,603.3z M768.53,554.65c2.62-0.93,5.22-1.77,7.81-2.56c0.31-0.01,0.64-0.06,0.98-0.15
		c2.42-0.51,4.87-1.01,7.27-1.6c-0.79,0.32-1.62,0.56-2.43,0.86c-1.64,0.48-2.83,1.56-2.67,2.44c0.11,0.36,0.45,0.61,0.92,0.76
		c-2.89,1.41-5.73,2.88-8.56,4.4c-2.81,1.56-5.74,2.85-8.6,4.33c-1.79,0.58-3.39,1.34-4.71,2.19c-3.59,0.7-7.26,1.2-10.92,1.74
		c-3.66,0.53-7.29,1.14-10.97,1.58l-1.85,0.09c-2.42,0.26-4.62,1.22-5.58,2.46c-0.31,0.37-0.48,0.74-0.53,1.08
		c-4.07,1.25-8.19,2.47-12.36,3.5c-4.16,1.1-8.32,2.2-12.46,3.3c-0.71,0.17-1.41,0.38-2.12,0.55c0.11-1.16,0.22-2.31,0.32-3.47
		C724.36,569.34,746.09,561.94,768.53,554.65z M700.41,530.13c-0.74,5.35-1.37,10.73-1.59,16.35c-0.11,0.67-0.26,1.32-0.43,1.97
		c-0.5,0.93-1.01,1.87-1.51,2.81l0.04-0.4l0.68-3.73l-0.4,0.69c0.3-4.84,0.61-9.68,0.91-14.49c0.78-4.58,1.39-9.4,1.76-14.33
		c0.09-2.58,0.12-5.18,0.1-7.8c0.66,2.18,1.39,4.25,2.15,6.18C701.68,521.7,700.96,525.9,700.41,530.13z M798.47,694.39
		c-0.09,0.15-0.12,0.32-0.15,0.5c-4.46-2.92-9.01-5.74-13.63-8.62c-28.53-17.73-57.62-31.74-87.14-44.13
		c0.7-2.43,1.3-4.99,1.79-7.59c3.45,1.52,6.89,3.07,10.31,4.64c4.79,3.3,9.53,6.56,14.36,9.89c4.86,3.27,9.81,6.57,15.13,9.84
		c7.79,4.67,15.46,8.96,23.22,12.85c7.67,4.03,15.43,7.66,23.06,11.51c5.06,3.48,10.14,6.87,15.18,10.25
		C799.6,693.54,798.83,693.8,798.47,694.39z M835.2,656.17c-1.86-1.2-3.82-1.64-4.43-0.97c-0.2,0.31-0.12,0.77,0.16,1.28
		c-7.42-3.55-14.84-6.73-22.33-9.72c-2.08-1.15-4.11-2.01-5.96-2.58c-7.57-5.24-15.24-10.39-22.99-15.47l-1.86-1.36
		c-2.54-1.67-5.35-2.65-7.13-2.47c-0.56,0.03-0.96,0.18-1.25,0.4c-3.17-1.44-6.35-2.88-9.53-4.31c2.36-0.46,4.73-0.93,7.09-1.42
		c17.81,7.54,35.54,16.05,53.21,26.28c3.12,1.82,6.13,3.7,9.09,5.59c0.29,0.27,0.62,0.55,1,0.8c2.58,1.89,5.18,3.79,7.76,5.69
		C837.12,657.32,836.17,656.74,835.2,656.17z M975.7,814.87c0.6,0.28,1.63,1.03,1.42,0.07c2.13,1.59,4.35,3.12,6.64,4.61
		c2.29,1.49,4.57,3.03,7,4.45c1.81,1.06,3.66,1.98,5.51,2.73c1.3,2.24,2.79,4.47,5.08,6.76c-4.27-2.89-9.07-6.15-13.52-9.16
		c-4.76-3.49-9.42-6.88-13.91-10.37C974.51,814.25,975.1,814.56,975.7,814.87z M959.79,819.73c-0.6-0.97-1.19-1.95-1.79-2.93
		l0.35,0.27l3.09,2.79l-0.41-0.76c4.19,3.24,8.62,6.35,12.91,9.54c5.96,5.12,12.89,10.11,20.45,14.46
		c-2.52-0.68-4.91-1.29-7.18-1.79c-9.01-6.56-16.87-13.54-25.85-20.03C960.84,820.76,960.32,820.25,959.79,819.73z M1017.63,824.97
		c0.01,0.01,0.02,0.01,0.02,0.01c0.23,0.43,0.52,0.96,0.87,1.62C1018.52,826.6,1018.14,825.91,1017.63,824.97z M1035.76,842.09
		c0,0,0,0,0.85,0.89C1036.3,842.76,1036.09,842.51,1035.76,842.09z"/>
</g>
</svg>
